<svg width="2012" height="285" viewBox="0 0 2012 285" fill="none" xmlns="http://www.w3.org/2000/svg">
<path d="M0 168H143C154.046 168 163 176.954 163 188V257.5C163 267.717 154.717 276 144.5 276H139.5C132.044 276 126 269.956 126 262.5V262.5C126 255.044 132.044 249 139.5 249H313C324.046 249 333 240.046 333 229V26C333 14.9543 341.954 6 353 6H447C458.046 6 467 14.9543 467 26V274C467 279.523 462.523 284 457 284V284C451.477 284 447 279.523 447 274V248C447 236.954 455.954 228 467 228H512C523.046 228 532 219.046 532 208V188C532 176.954 540.954 168 552 168H636H683C694.046 168 703 176.954 703 188V267C703 276.389 695.389 284 686 284H677.5C672.806 284 669 280.194 669 275.5V275.5C669 270.806 672.806 267 677.5 267H889C900.046 267 909 258.046 909 247V205C909 193.954 917.954 185 929 185H955C966.046 185 975 176.046 975 165V21C975 9.9543 983.954 1 995 1H1041C1052.05 1 1061 9.9543 1061 21V247C1061 258.046 1069.95 267 1081 267H1118C1129.05 267 1138 258.046 1138 247V168C1138 156.954 1146.95 148 1158 148H1184C1195.05 148 1204 156.954 1204 168V258C1204 262.971 1199.97 267 1195 267V267C1190.03 267 1186 262.971 1186 258V258C1186 253.029 1190.03 249 1195 249H1326C1337.05 249 1346 240.046 1346 229V91C1346 79.9543 1354.95 71 1366 71H1382C1393.05 71 1402 79.9543 1402 91V215C1402 226.046 1410.95 235 1422 235H1457C1460.87 235 1464 238.134 1464 242V242C1464 245.866 1467.13 249 1471 249H1513C1524.05 249 1533 240.046 1533 229V123C1533 111.954 1541.95 103 1553 103H1580C1591.05 103 1600 111.954 1600 123V217.5C1600 227.165 1592.16 235 1582.5 235H1575C1569.48 235 1565 230.523 1565 225V225C1565 219.477 1569.48 215 1575 215H1607C1618.05 215 1627 206.046 1627 195V168C1627 156.954 1635.95 148 1647 148H1667C1678.05 148 1687 156.954 1687 168V238C1687 244.075 1682.08 249 1676 249H1675.5C1669.7 249 1665 244.299 1665 238.5V238.5C1665 232.701 1669.7 228 1675.5 228H1759C1770.05 228 1779 219.046 1779 208V62C1779 50.9543 1787.95 42 1799 42H1829C1840.05 42 1849 50.9543 1849 62V233.5C1849 242.06 1842.06 249 1833.5 249V249C1824.94 249 1818 242.06 1818 233.5V232C1818 222.611 1825.61 215 1835 215H1885C1896.05 215 1905 206.046 1905 195V132C1905 120.954 1913.95 112 1925 112H1930C1941.05 112 1950 120.954 1950 132V148C1950 159.046 1958.95 168 1970 168H2012" stroke="black" stroke-opacity="0.3" stroke-width="1.5"/>
</svg>
