<svg width="240" height="240" viewBox="0 0 240 240" fill="none" xmlns="http://www.w3.org/2000/svg">
<path d="M1.99324e-05 12C2.05118e-05 5.37257 5.3726 -2.05118e-05 12 -1.99324e-05L228 -1.04907e-06C234.627 -4.69686e-07 240 5.37258 240 12L240 68C240 74.6274 234.627 80 228 80L172 80C165.373 80 160 85.3726 160 92L160 148C160 154.627 154.627 160 148 160L92 160C85.3726 160 80 165.373 80 172L80 228C80 234.627 74.6274 240 68 240L12 240C5.37258 240 4.69686e-07 234.627 1.04907e-06 228L1.99324e-05 12Z" fill="black"/>
</svg>
