<svg width="216" height="127" viewBox="0 0 216 127" fill="none" xmlns="http://www.w3.org/2000/svg">
<rect y="59" width="68" height="68" rx="12" fill="white"/>
<rect x="18" y="78" width="32" height="30" rx="8" fill="#3366FF"/>
<rect x="144" width="72" height="127" rx="12" fill="white"/>
<rect x="152" y="8" width="30" height="30" rx="8" fill="#3366FF"/>
<rect x="178" y="49" width="30" height="30" rx="8" fill="#3366FF"/>
<rect x="154" y="89" width="30" height="30" rx="8" fill="#3366FF"/>
<rect x="95" y="77" width="32" height="32" rx="12" fill="white"/>
<path d="M110.092 88.2305L110.682 87.6767C110.95 87.4502 111.352 87.4502 111.593 87.6767L116.819 92.5596C117.06 92.8113 117.06 93.1888 116.819 93.4154L111.593 98.3234C111.352 98.5499 110.95 98.5499 110.682 98.3234L110.092 97.7697C109.851 97.518 109.851 97.1404 110.092 96.8887L113.335 93.9943H105.643C105.268 93.9943 105 93.7426 105 93.3902V92.5848C105 92.2576 105.268 91.9807 105.643 91.9807H113.335L110.092 89.1114C109.851 88.8597 109.824 88.4822 110.092 88.2305Z" fill="#3366FF"/>
</svg>
