<svg width="220" height="144" viewBox="0 0 220 144" fill="none" xmlns="http://www.w3.org/2000/svg">
<rect y="76" width="68" height="68" rx="12" fill="white"/>
<rect x="152" y="76" width="68" height="68" rx="34" fill="white"/>
<rect x="152" width="68" height="68" rx="34" fill="white"/>
<rect x="18" y="95" width="32" height="30" rx="8" fill="#FE572A"/>
<rect x="95" y="94" width="32" height="32" rx="12" fill="white"/>
<path d="M110.092 105.23L110.682 104.677C110.95 104.45 111.352 104.45 111.593 104.677L116.819 109.56C117.06 109.811 117.06 110.189 116.819 110.415L111.593 115.323C111.352 115.55 110.95 115.55 110.682 115.323L110.092 114.77C109.851 114.518 109.851 114.14 110.092 113.889L113.335 110.994H105.643C105.268 110.994 105 110.743 105 110.39V109.585C105 109.258 105.268 108.981 105.643 108.981H113.335L110.092 106.111C109.851 105.86 109.824 105.482 110.092 105.23Z" fill="#FE572A"/>
<path d="M184.768 42.4181C183.639 42.3828 182.661 42.277 181.832 42.1007C181.003 41.9067 180.218 41.651 179.478 41.3336V37.2865C180.307 37.6568 181.188 37.9566 182.123 38.1858C183.075 38.3974 183.957 38.5385 184.768 38.6091V35.3555C183.957 35.1086 183.199 34.8353 182.493 34.5355C181.805 34.2357 181.197 33.8742 180.668 33.451C180.157 33.0277 179.76 32.5163 179.478 31.9168C179.196 31.2996 179.054 30.5677 179.054 29.7213C179.054 28.6456 179.293 27.755 179.769 27.0497C180.245 26.3443 180.906 25.7976 181.753 25.4096C182.617 25.0217 183.622 24.7924 184.768 24.7219V22.8967H187.202V24.6954C188.277 24.7483 189.256 24.8894 190.138 25.1187C191.019 25.3479 191.813 25.6124 192.518 25.9122L191.381 29.4568C190.728 29.1746 190.041 28.9542 189.318 28.7955C188.612 28.6191 187.907 28.4957 187.202 28.4251V31.6258C188.436 31.9961 189.485 32.3929 190.349 32.8161C191.213 33.2217 191.875 33.7508 192.333 34.4032C192.792 35.0381 193.021 35.8757 193.021 36.9161C193.021 38.3445 192.554 39.5613 191.619 40.5665C190.684 41.554 189.212 42.1536 187.202 42.3652V44.5342H184.768V42.4181ZM187.202 38.5562C187.713 38.468 188.092 38.3269 188.339 38.1329C188.586 37.9389 188.709 37.6744 188.709 37.3394C188.709 37.1101 188.665 36.9161 188.577 36.7574C188.489 36.5987 188.33 36.4576 188.101 36.3342C187.889 36.2108 187.59 36.0873 187.202 35.9639V38.5562ZM184.768 28.4516C184.451 28.4692 184.186 28.5309 183.974 28.6368C183.763 28.7249 183.595 28.8484 183.472 29.0071C183.366 29.1482 183.313 29.3245 183.313 29.5361C183.313 29.7477 183.357 29.9417 183.445 30.1181C183.551 30.2768 183.71 30.4178 183.922 30.5413C184.133 30.6647 184.415 30.7882 184.768 30.9116V28.4516Z" fill="#FE572A"/>
<path d="M184.768 118.418C183.639 118.383 182.661 118.277 181.832 118.101C181.003 117.907 180.218 117.651 179.478 117.334V113.286C180.307 113.657 181.188 113.957 182.123 114.186C183.075 114.397 183.957 114.539 184.768 114.609V111.355C183.957 111.109 183.199 110.835 182.493 110.535C181.805 110.236 181.197 109.874 180.668 109.451C180.157 109.028 179.76 108.516 179.478 107.917C179.196 107.3 179.054 106.568 179.054 105.721C179.054 104.646 179.293 103.755 179.769 103.05C180.245 102.344 180.906 101.798 181.753 101.41C182.617 101.022 183.622 100.792 184.768 100.722V98.8967H187.202V100.695C188.277 100.748 189.256 100.889 190.138 101.119C191.019 101.348 191.813 101.612 192.518 101.912L191.381 105.457C190.728 105.175 190.041 104.954 189.318 104.795C188.612 104.619 187.907 104.496 187.202 104.425V107.626C188.436 107.996 189.485 108.393 190.349 108.816C191.213 109.222 191.875 109.751 192.333 110.403C192.792 111.038 193.021 111.876 193.021 112.916C193.021 114.345 192.554 115.561 191.619 116.566C190.684 117.554 189.212 118.154 187.202 118.365V120.534H184.768V118.418ZM187.202 114.556C187.713 114.468 188.092 114.327 188.339 114.133C188.586 113.939 188.709 113.674 188.709 113.339C188.709 113.11 188.665 112.916 188.577 112.757C188.489 112.599 188.33 112.458 188.101 112.334C187.889 112.211 187.59 112.087 187.202 111.964V114.556ZM184.768 104.452C184.451 104.469 184.186 104.531 183.974 104.637C183.763 104.725 183.595 104.848 183.472 105.007C183.366 105.148 183.313 105.324 183.313 105.536C183.313 105.748 183.357 105.942 183.445 106.118C183.551 106.277 183.71 106.418 183.922 106.541C184.133 106.665 184.415 106.788 184.768 106.912V104.452Z" fill="#FE572A"/>
</svg>
