<svg width="1208" height="700" viewBox="0 0 1208 700" fill="none" xmlns="http://www.w3.org/2000/svg">
<path d="M158 10C164.627 10 170 15.3726 170 22V78C170 84.6274 164.627 90 158 90H102C95.3726 90 90 95.3726 90 102V158C90 164.627 84.6274 170 78 170H22C15.3726 170 10 164.627 10 158V22C10 15.3726 15.3726 10 22 10H158Z" fill="#FE572A"/>
<path d="M1050 90C1043.37 90 1038 84.6274 1038 78L1038 22C1038 15.3726 1043.37 9.99999 1050 9.99999L1106 10C1112.63 10 1118 15.3726 1118 22L1118 66C1118 72.6274 1123.37 78 1130 78L1186 78C1192.63 78 1198 83.3726 1198 90L1198 146C1198 152.627 1192.63 158 1186 158L1130 158C1123.37 158 1118 152.627 1118 146L1118 102C1118 95.3726 1112.63 90 1106 90L1050 90Z" fill="#FE572A"/>
<path d="M330 618C330 611.373 335.373 606 342 606L398 606C404.627 606 410 600.627 410 594L410 538C410 531.373 404.627 526 398 526L342 526C335.373 526 330 531.373 330 538L330 593C330 599.627 324.627 605 318 605L182 605C175.373 605 170 599.627 170 593L170 459C170 452.373 164.627 447 158 447L102 447C95.3726 447 90 452.373 90 459L90 514C90 520.627 84.6274 526 78 526L22 526C15.3726 526 9.99999 531.373 9.99999 538L10 673C10 679.627 15.3726 685 22 685L318 685C324.627 685 330 679.627 330 673L330 618Z" fill="#3366FF"/>
<path d="M1198 678C1198 684.627 1192.63 690 1186 690H970C963.373 690 958 684.627 958 678V622C958 615.373 963.373 610 970 610H1026C1032.63 610 1038 604.627 1038 598V542C1038 535.373 1043.37 530 1050 530H1106C1112.63 530 1118 524.627 1118 518V462C1118 455.373 1123.37 450 1130 450H1186C1192.63 450 1198 455.373 1198 462V678Z" fill="#A8FF00"/>
</svg>
