<svg id="Capa_1" data-name="Capa 1" xmlns="http://www.w3.org/2000/svg" viewBox="0 0 64 64"><defs><style>.cls-1{fill:#9fc43c;}.cls-2{fill:#00a5e0;}.cls-3{fill:#ff4c3b;}</style></defs><title>icono-card-1</title><path class="cls-1" d="M31.17,63C7.68,49,7.08,41.59,7.46,39.61L7.28,12.32a1.6,1.6,0,0,1,1-1.47L32.1.45V3.92L10.48,13.35l.17,26.43c0,.24,0,.28-.05.46,0,.69-.32,6.61,21.38,19.57l.08,3.74ZM10.57,40.3Z"/><path class="cls-2" d="M32.83,63l-.79.48s0-.58-.09-3.67c21.92-13.24,21.5-19.5,21.48-19.55l-.08-.25.17-26.7L32,3.89l0-3.44L56.72,11.27l-.19,28.34C56.92,41.59,56.31,49,32.83,63Z"/><path class="cls-3" d="M31.86,55.54,31,55c-16.45-9.86-17.35-15.28-17-17.1L13.83,18.4l3.19,0,.13,20,0,.12c0,.47.64,4.79,14.83,13.42C31.87,54,31.86,55.54,31.86,55.54ZM17.11,38.41ZM31.94,51.88c0,2.4,0,3.71,0,3.71L31,55"/><path class="cls-2" d="M32,55.61l0-3.69c15-9,14.91-13,14.94-13.46l0-.12.13-20,3.18,0L50,37.91c.34,1.82-.56,7.25-17.07,17.14Zm14.92-17.2Z"/><polygon class="cls-2" points="30.71 38.28 24.18 32.31 26.32 29.96 30.6 33.87 40.35 24.01 42.62 26.25 30.71 38.28"/></svg>