<svg width="400" height="400" viewBox="0 0 400 400" fill="none" xmlns="http://www.w3.org/2000/svg">
<rect x="41.8335" y="119.372" width="159.5" height="213.5" rx="7.25" transform="rotate(-6.79844 41.8335 119.372)" fill="white" stroke="black" stroke-width="1.5"/>
<rect x="-0.655944" y="0.833509" width="70.5" height="86.5" rx="3.25" transform="matrix(-0.992969 0.118377 0.118377 0.992969 158.494 127.788)" fill="#78B5FF" stroke="black" stroke-width="1.5"/>
<rect x="-0.655944" y="0.833509" width="18.5" height="30.5" transform="matrix(-0.992969 0.118377 0.118377 0.992969 140.299 186.354)" fill="white" stroke="black" stroke-width="1.5"/>
<rect x="-0.655944" y="0.833509" width="11.5" height="12.5" transform="matrix(-0.992969 0.118377 0.118377 0.992969 115.468 147.017)" fill="white" stroke="black" stroke-width="1.5"/>
<rect x="-0.655944" y="0.833509" width="11.5" height="12.5" transform="matrix(-0.992969 0.118377 0.118377 0.992969 149.656 155.026)" fill="white" stroke="black" stroke-width="1.5"/>
<path d="M76.3878 265.56L76.1094 263.224L78.7361 260.422C79.1014 260.04 79.3314 259.638 79.2775 259.185C79.2263 258.756 78.8177 258.37 78.21 258.442C77.6381 258.51 77.2764 259.025 77.3517 259.656L75.6716 259.856C75.5068 258.474 76.2686 256.957 78.0321 256.747C79.7361 256.544 80.9 257.59 81.0549 258.888C81.1841 259.973 80.7885 260.709 80.0549 261.449L77.9635 263.571L77.9791 263.702L81.6253 263.268L81.8213 264.912L76.3878 265.56ZM83.2524 264.741L82.5038 258.462L84.2435 258.254L84.3117 258.826L84.4427 258.811C84.6174 258.452 85.0472 258.002 85.7859 257.913C86.6081 257.815 87.1779 258.134 87.5516 258.633L87.6827 258.618C87.9462 258.091 88.455 257.595 89.313 257.493C90.6118 257.338 91.6563 258.192 91.8026 259.42L92.3083 263.662L90.5686 263.869L90.1339 260.223C90.0473 259.496 89.5967 259.163 89.0605 259.227C88.5124 259.292 88.1317 259.749 88.2155 260.452L88.6502 264.098L86.9224 264.304L86.4693 260.503C86.3982 259.907 85.9267 259.601 85.3905 259.665C84.8543 259.728 84.4764 260.209 84.5546 260.864L84.9921 264.534L83.2524 264.741ZM93.6561 263.501L93.3777 261.166L96.0044 258.363C96.3698 257.981 96.5998 257.579 96.5458 257.126C96.4947 256.697 96.0861 256.311 95.4784 256.383C94.9064 256.452 94.5448 256.966 94.6201 257.597L92.94 257.798C92.7752 256.416 93.537 254.899 95.3005 254.688C97.0044 254.485 98.1684 255.531 98.3232 256.83C98.4525 257.914 98.0568 258.65 97.3233 259.39L95.2318 261.513L95.2475 261.644L98.8936 261.209L99.0897 262.853L93.6561 263.501Z" fill="black"/>
<path d="M82.3714 296.086L82.2649 295.192C80.778 295.188 79.5553 294.259 79.3806 292.793L80.596 292.648C80.6869 293.411 81.2717 293.957 82.1271 294.037L81.7961 291.26C80.63 291.109 79.4259 290.842 79.2242 289.15C79.0907 288.03 79.8069 286.941 81.2407 286.601L81.1626 285.946L82.0801 285.836L82.1582 286.492C83.3563 286.506 84.6135 287.118 84.8039 288.714L83.5766 288.861C83.4914 288.146 83.0266 287.693 82.2932 287.624L82.5971 290.174C83.8376 290.34 85.1952 290.577 85.4125 292.4C85.5588 293.627 84.762 294.75 83.1838 295.095L83.2889 295.977L82.3714 296.086ZM81.6498 290.033L81.3742 287.721C80.6406 287.954 80.3785 288.493 80.4396 289.005C80.5177 289.66 81.0061 289.904 81.6498 290.033ZM83.0475 293.951C83.8078 293.74 84.2676 293.238 84.1894 292.582C84.0914 291.76 83.493 291.505 82.7406 291.377L83.0475 293.951ZM90.7557 294.059L90.5157 292.046L86.7265 292.497L86.5717 291.198L89.1656 285.789L90.941 285.578L91.5661 290.821L92.6266 290.694L92.7558 291.778L91.6953 291.905L91.9354 293.919L90.7557 294.059ZM87.7411 291.277L90.3864 290.961L89.8992 286.874L89.8038 286.886L87.7298 291.181L87.7411 291.277ZM95.0335 293.549L94.9028 292.453L96.571 292.254L95.8451 286.165L95.7617 286.175L93.9745 287.403L93.8324 286.212L95.5524 285.028L96.8988 284.867L97.7625 292.112L99.2758 291.932L99.4065 293.028L95.0335 293.549ZM103.682 292.675C102.3 292.84 100.822 292.001 100.622 290.321L100.23 287.032C100.03 285.352 101.269 284.189 102.651 284.025C104.033 283.86 105.511 284.699 105.711 286.379L106.103 289.668C106.304 291.348 105.065 292.511 103.682 292.675ZM103.547 291.543C104.453 291.435 105.015 290.679 104.908 289.774L104.525 286.569C104.417 285.663 103.68 285.05 102.786 285.157C101.892 285.263 101.319 286.032 101.427 286.938L101.809 290.143C101.917 291.049 102.642 291.651 103.547 291.543ZM114.082 291.436C112.354 291.641 110.928 290.422 110.702 288.527C110.479 286.656 111.516 285.119 113.232 284.914C114.436 284.771 115.093 285.418 115.371 285.723L115.466 285.711L115.36 284.818L116.539 284.677L117.119 289.539C117.142 289.729 117.272 289.81 117.463 289.788L117.749 289.754L117.877 290.826L117.031 290.927C116.518 290.988 116.087 290.713 116.023 290.177L115.939 290.187C115.76 290.51 115.321 291.288 114.082 291.436ZM114.096 290.334C115.276 290.194 115.908 289.115 115.768 287.935C115.603 286.553 114.626 285.86 113.566 285.986C112.457 286.118 111.743 287.122 111.895 288.397C112.051 289.708 113.012 290.463 114.096 290.334ZM119.152 290.674L119.03 289.649L120.245 289.504L119.425 282.629L118.21 282.774L118.087 281.737L120.482 281.452L121.425 289.364L122.628 289.22L122.75 290.245L119.152 290.674ZM127.397 289.691L126.656 283.471L127.836 283.33L127.931 284.129L128.026 284.117C128.24 283.584 128.746 283.065 129.616 282.961C130.51 282.855 131.193 283.208 131.603 283.812L131.698 283.8C131.996 283.052 132.607 282.604 133.465 282.502C134.823 282.34 135.846 283.209 136.002 284.52L136.489 288.607L135.309 288.748L134.869 285.054C134.745 284.017 134.145 283.545 133.347 283.64C132.572 283.733 131.984 284.371 132.106 285.395L132.545 289.077L131.365 289.218L130.905 285.357C130.8 284.476 130.142 284.022 129.367 284.115C128.605 284.206 128.023 284.903 128.134 285.833L128.577 289.55L127.397 289.691ZM141.023 288.224C139.129 288.45 137.741 287.249 137.514 285.343C137.279 283.377 138.517 281.9 140.185 281.701C142.08 281.475 143.349 282.69 143.57 284.548L143.614 284.918L138.765 285.496C138.921 286.71 139.745 287.337 140.901 287.199C141.676 287.107 142.351 286.591 142.474 285.791L143.614 285.933C143.379 287.206 142.382 288.062 141.023 288.224ZM138.67 284.601L142.304 284.168C142.118 283.114 141.25 282.625 140.309 282.738C139.356 282.851 138.64 283.638 138.67 284.601ZM147.561 287.444C146.19 287.608 145.165 287.017 144.867 285.832L145.933 285.451C146.129 286.177 146.685 286.485 147.483 286.39C148.282 286.295 148.67 285.898 148.607 285.374C148.428 283.873 145.031 285.486 144.734 282.996C144.608 281.935 145.436 281.075 146.794 280.913C147.926 280.778 148.988 281.268 149.312 282.365L148.311 282.787C148.128 282.168 147.586 281.882 146.883 281.966C146.204 282.047 145.814 282.42 145.868 282.873C146.03 284.231 149.485 282.599 149.787 285.137C149.931 286.34 149.05 287.267 147.561 287.444Z" fill="black"/>
<path d="M157.255 287.139L156.071 277.209M156.071 277.209L153.01 281.099M156.071 277.209L159.961 280.27" stroke="black" stroke-width="1.56"/>
<path d="M82.417 311.167L82.2863 310.07L83.9545 309.872L83.2286 303.783L83.1452 303.793L81.358 305.021L81.2159 303.829L82.9359 302.645L84.2824 302.485L85.146 309.729L86.6593 309.549L86.79 310.645L82.417 311.167ZM88.2949 310.466L88.1159 308.965L90.9811 305.324C91.3155 304.885 91.5189 304.462 91.4564 303.938C91.3683 303.199 90.7758 302.69 89.906 302.793C89.0838 302.891 88.6095 303.576 88.7047 304.375L87.5727 304.51C87.4278 303.294 88.1162 301.871 89.7963 301.67C91.4168 301.477 92.5212 302.53 92.6675 303.757C92.7726 304.639 92.4342 305.247 91.9858 305.844L89.3087 309.137L89.32 309.232L93.3237 308.755L93.4544 309.851L88.2949 310.466ZM96.4031 304.581C95.3426 304.707 94.4729 304.001 94.3521 302.988C94.2314 301.975 94.9079 301.061 95.9565 300.936C97.0527 300.805 97.9357 301.522 98.0579 302.546C98.1772 303.547 97.4755 304.453 96.4031 304.581ZM95.5037 309.606L100.777 300.518L102.004 300.372L96.7191 309.462L95.5037 309.606ZM96.3127 303.721C96.8846 303.653 97.191 303.182 97.1285 302.657C97.0646 302.121 96.6321 301.738 96.0721 301.804C95.524 301.87 95.2176 302.341 95.2816 302.877C95.3441 303.402 95.7646 303.787 96.3127 303.721ZM101.504 309.048C100.443 309.175 99.5631 308.482 99.4409 307.457C99.3202 306.444 99.9967 305.53 101.057 305.404C102.142 305.274 103.026 306.003 103.147 307.016C103.267 308.028 102.564 308.922 101.504 309.048ZM101.402 308.19C101.973 308.122 102.269 307.664 102.205 307.128C102.141 306.592 101.734 306.217 101.162 306.285C100.614 306.351 100.295 306.812 100.358 307.348C100.422 307.884 100.853 308.256 101.402 308.19ZM108.454 308.063L107.459 299.722L110.271 299.386C111.832 299.2 113.025 300.085 113.21 301.634C113.393 303.172 112.398 304.354 110.885 304.534L109.288 304.724L109.669 307.918L108.454 308.063ZM109.158 303.628L110.683 303.446C111.576 303.34 112.072 302.628 111.971 301.782C111.87 300.936 111.226 300.397 110.332 300.503L108.807 300.685L109.158 303.628ZM115.053 307.276L114.931 306.251L116.146 306.106L115.327 299.231L114.111 299.376L113.988 298.339L116.383 298.054L117.326 305.966L118.53 305.822L118.652 306.847L115.053 307.276ZM122.322 306.566C120.916 306.734 119.921 305.789 119.762 304.455L119.286 300.463L120.466 300.322L120.917 304.111C121.023 304.993 121.736 305.5 122.522 305.407C123.392 305.303 123.991 304.555 123.884 303.649L123.445 299.967L124.624 299.827L125.366 306.046L124.186 306.187L124.089 305.377L123.994 305.388C123.795 305.944 123.227 306.459 122.322 306.566ZM129.359 305.728C127.988 305.891 126.963 305.3 126.665 304.115L127.731 303.734C127.927 304.46 128.483 304.768 129.281 304.673C130.08 304.578 130.468 304.181 130.405 303.657C130.226 302.156 126.829 303.769 126.532 301.279C126.406 300.218 127.234 299.358 128.592 299.196C129.724 299.061 130.786 299.551 131.11 300.649L130.109 301.07C129.926 300.451 129.385 300.165 128.682 300.249C128.002 300.33 127.612 300.703 127.666 301.156C127.828 302.514 131.283 300.882 131.585 303.42C131.729 304.623 130.848 305.55 129.359 305.728ZM134.947 304.904L131.978 298.95L133.229 298.801L135.542 303.709L135.637 303.698L136.72 298.385L138.007 298.231L136.532 304.715L134.947 304.904ZM142.367 304.177C140.64 304.383 139.213 303.163 138.987 301.268C138.764 299.398 139.802 297.86 141.518 297.655C142.721 297.512 143.378 298.159 143.656 298.464L143.752 298.453L143.645 297.559L144.825 297.418L145.404 302.28C145.427 302.471 145.558 302.552 145.748 302.529L146.034 302.495L146.162 303.567L145.316 303.668C144.804 303.729 144.372 303.454 144.308 302.918L144.225 302.928C144.046 303.252 143.607 304.029 142.367 304.177ZM142.381 303.075C143.561 302.935 144.194 301.856 144.053 300.677C143.888 299.294 142.911 298.601 141.851 298.728C140.743 298.86 140.028 299.863 140.18 301.138C140.337 302.449 141.297 303.205 142.381 303.075ZM147.437 303.415L147.315 302.39L148.53 302.246L147.711 295.37L146.495 295.515L146.372 294.479L148.767 294.193L149.71 302.105L150.914 301.961L151.036 302.986L147.437 303.415ZM151.741 295.53L152.262 293.813L153.501 293.665L152.635 295.424L151.741 295.53ZM153.013 302.751L152.394 297.555L151.262 297.69L151.139 296.666L153.451 296.39L154.193 302.61L153.013 302.751ZM158.682 302.232C156.954 302.438 155.527 301.218 155.302 299.323C155.079 297.453 156.116 295.915 157.832 295.711C159.035 295.567 159.692 296.214 159.97 296.519L160.066 296.508L159.959 295.614L161.139 295.473L161.718 300.335C161.741 300.526 161.872 300.607 162.062 300.584L162.348 300.55L162.476 301.622L161.63 301.723C161.118 301.784 160.686 301.509 160.622 300.973L160.539 300.983C160.36 301.307 159.921 302.084 158.682 302.232ZM158.695 301.13C159.875 300.99 160.508 299.911 160.367 298.732C160.202 297.349 159.225 296.656 158.165 296.783C157.057 296.915 156.343 297.918 156.495 299.193C156.651 300.504 157.611 301.26 158.695 301.13Z" fill="black"/>
<path d="M170.071 301.724L168.887 291.794M168.887 291.794L165.826 295.684M168.887 291.794L172.777 294.855" stroke="black" stroke-width="1.56"/>
<rect x="199.066" y="67.8227" width="159.5" height="213.5" rx="7.25" transform="rotate(5.86046 199.066 67.8227)" fill="white" stroke="black" stroke-width="1.5"/>
<path d="M309.02 127.77L302.195 194.264C302.012 196.049 300.416 197.348 298.63 197.165L233.97 190.528C232.184 190.345 230.885 188.748 231.069 186.963L237.894 120.469C238.005 119.381 238.657 118.422 239.628 117.918L274.14 99.9778C275.291 99.3796 276.687 99.523 277.692 100.342L307.84 124.919C308.688 125.61 309.132 126.682 309.02 127.77Z" fill="#FFD2D2" stroke="black" stroke-width="1.5"/>
<rect x="-0.82266" y="0.669501" width="18.5" height="30.5" transform="matrix(-0.994774 -0.102106 -0.102106 0.994774 278.363 163.751)" fill="white" stroke="black" stroke-width="1.5"/>
<rect x="-0.82266" y="0.669501" width="11.5" height="12.5" transform="matrix(-0.994774 -0.102106 -0.102106 0.994774 294.945 139.317)" fill="white" stroke="black" stroke-width="1.5"/>
<path d="M200.899 218.045L201.065 216.433L202.688 216.6L203.197 211.646L203.065 211.633L201.165 212.403L201.345 210.648L203.273 209.844L205.135 210.036L204.443 216.78L205.84 216.923L205.674 218.535L200.899 218.045ZM206.805 218.651L207.451 212.36L209.194 212.539L209.135 213.112L209.266 213.126C209.515 212.813 210.033 212.468 210.773 212.544C211.597 212.629 212.083 213.065 212.338 213.634L212.47 213.647C212.842 213.191 213.447 212.819 214.307 212.907C215.608 213.041 216.44 214.103 216.314 215.333L215.878 219.582L214.135 219.403L214.51 215.751C214.584 215.022 214.218 214.599 213.681 214.544C213.131 214.487 212.66 214.849 212.588 215.553L212.213 219.206L210.482 219.028L210.873 215.22C210.934 214.624 210.541 214.221 210.004 214.166C209.467 214.111 208.993 214.497 208.925 215.153L208.548 218.83L206.805 218.651ZM217.228 219.721L217.468 217.381L220.645 215.222C221.085 214.93 221.398 214.588 221.444 214.134C221.488 213.704 221.174 213.238 220.566 213.176C219.993 213.117 219.527 213.539 219.462 214.172L217.779 213.999C217.921 212.615 218.997 211.302 220.763 211.483C222.47 211.658 223.377 212.933 223.243 214.234C223.132 215.321 222.585 215.952 221.707 216.513L219.201 218.126L219.188 218.257L222.84 218.632L222.671 220.28L217.228 219.721Z" fill="black"/>
<path d="M199.893 249.125L199.985 248.229C198.535 247.9 197.546 246.724 197.696 245.256L198.914 245.381C198.836 246.145 199.286 246.807 200.104 247.071L200.389 244.29C199.284 243.887 198.168 243.362 198.342 241.667C198.457 240.545 199.395 239.64 200.868 239.623L200.936 238.966L201.855 239.06L201.787 239.717C202.953 239.993 204.046 240.865 203.882 242.465L202.652 242.339C202.726 241.623 202.371 241.08 201.671 240.851L201.409 243.406C202.583 243.84 203.855 244.368 203.668 246.195C203.541 247.424 202.518 248.345 200.903 248.336L200.812 249.219L199.893 249.125ZM200.515 243.06L200.753 240.745C199.986 240.811 199.612 241.279 199.56 241.792C199.492 242.449 199.915 242.794 200.515 243.06ZM201.02 247.19C201.808 247.15 202.367 246.761 202.434 246.104C202.519 245.281 201.991 244.901 201.285 244.611L201.02 247.19ZM204.912 248.614L205.067 247.11L208.66 244.186C209.083 243.831 209.374 243.463 209.428 242.938C209.504 242.198 209.037 241.571 208.166 241.481C207.342 241.397 206.729 241.961 206.647 242.761L205.513 242.645C205.638 241.427 206.622 240.189 208.305 240.362C209.928 240.528 210.775 241.797 210.649 243.027C210.558 243.91 210.095 244.43 209.526 244.914L206.193 247.54L206.183 247.635L210.194 248.047L210.081 249.145L204.912 248.614ZM214.625 249.768C213.24 249.626 211.983 248.484 212.155 246.801L212.493 243.506C212.666 241.823 214.13 240.96 215.515 241.102C216.899 241.244 218.157 242.386 217.985 244.069L217.646 247.364C217.474 249.047 216.01 249.91 214.625 249.768ZM214.742 248.634C215.649 248.727 216.363 248.113 216.456 247.206L216.786 243.995C216.879 243.087 216.294 242.328 215.398 242.236C214.503 242.144 213.775 242.769 213.682 243.676L213.353 246.887C213.26 247.794 213.834 248.541 214.742 248.634ZM221.958 250.521C220.573 250.379 219.315 249.236 219.488 247.553L219.826 244.258C219.999 242.575 221.463 241.712 222.847 241.854C224.232 241.997 225.49 243.139 225.317 244.822L224.979 248.117C224.806 249.8 223.342 250.663 221.958 250.521ZM222.074 249.387C222.981 249.48 223.696 248.866 223.789 247.958L224.119 244.747C224.212 243.84 223.626 243.08 222.731 242.988C221.836 242.897 221.108 243.522 221.015 244.429L220.685 247.64C220.592 248.547 221.167 249.294 222.074 249.387ZM232.376 251.59C230.646 251.413 229.521 249.91 229.716 248.012C229.908 246.138 231.257 244.865 232.976 245.041C234.182 245.165 234.681 245.94 234.886 246.299L234.981 246.309L235.073 245.413L236.255 245.535L235.755 250.405C235.736 250.596 235.845 250.704 236.036 250.723L236.323 250.753L236.212 251.827L235.365 251.74C234.851 251.687 234.491 251.325 234.546 250.788L234.462 250.779C234.217 251.055 233.618 251.718 232.376 251.59ZM232.631 250.519C233.813 250.64 234.667 249.726 234.788 248.545C234.93 247.16 234.129 246.269 233.067 246.16C231.956 246.046 231.04 246.869 230.908 248.146C230.774 249.459 231.545 250.407 232.631 250.519ZM237.49 251.958L237.595 250.932L238.813 251.057L239.52 244.169L238.302 244.044L238.409 243.005L240.808 243.252L239.995 251.178L241.2 251.302L241.095 252.328L237.49 251.958ZM245.75 252.806L246.39 246.575L247.572 246.696L247.49 247.496L247.585 247.506C247.911 247.033 248.519 246.637 249.39 246.726C250.285 246.818 250.874 247.313 251.142 247.992L251.238 248.001C251.692 247.336 252.386 247.034 253.246 247.122C254.607 247.261 255.414 248.333 255.279 249.647L254.858 253.741L253.677 253.62L254.057 249.919C254.163 248.881 253.681 248.288 252.881 248.206C252.105 248.127 251.391 248.62 251.286 249.647L250.907 253.335L249.725 253.214L250.122 249.347C250.213 248.463 249.67 247.877 248.894 247.797C248.13 247.719 247.41 248.272 247.314 249.203L246.932 252.927L245.75 252.806ZM259.367 254.361C257.469 254.166 256.378 252.691 256.574 250.781C256.776 248.811 258.307 247.641 259.978 247.813C261.876 248.008 262.848 249.471 262.657 251.333L262.619 251.703L257.761 251.204C257.648 252.423 258.314 253.215 259.472 253.334C260.248 253.414 261.02 253.059 261.315 252.305L262.397 252.693C261.889 253.884 260.728 254.5 259.367 254.361ZM257.864 250.31L261.505 250.684C261.555 249.615 260.815 248.948 259.872 248.851C258.917 248.753 258.046 249.364 257.864 250.31ZM265.916 255.033C264.543 254.892 263.672 254.091 263.641 252.869L264.765 252.731C264.796 253.482 265.272 253.905 266.071 253.987C266.871 254.069 267.337 253.767 267.39 253.242C267.545 251.738 263.877 252.568 264.133 250.073C264.242 249.01 265.238 248.353 266.599 248.492C267.733 248.609 268.662 249.319 268.737 250.461L267.668 250.653C267.626 250.009 267.16 249.612 266.456 249.539C265.775 249.469 265.312 249.748 265.266 250.201C265.126 251.562 268.855 250.726 268.594 253.269C268.47 254.475 267.408 255.186 265.916 255.033Z" fill="black"/>
<path d="M275.911 256.907L276.932 246.959M276.932 246.959L273.093 250.084M276.932 246.959L280.057 250.798" stroke="black" stroke-width="1.56"/>
<path d="M198.259 265.041L198.351 264.146C196.901 263.816 195.912 262.641 196.063 261.172L197.28 261.297C197.202 262.061 197.653 262.723 198.47 262.988L198.755 260.206C197.651 259.803 196.534 259.279 196.708 257.584C196.824 256.461 197.761 255.556 199.234 255.539L199.302 254.882L200.221 254.977L200.154 255.633C201.319 255.91 202.412 256.782 202.248 258.381L201.018 258.255C201.092 257.539 200.737 256.996 200.037 256.767L199.775 259.322C200.949 259.756 202.221 260.285 202.034 262.111C201.908 263.341 200.884 264.261 199.269 264.252L199.178 265.135L198.259 265.041ZM198.881 258.977L199.119 256.661C198.352 256.727 197.979 257.195 197.926 257.709C197.859 258.365 198.282 258.71 198.881 258.977ZM199.386 263.106C200.175 263.066 200.733 262.677 200.801 262.021C200.885 261.197 200.357 260.817 199.651 260.527L199.386 263.106ZM203.708 264.575L203.821 263.477L205.492 263.648L206.118 257.548L206.035 257.54L204.022 258.346L204.145 257.153L206.082 256.374L207.431 256.513L206.686 263.771L208.202 263.926L208.089 265.025L203.708 264.575ZM210.027 265.223L210.139 264.125L211.811 264.297L212.437 258.197L212.353 258.188L210.34 258.995L210.463 257.801L212.4 257.023L213.749 257.161L213.004 264.419L214.52 264.575L214.408 265.673L210.027 265.223ZM218.145 261.147C217.083 261.038 216.389 260.159 216.493 259.144C216.597 258.129 217.457 257.385 218.508 257.493C219.606 257.606 220.311 258.498 220.205 259.525C220.102 260.528 219.219 261.257 218.145 261.147ZM216.166 265.854L223.303 258.142L224.532 258.268L217.384 265.979L216.166 265.854ZM218.245 260.289C218.818 260.348 219.22 259.955 219.274 259.429C219.329 258.892 218.991 258.423 218.43 258.366C217.881 258.309 217.479 258.702 217.424 259.239C217.37 259.765 217.696 260.232 218.245 260.289ZM222.143 266.624C221.08 266.515 220.373 265.646 220.479 264.619C220.583 263.605 221.443 262.861 222.506 262.97C223.592 263.081 224.295 263.986 224.191 265C224.087 266.015 223.205 266.733 222.143 266.624ZM222.231 265.764C222.804 265.823 223.193 265.441 223.248 264.904C223.303 264.367 222.988 263.912 222.415 263.853C221.866 263.797 221.453 264.177 221.398 264.714C221.343 265.251 221.682 265.708 222.231 265.764ZM229.139 267.185L229.997 258.829L232.814 259.118C234.378 259.279 235.348 260.404 235.189 261.956C235.031 263.495 233.801 264.431 232.285 264.275L230.685 264.111L230.357 267.31L229.139 267.185ZM230.798 263.013L232.326 263.17C233.221 263.261 233.861 262.676 233.948 261.828C234.035 260.981 233.524 260.313 232.629 260.221L231.101 260.064L230.798 263.013ZM235.751 267.864L235.856 266.837L237.074 266.962L237.781 260.074L236.563 259.949L236.67 258.911L239.069 259.157L238.256 267.083L239.462 267.207L239.356 268.234L235.751 267.864ZM242.999 268.765C241.59 268.62 240.826 267.48 240.964 266.143L241.374 262.144L242.556 262.265L242.166 266.061C242.076 266.945 242.66 267.596 243.448 267.677C244.319 267.766 245.068 267.168 245.162 266.26L245.54 262.572L246.722 262.693L246.082 268.924L244.901 268.803L244.984 267.991L244.888 267.981C244.572 268.48 243.906 268.858 242.999 268.765ZM250.048 269.488C248.675 269.347 247.805 268.546 247.773 267.325L248.897 267.187C248.929 267.938 249.404 268.36 250.204 268.443C251.004 268.525 251.469 268.223 251.523 267.697C251.677 266.193 248.009 267.023 248.265 264.528C248.374 263.466 249.371 262.808 250.732 262.948C251.866 263.064 252.794 263.775 252.87 264.916L251.801 265.108C251.758 264.464 251.292 264.067 250.588 263.995C249.908 263.925 249.445 264.203 249.398 264.656C249.259 266.017 252.987 265.182 252.726 267.724C252.603 268.93 251.54 269.641 250.048 269.488ZM255.681 269.909L254.089 263.449L255.342 263.578L256.523 268.874L256.619 268.884L258.84 263.937L260.129 264.069L257.269 270.072L255.681 269.909ZM263.081 270.826C261.35 270.648 260.225 269.145 260.42 267.247C260.612 265.373 261.961 264.1 263.68 264.277C264.886 264.401 265.386 265.176 265.59 265.534L265.686 265.544L265.777 264.649L266.959 264.77L266.459 269.641C266.44 269.832 266.549 269.939 266.74 269.959L267.027 269.988L266.916 271.063L266.069 270.976C265.556 270.923 265.195 270.56 265.25 270.023L265.166 270.015C264.921 270.291 264.322 270.953 263.081 270.826ZM263.335 269.754C264.517 269.875 265.371 268.962 265.492 267.78C265.634 266.395 264.833 265.505 263.771 265.396C262.66 265.282 261.744 266.105 261.613 267.382C261.478 268.695 262.249 269.643 263.335 269.754ZM268.194 271.194L268.299 270.167L269.517 270.292L270.224 263.404L269.006 263.279L269.113 262.241L271.512 262.487L270.699 270.413L271.904 270.537L271.799 271.564L268.194 271.194ZM274.121 264.444L275.005 262.882L276.247 263.009L275.017 264.536L274.121 264.444ZM273.78 271.767L274.314 266.562L273.18 266.446L273.285 265.419L275.601 265.657L274.962 271.888L273.78 271.767ZM279.424 272.503C277.694 272.326 276.569 270.823 276.764 268.925C276.956 267.051 278.305 265.778 280.024 265.954C281.23 266.078 281.729 266.853 281.934 267.212L282.029 267.222L282.121 266.326L283.303 266.448L282.803 271.318C282.783 271.509 282.893 271.617 283.084 271.636L283.371 271.666L283.26 272.74L282.413 272.653C281.899 272.601 281.539 272.238 281.594 271.701L281.51 271.692C281.265 271.968 280.666 272.631 279.424 272.503ZM279.679 271.432C280.861 271.553 281.715 270.639 281.836 269.458C281.978 268.073 281.177 267.182 280.114 267.073C279.004 266.959 278.087 267.782 277.956 269.059C277.822 270.373 278.593 271.32 279.679 271.432Z" fill="black"/>
<path d="M291.189 274.559L292.21 264.612M292.21 264.612L288.371 267.736M292.21 264.612L295.334 268.451" stroke="black" stroke-width="1.56"/>
</svg>
