<svg width="400" height="400" viewBox="0 0 400 400" fill="none" xmlns="http://www.w3.org/2000/svg">
<rect x="129.75" y="80.75" width="141.5" height="203.5" rx="7.25" fill="white" stroke="black" stroke-width="1.5"/>
<rect x="125.75" y="85.75" width="149.5" height="215.5" rx="7.25" fill="white" stroke="black" stroke-width="1.5"/>
<rect x="120.75" y="96.75" width="159.5" height="228.5" rx="7.25" fill="white" stroke="black" stroke-width="1.5"/>
<rect x="133.68" y="258.116" width="134.5" height="32.5" fill="#D5E04F"/>
<rect x="133.68" y="258.116" width="134.5" height="32.5" stroke="black" stroke-width="1.5"/>
<path d="M160.466 278.366L157.61 269.966H159.17L161.414 276.95H161.522L163.826 269.966H165.434L162.494 278.366H160.466ZM168.872 278.522C166.951 278.522 165.668 277.154 165.668 275.234C165.668 273.254 167.12 271.922 168.812 271.922C170.732 271.922 171.896 273.314 171.896 275.186V275.582H167.132C167.144 276.638 167.828 277.31 168.86 277.31C169.556 277.31 170.216 276.95 170.444 276.254L171.74 276.566C171.332 277.874 170.18 278.522 168.872 278.522ZM167.144 274.55H170.456C170.384 273.698 169.676 273.158 168.812 273.158C167.912 273.158 167.228 273.794 167.144 274.55ZM173.271 278.366V272.078H174.687V272.798H174.795C175.071 272.318 175.647 271.922 176.487 271.922C177.867 271.922 178.743 272.954 178.743 274.25V278.366H177.327V274.586C177.327 273.806 176.775 273.266 176.055 273.266C175.275 273.266 174.687 273.866 174.687 274.658V278.366H173.271ZM182.988 278.522C181.296 278.522 180 277.13 180 275.222C180 273.35 181.212 271.922 182.904 271.922C184.02 271.922 184.56 272.522 184.836 272.882H184.944V269.366H186.36V278.366H184.968V277.622H184.86C184.596 277.946 184.08 278.522 182.988 278.522ZM183.216 277.202C184.284 277.202 184.98 276.302 184.98 275.234C184.98 273.986 184.176 273.254 183.204 273.254C182.196 273.254 181.428 274.07 181.428 275.234C181.428 276.422 182.232 277.202 183.216 277.202ZM190.821 278.522C188.901 278.522 187.617 277.154 187.617 275.234C187.617 273.254 189.069 271.922 190.761 271.922C192.681 271.922 193.845 273.314 193.845 275.186V275.582H189.081C189.093 276.638 189.777 277.31 190.809 277.31C191.505 277.31 192.165 276.95 192.393 276.254L193.689 276.566C193.281 277.874 192.129 278.522 190.821 278.522ZM189.093 274.55H192.405C192.333 273.698 191.625 273.158 190.761 273.158C189.861 273.158 189.177 273.794 189.093 274.55ZM195.22 278.366V272.078H196.624V273.002H196.72C196.96 272.474 197.572 271.922 198.376 271.922H198.844V273.338H198.22C197.188 273.338 196.636 274.07 196.636 275.258V278.366H195.22ZM203.283 278.366V272.078H204.699V272.786H204.807C205.059 272.354 205.587 271.922 206.415 271.922C207.279 271.922 207.879 272.342 208.203 272.942H208.311C208.671 272.318 209.295 271.922 210.159 271.922C211.503 271.922 212.427 272.906 212.427 274.19V278.366H210.999V274.658C210.999 273.734 210.519 273.266 209.823 273.266C209.139 273.266 208.563 273.758 208.563 274.658V278.366H207.147V274.49C207.147 273.722 206.619 273.266 205.947 273.266C205.263 273.266 204.699 273.806 204.699 274.634V278.366H203.283ZM216.895 278.522C214.975 278.522 213.691 277.154 213.691 275.234C213.691 273.254 215.143 271.922 216.835 271.922C218.755 271.922 219.919 273.314 219.919 275.186V275.582H215.155C215.167 276.638 215.851 277.31 216.883 277.31C217.579 277.31 218.239 276.95 218.467 276.254L219.763 276.566C219.355 277.874 218.203 278.522 216.895 278.522ZM215.167 274.55H218.479C218.407 273.698 217.699 273.158 216.835 273.158C215.935 273.158 215.251 273.794 215.167 274.55ZM223.935 278.366C222.711 278.366 221.907 277.814 221.907 276.482V273.326H220.815V272.078H221.991V270.314H223.335V272.078H225.111V273.326H223.335V276.47C223.335 276.914 223.515 277.106 223.947 277.106H225.039V278.366H223.935ZM226.556 278.366V272.078H227.96V273.002H228.056C228.296 272.474 228.908 271.922 229.712 271.922H230.18V273.338H229.556C228.524 273.338 227.972 274.07 227.972 275.258V278.366H226.556ZM234.136 278.522C232.204 278.522 230.824 277.106 230.824 275.222C230.824 273.35 232.216 271.922 234.148 271.922C236.08 271.922 237.46 273.35 237.46 275.222C237.46 277.094 236.068 278.522 234.136 278.522ZM234.136 277.178C235.24 277.178 236.02 276.35 236.02 275.222C236.02 274.106 235.24 273.266 234.136 273.266C233.032 273.266 232.264 274.106 232.264 275.222C232.264 276.362 233.044 277.178 234.136 277.178ZM240.974 278.522C239.606 278.522 238.586 277.862 238.418 276.578L239.762 276.278C239.894 276.938 240.35 277.25 241.01 277.25C241.694 277.25 242.054 276.998 242.054 276.578C242.054 275.306 238.646 276.374 238.646 273.818C238.646 272.75 239.534 271.922 240.962 271.922C242.174 271.922 243.122 272.534 243.35 273.662L242.09 274.01C241.97 273.458 241.562 273.206 240.962 273.206C240.362 273.206 240.002 273.47 240.002 273.842C240.002 275.018 243.506 273.914 243.506 276.446C243.506 277.682 242.522 278.522 240.974 278.522Z" fill="black"/>
<rect x="172.75" y="119.75" width="56.5" height="60.7439" rx="2.07927" fill="#FC9070" stroke="black" stroke-width="1.5"/>
<rect x="193.92" y="159.36" width="12.6463" height="21.1341" fill="white" stroke="black" stroke-width="1.5"/>
<rect x="208.066" y="129.652" width="7.69512" height="8.40244" fill="white" stroke="black" stroke-width="1.5"/>
<rect x="184.725" y="138.14" width="7.69512" height="8.40244" fill="white" stroke="black" stroke-width="1.5"/>
<path fill-rule="evenodd" clip-rule="evenodd" d="M251.865 284.455C252.397 284.313 252.961 284.341 253.476 284.536C253.991 284.732 254.431 285.084 254.735 285.544L273.033 313.253C273.319 313.687 273.471 314.195 273.468 314.715C273.465 315.234 273.308 315.741 273.017 316.172C272.726 316.602 272.313 316.936 271.832 317.132C271.351 317.327 270.822 317.376 270.314 317.271L262.974 315.766L266.632 329.416C266.812 330.089 266.717 330.806 266.368 331.409C266.02 332.013 265.446 332.453 264.773 332.633C264.1 332.813 263.383 332.718 262.78 332.37C262.177 332.021 261.737 331.447 261.557 330.774L257.903 317.128L252.299 322.098C251.911 322.443 251.429 322.665 250.914 322.736C250.399 322.808 249.875 322.724 249.407 322.497C248.94 322.27 248.55 321.909 248.288 321.461C248.026 321.012 247.903 320.495 247.935 319.977L249.926 286.832C249.959 286.282 250.163 285.756 250.511 285.329C250.859 284.902 251.333 284.595 251.865 284.452V284.455Z" fill="black"/>
<path d="M188.352 201V199.236L191.556 196.14C191.94 195.756 192.144 195.408 192.144 194.94C192.144 194.304 191.7 193.788 190.92 193.788C190.188 193.788 189.696 194.328 189.696 195.096H188.34C188.34 193.8 189.216 192.444 190.944 192.444C192.588 192.444 193.584 193.632 193.584 194.88C193.584 195.804 193.14 196.392 192.6 196.92L189.78 199.572V199.68H193.644V201H188.352ZM195.384 201V194.712H196.8V195.42H196.908C197.16 194.988 197.688 194.556 198.516 194.556C199.38 194.556 199.98 194.976 200.304 195.576H200.412C200.772 194.952 201.396 194.556 202.26 194.556C203.604 194.556 204.528 195.54 204.528 196.824V201H203.1V197.292C203.1 196.368 202.62 195.9 201.924 195.9C201.24 195.9 200.664 196.392 200.664 197.292V201H199.248V197.124C199.248 196.356 198.72 195.9 198.048 195.9C197.364 195.9 196.8 196.44 196.8 197.268V201H195.384ZM206.165 201V199.236L209.369 196.14C209.753 195.756 209.957 195.408 209.957 194.94C209.957 194.304 209.513 193.788 208.733 193.788C208.001 193.788 207.509 194.328 207.509 195.096H206.153C206.153 193.8 207.029 192.444 208.757 192.444C210.401 192.444 211.397 193.632 211.397 194.88C211.397 195.804 210.953 196.392 210.413 196.92L207.593 199.572V199.68H211.457V201H206.165Z" fill="black"/>
<path d="M170.144 222.71C170.144 224.998 168.472 226.89 165.568 227.22V228.87H163.566V227.22C160.882 226.802 158.88 224.822 158.88 222.028H161.564C161.564 223.282 162.334 224.25 163.566 224.602V220.158C161.498 219.652 159.364 218.86 159.364 215.67C159.364 213.58 160.86 211.732 163.566 211.38V210.148H165.568V211.402C167.79 211.71 169.836 213.14 169.836 216.176H167.152C167.152 215.076 166.58 214.262 165.568 213.932V218.002C167.746 218.552 170.144 219.322 170.144 222.71ZM162.026 215.67C162.026 216.616 162.664 217.122 163.566 217.452V213.888C162.488 214.152 162.026 214.922 162.026 215.67ZM165.568 224.668C166.712 224.448 167.416 223.722 167.416 222.754C167.416 221.588 166.646 221.038 165.568 220.686V224.668ZM173.855 227L179.355 214.218V214.02H174.449V215.516H172.117V211.6H181.951V214.35L176.627 227H173.855ZM189.502 227.286C186.906 227.286 184.376 225.438 184.376 222.27V216.33C184.376 213.184 186.906 211.314 189.502 211.314C192.12 211.314 194.65 213.184 194.65 216.33V222.27C194.65 225.438 192.12 227.286 189.502 227.286ZM189.502 224.8C190.998 224.8 192.032 223.7 192.032 222.248V216.374C192.032 214.922 190.976 213.8 189.502 213.8C188.05 213.8 186.994 214.922 186.994 216.374V222.248C186.994 223.7 188.028 224.8 189.502 224.8ZM196.876 229.442L197.294 224.206H200.132L198.944 229.442H196.876ZM208.258 227.286C205.662 227.286 203.132 225.438 203.132 222.27V216.33C203.132 213.184 205.662 211.314 208.258 211.314C210.876 211.314 213.406 213.184 213.406 216.33V222.27C213.406 225.438 210.876 227.286 208.258 227.286ZM208.258 224.8C209.754 224.8 210.788 223.7 210.788 222.248V216.374C210.788 214.922 209.732 213.8 208.258 213.8C206.806 213.8 205.75 214.922 205.75 216.374V222.248C205.75 223.7 206.784 224.8 208.258 224.8ZM221.621 227.286C219.025 227.286 216.495 225.438 216.495 222.27V216.33C216.495 213.184 219.025 211.314 221.621 211.314C224.239 211.314 226.769 213.184 226.769 216.33V222.27C226.769 225.438 224.239 227.286 221.621 227.286ZM221.621 224.8C223.117 224.8 224.151 223.7 224.151 222.248V216.374C224.151 214.922 223.095 213.8 221.621 213.8C220.169 213.8 219.113 214.922 219.113 216.374V222.248C219.113 223.7 220.147 224.8 221.621 224.8ZM234.984 227.286C232.388 227.286 229.858 225.438 229.858 222.27V216.33C229.858 213.184 232.388 211.314 234.984 211.314C237.602 211.314 240.132 213.184 240.132 216.33V222.27C240.132 225.438 237.602 227.286 234.984 227.286ZM234.984 224.8C236.48 224.8 237.514 223.7 237.514 222.248V216.374C237.514 214.922 236.458 213.8 234.984 213.8C233.532 213.8 232.476 214.922 232.476 216.374V222.248C232.476 223.7 233.51 224.8 234.984 224.8Z" fill="black"/>
<path d="M183.852 245V243.236L187.056 240.14C187.44 239.756 187.644 239.408 187.644 238.94C187.644 238.304 187.2 237.788 186.42 237.788C185.688 237.788 185.196 238.328 185.196 239.096H183.84C183.84 237.8 184.716 236.444 186.444 236.444C188.088 236.444 189.084 237.632 189.084 238.88C189.084 239.804 188.64 240.392 188.1 240.92L185.28 243.572V243.68H189.144V245H183.852ZM193.62 245.156C192.204 245.156 190.824 244.148 190.824 242.42V239.18C190.824 237.464 192.204 236.444 193.62 236.444C195.048 236.444 196.428 237.464 196.428 239.18V242.42C196.428 244.148 195.048 245.156 193.62 245.156ZM193.62 243.8C194.436 243.8 195 243.2 195 242.408V239.204C195 238.412 194.424 237.8 193.62 237.8C192.828 237.8 192.252 238.412 192.252 239.204V242.408C192.252 243.2 192.816 243.8 193.62 243.8ZM199.901 240.116C198.833 240.116 198.053 239.312 198.053 238.292C198.053 237.272 198.833 236.444 199.889 236.444C200.993 236.444 201.785 237.26 201.785 238.292C201.785 239.3 200.981 240.116 199.901 240.116ZM198.401 245L204.617 236.6H206.105L199.865 245H198.401ZM199.913 239.132C200.405 239.132 200.729 238.76 200.729 238.292C200.729 237.812 200.393 237.44 199.901 237.44C199.409 237.44 199.097 237.812 199.097 238.292C199.097 238.76 199.421 239.132 199.913 239.132ZM204.557 245.156C203.489 245.156 202.697 244.364 202.697 243.332C202.697 242.312 203.477 241.484 204.545 241.484C205.637 241.484 206.429 242.312 206.429 243.332C206.429 244.352 205.625 245.156 204.557 245.156ZM204.557 244.172C205.061 244.172 205.373 243.8 205.373 243.332C205.373 242.852 205.049 242.492 204.545 242.492C204.065 242.492 203.741 242.852 203.741 243.332C203.741 243.8 204.077 244.172 204.557 244.172Z" fill="black"/>
<path d="M213.5 246V236M213.5 236L210 239.5M213.5 236L217 239.5" stroke="black" stroke-width="1.56"/>
</svg>
