<svg width="72" height="72" viewBox="0 0 72 72" fill="none" xmlns="http://www.w3.org/2000/svg">
<path d="M25.9375 11.5625H28.8125M44.625 15.875V11.5625M38.875 15.875V11.5625M24.5 37.4375V69.0625M47.5 37.4375V69.0625M44.625 37.4375C44.625 35.15 43.7163 32.9562 42.0988 31.3387C40.4813 29.7212 38.2875 28.8125 36 28.8125C33.7125 28.8125 31.5187 29.7212 29.9012 31.3387C28.2837 32.9562 27.375 35.15 27.375 37.4375M34.8471 15.875C33.8998 17.5228 32.4346 18.8115 30.6793 19.5405C28.9239 20.2696 26.9769 20.3981 25.1409 19.9063C23.3049 19.4144 21.6829 18.3297 20.5271 16.8207C19.3714 15.3118 18.7466 13.4632 18.75 11.5625C18.749 9.66296 19.3751 7.81625 20.531 6.30898C21.687 4.80172 23.3082 3.71821 25.143 3.22666C26.9778 2.73511 28.9236 2.863 30.6783 3.59049C32.4329 4.31798 33.8984 5.60436 34.8471 7.24997H48.6845C49.6821 8.66447 51.0276 9.79435 52.5945 10.5332L53.25 10.8437V12.2812L52.5916 12.5917C51.0267 13.3302 49.6797 14.4614 48.6816 15.875H34.8471ZM59 69.0625H13V68.5536L13.5807 64.6867C14.7215 57.1049 14.7215 49.3951 13.5807 41.8132L13 37.9463V37.4375H59V37.9463L58.4164 41.8132C57.2761 49.3951 57.2761 57.1049 58.4164 64.6867L59 68.5536V69.0625Z" stroke="black" stroke-width="3"/>
</svg>
