<svg width="400" height="400" viewBox="0 0 400 400" fill="none" xmlns="http://www.w3.org/2000/svg">
<rect x="132.314" y="68.8202" width="159.5" height="228.5" rx="7.25" transform="rotate(5.6493 132.314 68.8202)" fill="white" stroke="black" stroke-width="1.5"/>
<rect x="120.68" y="76.1158" width="159.5" height="228.5" rx="7.25" fill="white" stroke="black" stroke-width="1.5"/>
<path d="M151.774 226.366L149.05 217.966H150.97L152.974 224.566H153.106L155.182 217.966H157.162L154.354 226.366H151.774ZM159.709 219.202C159.109 219.202 158.665 218.758 158.665 218.182C158.665 217.618 159.109 217.174 159.709 217.174C160.297 217.174 160.741 217.618 160.741 218.182C160.741 218.758 160.297 219.202 159.709 219.202ZM158.809 226.366V221.59H157.765V220.042H160.549V226.366H158.809ZM164.782 226.366C163.51 226.366 162.802 225.79 162.802 224.41V221.59H161.758V220.042H162.922V218.314H164.554V220.042H166.234V221.59H164.554V224.398C164.554 224.674 164.662 224.794 164.95 224.794H166.162V226.366H164.782ZM170.055 226.522C168.435 226.522 167.139 225.094 167.139 223.198C167.139 221.29 168.423 219.886 170.043 219.886C170.847 219.886 171.423 220.198 171.795 220.63H171.927V220.042H173.679V224.638C173.679 224.806 173.799 224.902 173.967 224.902H174.219V226.366H172.635C172.227 226.366 171.939 226.054 171.939 225.694H171.807C171.471 226.174 170.967 226.522 170.055 226.522ZM170.439 224.842C171.351 224.842 171.951 224.098 171.951 223.21C171.951 222.166 171.255 221.578 170.427 221.578C169.587 221.578 168.915 222.214 168.915 223.21C168.915 224.206 169.599 224.842 170.439 224.842ZM175.419 226.366V220.042H177.171V220.618H177.291C177.579 220.21 178.095 219.886 178.827 219.886C180.159 219.886 181.047 220.882 181.047 222.118V226.366H179.295V222.682C179.295 222.046 178.863 221.578 178.251 221.578C177.615 221.578 177.171 222.058 177.171 222.694V226.366H175.419ZM185.032 226.366C183.76 226.366 183.052 225.79 183.052 224.41V221.59H182.008V220.042H183.172V218.314H184.804V220.042H186.484V221.59H184.804V224.398C184.804 224.674 184.912 224.794 185.2 224.794H186.412V226.366H185.032ZM190.077 222.55C188.445 222.55 187.389 221.386 187.389 219.91C187.389 218.446 188.445 217.258 190.053 217.258C191.721 217.258 192.765 218.434 192.765 219.898C192.765 221.338 191.733 222.55 190.077 222.55ZM190.077 221.782C191.253 221.782 191.937 220.99 191.937 219.898C191.937 218.806 191.241 218.038 190.053 218.038C188.913 218.038 188.217 218.83 188.217 219.91C188.217 220.966 188.913 221.782 190.077 221.782ZM189.117 221.206V218.614H190.269C190.845 218.614 191.229 219.034 191.229 219.478C191.229 219.838 191.061 220.162 190.773 220.282L191.265 221.206H190.533L190.149 220.414H189.801V221.206H189.117ZM189.801 219.826H190.173C190.389 219.826 190.509 219.694 190.509 219.526C190.509 219.346 190.377 219.214 190.173 219.214H189.801V219.826ZM196.84 226.366V224.83H197.56V219.502H196.84V217.966H200.14C202.864 217.966 204.412 219.718 204.412 222.166C204.412 224.77 202.864 226.366 200.14 226.366H196.84ZM199.324 224.758H200.14C201.676 224.758 202.564 223.774 202.564 222.166C202.564 220.63 201.688 219.586 200.14 219.586H199.324V224.758ZM208.583 226.522C206.651 226.522 205.307 225.118 205.307 223.21C205.307 221.23 206.771 219.886 208.535 219.886C210.479 219.886 211.691 221.326 211.691 223.198V223.642H207.107C207.119 224.47 207.731 224.974 208.559 224.974C209.135 224.974 209.687 224.746 209.927 224.218L211.487 224.578C211.031 225.994 209.807 226.522 208.583 226.522ZM207.119 222.478H209.927C209.843 221.842 209.279 221.338 208.535 221.338C207.719 221.338 207.203 221.914 207.119 222.478ZM212.222 226.366V224.806H213.326V218.926H212.222V217.366H215.078V224.806H216.182V226.366H212.222ZM222.449 226.366L219.725 217.966H221.645L223.649 224.566H223.781L225.857 217.966H227.837L225.029 226.366H222.449ZM230.699 226.522C229.079 226.522 227.783 225.094 227.783 223.198C227.783 221.29 229.067 219.886 230.687 219.886C231.491 219.886 232.067 220.198 232.439 220.63H232.571V220.042H234.323V224.638C234.323 224.806 234.443 224.902 234.611 224.902H234.863V226.366H233.279C232.871 226.366 232.583 226.054 232.583 225.694H232.451C232.115 226.174 231.611 226.522 230.699 226.522ZM231.083 224.842C231.995 224.842 232.595 224.098 232.595 223.21C232.595 222.166 231.899 221.578 231.071 221.578C230.231 221.578 229.559 222.214 229.559 223.21C229.559 224.206 230.243 224.842 231.083 224.842ZM235.824 226.366V224.806H236.928V218.926H235.824V217.366H238.68V224.806H239.784V226.366H235.824ZM240.687 226.366V224.806H241.791V218.926H240.687V217.366H243.543V224.806H244.647V226.366H240.687ZM248.532 226.522C246.6 226.522 245.256 225.118 245.256 223.21C245.256 221.23 246.72 219.886 248.484 219.886C250.428 219.886 251.64 221.326 251.64 223.198V223.642H247.056C247.068 224.47 247.68 224.974 248.508 224.974C249.084 224.974 249.636 224.746 249.876 224.218L251.436 224.578C250.98 225.994 249.756 226.522 248.532 226.522ZM247.068 222.478H249.876C249.792 221.842 249.228 221.338 248.484 221.338C247.668 221.338 247.152 221.914 247.068 222.478Z" fill="black"/>
<path d="M153.95 247.366V238.966H156.398L159.11 245.95H159.206V238.966H160.646V247.366H158.174L155.51 240.394H155.402V247.366H153.95ZM165.344 247.522C163.424 247.522 162.14 246.154 162.14 244.234C162.14 242.254 163.592 240.922 165.284 240.922C167.204 240.922 168.368 242.314 168.368 244.186V244.582H163.604C163.616 245.638 164.3 246.31 165.332 246.31C166.028 246.31 166.688 245.95 166.916 245.254L168.212 245.566C167.804 246.874 166.652 247.522 165.344 247.522ZM163.616 243.55H166.928C166.856 242.698 166.148 242.158 165.284 242.158C164.384 242.158 163.7 242.794 163.616 243.55ZM172.588 247.522C170.632 247.522 169.324 246.058 169.324 244.222C169.324 242.386 170.656 240.922 172.576 240.922C174.052 240.922 175.288 241.75 175.648 243.274L174.304 243.598C174.136 242.782 173.464 242.266 172.612 242.266C171.52 242.266 170.776 243.118 170.776 244.222C170.776 245.35 171.544 246.178 172.624 246.178C173.476 246.178 174.148 245.674 174.316 244.858L175.66 245.182C175.3 246.706 174.064 247.522 172.588 247.522ZM179.829 247.522C177.909 247.522 176.625 246.154 176.625 244.234C176.625 242.254 178.077 240.922 179.769 240.922C181.689 240.922 182.853 242.314 182.853 244.186V244.582H178.089C178.101 245.638 178.785 246.31 179.817 246.31C180.513 246.31 181.173 245.95 181.401 245.254L182.697 245.566C182.289 246.874 181.137 247.522 179.829 247.522ZM178.101 243.55H181.413C181.341 242.698 180.633 242.158 179.769 242.158C178.869 242.158 178.185 242.794 178.101 243.55ZM186.364 247.522C184.996 247.522 183.976 246.862 183.808 245.578L185.152 245.278C185.284 245.938 185.74 246.25 186.4 246.25C187.084 246.25 187.444 245.998 187.444 245.578C187.444 244.306 184.036 245.374 184.036 242.818C184.036 241.75 184.924 240.922 186.352 240.922C187.564 240.922 188.512 241.534 188.74 242.662L187.48 243.01C187.36 242.458 186.952 242.206 186.352 242.206C185.752 242.206 185.392 242.47 185.392 242.842C185.392 244.018 188.896 242.914 188.896 245.446C188.896 246.682 187.912 247.522 186.364 247.522ZM191.798 240.106C191.282 240.106 190.898 239.722 190.898 239.218C190.898 238.726 191.282 238.342 191.798 238.342C192.314 238.342 192.698 238.726 192.698 239.218C192.698 239.722 192.314 240.106 191.798 240.106ZM191.078 247.366V242.326H189.974V241.078H192.494V247.366H191.078ZM197.075 247.366C195.851 247.366 195.047 246.814 195.047 245.482V242.326H193.955V241.078H195.131V239.314H196.475V241.078H198.251V242.326H196.475V245.47C196.475 245.914 196.655 246.106 197.087 246.106H198.179V247.366H197.075ZM202.241 247.522C200.549 247.522 199.277 246.13 199.277 244.222C199.277 242.314 200.525 240.922 202.205 240.922C203.261 240.922 203.837 241.462 204.113 241.846H204.221V241.078H205.637V245.89C205.637 246.058 205.733 246.166 205.925 246.166H206.201V247.366H205.133C204.569 247.366 204.281 246.982 204.233 246.574H204.125C203.885 246.958 203.333 247.522 202.241 247.522ZM202.493 246.154C203.561 246.154 204.245 245.302 204.245 244.234C204.245 242.986 203.441 242.278 202.481 242.278C201.473 242.278 200.717 243.07 200.717 244.234C200.717 245.422 201.497 246.154 202.493 246.154ZM209.661 247.522C208.293 247.522 207.273 246.862 207.105 245.578L208.449 245.278C208.581 245.938 209.037 246.25 209.697 246.25C210.381 246.25 210.741 245.998 210.741 245.578C210.741 244.306 207.333 245.374 207.333 242.818C207.333 241.75 208.221 240.922 209.649 240.922C210.861 240.922 211.809 241.534 212.037 242.662L210.777 243.01C210.657 242.458 210.249 242.206 209.649 242.206C209.049 242.206 208.689 242.47 208.689 242.842C208.689 244.018 212.193 242.914 212.193 245.446C212.193 246.682 211.209 247.522 209.661 247.522ZM219.484 247.522C217.924 247.522 216.688 246.322 216.688 244.714C216.688 244.138 216.856 243.67 217.168 243.106L219.436 238.966H221.056L219.292 242.014L219.376 242.086C219.472 242.05 219.64 242.014 219.82 242.014C221.176 242.014 222.304 243.142 222.304 244.714C222.304 246.298 221.044 247.522 219.484 247.522ZM219.508 246.166C220.3 246.166 220.9 245.53 220.9 244.714C220.9 243.922 220.3 243.262 219.508 243.262C218.716 243.262 218.128 243.922 218.128 244.714C218.128 245.542 218.716 246.166 219.508 246.166ZM226.784 247.522C225.368 247.522 223.988 246.514 223.988 244.786V241.546C223.988 239.83 225.368 238.81 226.784 238.81C228.212 238.81 229.592 239.83 229.592 241.546V244.786C229.592 246.514 228.212 247.522 226.784 247.522ZM226.784 246.166C227.6 246.166 228.164 245.566 228.164 244.774V241.57C228.164 240.778 227.588 240.166 226.784 240.166C225.992 240.166 225.416 240.778 225.416 241.57V244.774C225.416 245.566 225.98 246.166 226.784 246.166ZM231.338 247.366V241.078H232.754V241.786H232.862C233.114 241.354 233.642 240.922 234.47 240.922C235.334 240.922 235.934 241.342 236.258 241.942H236.366C236.726 241.318 237.35 240.922 238.214 240.922C239.558 240.922 240.482 241.906 240.482 243.19V247.366H239.054V243.658C239.054 242.734 238.574 242.266 237.878 242.266C237.194 242.266 236.618 242.758 236.618 243.658V247.366H235.202V243.49C235.202 242.722 234.674 242.266 234.002 242.266C233.318 242.266 232.754 242.806 232.754 243.634V247.366H231.338ZM242.118 247.366V245.602L245.322 242.506C245.706 242.122 245.91 241.774 245.91 241.306C245.91 240.67 245.466 240.154 244.686 240.154C243.954 240.154 243.462 240.694 243.462 241.462H242.106C242.106 240.166 242.982 238.81 244.71 238.81C246.354 238.81 247.35 239.998 247.35 241.246C247.35 242.17 246.906 242.758 246.366 243.286L243.546 245.938V246.046H247.41V247.366H242.118Z" fill="black"/>
<rect x="133.68" y="258.116" width="134.5" height="32.5" fill="#78B5FF"/>
<rect x="133.68" y="258.116" width="134.5" height="32.5" stroke="black" stroke-width="1.5"/>
<path d="M158.778 278.534C156.258 278.534 154.47 276.65 154.47 274.166C154.47 271.706 156.27 269.81 158.778 269.81C160.674 269.81 162.21 270.926 162.774 272.75H161.226C160.818 271.79 159.87 271.202 158.778 271.202C157.122 271.202 155.982 272.474 155.982 274.166C155.982 275.882 157.122 277.142 158.778 277.142C159.846 277.142 160.818 276.578 161.226 275.594H162.774C162.222 277.442 160.674 278.534 158.778 278.534ZM166.702 278.522C165.01 278.522 163.738 277.13 163.738 275.222C163.738 273.314 164.986 271.922 166.666 271.922C167.722 271.922 168.298 272.462 168.574 272.846H168.682V272.078H170.098V276.89C170.098 277.058 170.194 277.166 170.386 277.166H170.662V278.366H169.594C169.03 278.366 168.742 277.982 168.694 277.574H168.586C168.346 277.958 167.794 278.522 166.702 278.522ZM166.954 277.154C168.022 277.154 168.706 276.302 168.706 275.234C168.706 273.986 167.902 273.278 166.942 273.278C165.934 273.278 165.178 274.07 165.178 275.234C165.178 276.422 165.958 277.154 166.954 277.154ZM171.986 278.366V272.078H173.402V272.798H173.51C173.786 272.318 174.362 271.922 175.202 271.922C176.582 271.922 177.458 272.954 177.458 274.25V278.366H176.042V274.586C176.042 273.806 175.49 273.266 174.77 273.266C173.99 273.266 173.402 273.866 173.402 274.658V278.366H171.986ZM180.706 271.202C180.19 271.202 179.806 270.818 179.806 270.314C179.806 269.822 180.19 269.438 180.706 269.438C181.222 269.438 181.606 269.822 181.606 270.314C181.606 270.818 181.222 271.202 180.706 271.202ZM178.234 281.126V279.842H179.362C179.794 279.842 179.986 279.674 179.986 279.23V273.326H178.714V272.078H181.402V279.242C181.402 280.574 180.598 281.126 179.386 281.126H178.234ZM186.125 278.522C184.205 278.522 182.921 277.154 182.921 275.234C182.921 273.254 184.373 271.922 186.065 271.922C187.985 271.922 189.149 273.314 189.149 275.186V275.582H184.385C184.397 276.638 185.081 277.31 186.113 277.31C186.809 277.31 187.469 276.95 187.697 276.254L188.993 276.566C188.585 277.874 187.433 278.522 186.125 278.522ZM184.397 274.55H187.709C187.637 273.698 186.929 273.158 186.065 273.158C185.165 273.158 184.481 273.794 184.397 274.55ZM193.069 278.522C191.377 278.522 190.105 277.13 190.105 275.222C190.105 273.314 191.353 271.922 193.033 271.922C194.089 271.922 194.665 272.462 194.941 272.846H195.049V272.078H196.465V276.89C196.465 277.058 196.561 277.166 196.753 277.166H197.029V278.366H195.961C195.397 278.366 195.109 277.982 195.061 277.574H194.953C194.713 277.958 194.161 278.522 193.069 278.522ZM193.321 277.154C194.389 277.154 195.073 276.302 195.073 275.234C195.073 273.986 194.269 273.278 193.309 273.278C192.301 273.278 191.545 274.07 191.545 275.234C191.545 276.422 192.325 277.154 193.321 277.154ZM198.353 278.366V272.078H199.757V273.002H199.853C200.093 272.474 200.705 271.922 201.509 271.922H201.977V273.338H201.353C200.321 273.338 199.769 274.07 199.769 275.258V278.366H198.353ZM206.416 278.366V272.078H207.832V272.786H207.94C208.192 272.354 208.72 271.922 209.548 271.922C210.412 271.922 211.012 272.342 211.336 272.942H211.444C211.804 272.318 212.428 271.922 213.292 271.922C214.636 271.922 215.56 272.906 215.56 274.19V278.366H214.132V274.658C214.132 273.734 213.652 273.266 212.956 273.266C212.272 273.266 211.696 273.758 211.696 274.658V278.366H210.28V274.49C210.28 273.722 209.752 273.266 209.08 273.266C208.396 273.266 207.832 273.806 207.832 274.634V278.366H206.416ZM220.028 278.522C218.108 278.522 216.824 277.154 216.824 275.234C216.824 273.254 218.276 271.922 219.968 271.922C221.888 271.922 223.052 273.314 223.052 275.186V275.582H218.288C218.3 276.638 218.984 277.31 220.016 277.31C220.712 277.31 221.372 276.95 221.6 276.254L222.896 276.566C222.488 277.874 221.336 278.522 220.028 278.522ZM218.3 274.55H221.612C221.54 273.698 220.832 273.158 219.968 273.158C219.068 273.158 218.384 273.794 218.3 274.55ZM227.067 278.366C225.843 278.366 225.039 277.814 225.039 276.482V273.326H223.947V272.078H225.123V270.314H226.467V272.078H228.243V273.326H226.467V276.47C226.467 276.914 226.647 277.106 227.079 277.106H228.171V278.366H227.067ZM229.689 278.366V272.078H231.093V273.002H231.189C231.429 272.474 232.041 271.922 232.845 271.922H233.313V273.338H232.689C231.657 273.338 231.105 274.07 231.105 275.258V278.366H229.689ZM237.269 278.522C235.337 278.522 233.957 277.106 233.957 275.222C233.957 273.35 235.349 271.922 237.281 271.922C239.213 271.922 240.593 273.35 240.593 275.222C240.593 277.094 239.201 278.522 237.269 278.522ZM237.269 277.178C238.373 277.178 239.153 276.35 239.153 275.222C239.153 274.106 238.373 273.266 237.269 273.266C236.165 273.266 235.397 274.106 235.397 275.222C235.397 276.362 236.177 277.178 237.269 277.178ZM244.106 278.522C242.738 278.522 241.718 277.862 241.55 276.578L242.894 276.278C243.026 276.938 243.482 277.25 244.142 277.25C244.826 277.25 245.186 276.998 245.186 276.578C245.186 275.306 241.778 276.374 241.778 273.818C241.778 272.75 242.666 271.922 244.094 271.922C245.306 271.922 246.254 272.534 246.482 273.662L245.222 274.01C245.102 273.458 244.694 273.206 244.094 273.206C243.494 273.206 243.134 273.47 243.134 273.842C243.134 275.018 246.638 273.914 246.638 276.446C246.638 277.682 245.654 278.522 244.106 278.522Z" fill="black"/>
<rect x="165.68" y="99.1158" width="70.5" height="86.5" rx="3.25" fill="#D5E04F" stroke="black" stroke-width="1.5"/>
<rect x="190.68" y="155.116" width="18.5" height="30.5" fill="white" stroke="black" stroke-width="1.5"/>
<rect x="210.68" y="113.116" width="11.5" height="12.5" fill="white" stroke="black" stroke-width="1.5"/>
<rect x="177.68" y="125.116" width="11.5" height="12.5" fill="white" stroke="black" stroke-width="1.5"/>
<path fill-rule="evenodd" clip-rule="evenodd" d="M251.865 284.455C252.397 284.313 252.961 284.341 253.476 284.536C253.991 284.732 254.431 285.084 254.735 285.544L273.033 313.253C273.319 313.687 273.471 314.195 273.468 314.715C273.465 315.234 273.308 315.741 273.017 316.172C272.726 316.602 272.313 316.936 271.832 317.132C271.351 317.327 270.822 317.376 270.314 317.271L262.974 315.766L266.632 329.416C266.812 330.089 266.717 330.806 266.368 331.409C266.02 332.013 265.446 332.453 264.773 332.633C264.1 332.813 263.383 332.718 262.78 332.37C262.177 332.021 261.737 331.447 261.557 330.774L257.903 317.128L252.299 322.098C251.911 322.443 251.429 322.665 250.914 322.736C250.399 322.808 249.875 322.724 249.407 322.497C248.94 322.27 248.55 321.909 248.288 321.461C248.026 321.012 247.903 320.495 247.935 319.977L249.926 286.832C249.959 286.282 250.163 285.756 250.511 285.329C250.859 284.902 251.333 284.595 251.865 284.452V284.455Z" fill="black"/>
</svg>
