<svg width="400" height="400" viewBox="0 0 400 400" fill="none" xmlns="http://www.w3.org/2000/svg">
<path d="M84.4595 97.5237C83.3935 97.3137 82.9655 98.9237 84.0335 99.1237C89.4595 100.144 94.8135 101.088 100.234 102.108C101.304 102.308 101.73 100.708 100.66 100.508C95.2395 99.4877 89.8955 98.5997 84.4595 97.5237Z" fill="black"/>
<path d="M107.704 97.0999C102.904 90.6999 98.0022 84.4099 93.2042 78.0139C92.5642 77.1599 91.1782 78.0139 91.8182 78.8659C96.6182 85.2659 101.52 91.5539 106.318 97.9499C106.958 98.6979 108.344 97.9499 107.704 97.0979V97.0999Z" fill="black"/>
<path d="M338.744 122.686C338.316 121.726 336.93 122.58 337.358 123.54C337.44 123.728 388.534 233.468 388.534 233.674C388.96 234.634 390.334 233.79 389.92 232.822C389.838 232.626 338.744 122.898 338.744 122.686Z" fill="#2755A0"/>
<path d="M229.46 122.472C229.034 121.514 227.638 122.37 228.074 123.326C229.742 126.97 274.454 223.546 275.306 225.466C275.94 225.588 276.582 225.66 277.226 225.678C276.48 224.506 229.46 122.562 229.46 122.472Z" fill="#2755A0"/>
<path d="M378.724 35.2598C379.152 34.2998 377.754 33.5498 377.338 34.4078C377.242 34.6078 282.36 226.218 282.236 226.424C282.77 226.532 283.408 226.532 283.942 226.638C284.74 225.04 378.188 35.7998 378.724 35.2598Z" fill="#2755A0"/>
<path d="M269.122 35.2598C269.548 34.2998 268.152 33.5498 267.736 34.4078C266.908 36.1118 173.58 224.426 170.182 231.222C169.436 229.622 168.182 226.622 167.43 225.022C167.11 225.66 166.896 226.3 166.576 226.94C166.676 227.14 169.542 233.466 169.542 233.572C169.612 233.693 169.713 233.795 169.835 233.865C169.957 233.935 170.095 233.972 170.235 233.972C170.376 233.972 170.514 233.935 170.635 233.865C170.757 233.795 170.858 233.693 170.928 233.572C172.746 229.706 268.874 35.5078 269.122 35.2598Z" fill="#2755A0"/>
<path d="M162.4 34.3997C161.432 36.0957 121.818 116.42 118.766 122.24C118.585 122.459 118.477 122.73 118.457 123.014C118.438 123.298 118.508 123.581 118.658 123.824C119.328 125.274 119.922 126.652 120.606 128.118C120.926 127.478 121.246 126.944 121.566 126.306C121.152 125.168 120.132 123.106 120.132 123.106C120.132 123.106 163.71 35.2597 163.784 35.2597C164.21 34.2997 162.824 33.5537 162.4 34.3997Z" fill="#2755A0"/>
<path d="M238.2 78.4399C140.356 78.4399 146.632 78.2019 146.188 78.8659C144.38 82.2779 98.7479 169.6 97.4679 171.946C97.0419 172.69 95.8679 174.182 96.1899 175.146C96.2579 175.354 142.79 278.358 142.888 278.562C142.958 278.684 143.059 278.785 143.181 278.855C143.302 278.925 143.44 278.962 143.581 278.962C143.721 278.962 143.859 278.925 143.981 278.855C144.103 278.785 144.204 278.684 144.274 278.562C144.362 278.362 189.918 175.236 190.118 175.038C195.848 163.58 238.518 79.7099 238.518 79.5079C239.162 79.0799 238.842 78.4399 238.2 78.4399Z" fill="#D5E04F"/>
<path d="M187.134 175.568C187.239 175.568 187.343 175.547 187.44 175.507C187.537 175.467 187.626 175.408 187.7 175.333C187.774 175.259 187.833 175.171 187.873 175.074C187.914 174.977 187.934 174.873 187.934 174.768C187.934 174.663 187.914 174.559 187.873 174.462C187.833 174.365 187.774 174.276 187.7 174.202C187.626 174.128 187.537 174.069 187.44 174.029C187.343 173.988 187.239 173.968 187.134 173.968H99.7082C99.496 173.968 99.2925 174.052 99.1425 174.202C98.9925 174.352 98.9082 174.556 98.9082 174.768C98.9082 174.98 98.9925 175.183 99.1425 175.333C99.2925 175.483 99.496 175.568 99.7082 175.568H187.134Z" fill="#77751E"/>
<path d="M177 69.6C175.257 72.5062 173.59 75.4572 172 78.45H185.22C185.86 77.278 186.496 75.996 187.032 74.824C190.82 66.534 182.6 60.346 177 69.6Z" fill="#2755A0"/>
<path d="M205.366 69.5997C203.618 72.5054 201.947 75.4564 200.354 78.4497H213.574C214.214 77.2777 214.85 75.9957 215.388 74.8237C219.378 66.1037 210.8 60.6197 205.366 69.5997Z" fill="#2755A0"/>
<path d="M188.626 49.9736C187.775 50.9915 187.364 52.3055 187.483 53.6265C187.601 54.9475 188.24 56.1673 189.258 57.0176C190.276 57.8679 191.59 58.279 192.911 58.1605C194.232 58.0419 195.451 57.4035 196.302 56.3856C197.152 55.3677 197.563 54.0537 197.445 52.7327C197.326 51.4117 196.688 50.1919 195.67 49.3416C194.652 48.4913 193.338 48.0802 192.017 48.1987C190.696 48.3173 189.476 48.9557 188.626 49.9736ZM195.876 53.1736C195.876 53.8484 195.676 54.5081 195.301 55.0692C194.926 55.6303 194.393 56.0676 193.769 56.3259C193.146 56.5841 192.46 56.6517 191.798 56.52C191.136 56.3884 190.528 56.0634 190.051 55.5862C189.574 55.1091 189.249 54.5011 189.117 53.8392C188.986 53.1774 189.053 52.4913 189.311 51.8679C189.57 51.2444 190.007 50.7115 190.568 50.3366C191.129 49.9617 191.789 49.7616 192.464 49.7616C193.366 49.7679 194.23 50.1291 194.869 50.7672C195.507 51.4053 195.869 52.269 195.876 53.1716V53.1736Z" fill="#2755A0"/>
<path d="M217.092 49.9739C216.411 50.7898 216.007 51.8015 215.94 52.8623C215.872 53.9231 216.145 54.9778 216.718 55.8732C217.29 56.7686 218.134 57.4582 219.125 57.8419C220.116 58.2256 221.204 58.2834 222.23 58.0069C223.257 57.7304 224.168 57.1341 224.833 56.3044C225.497 55.4747 225.88 54.4548 225.925 53.3929C225.971 52.3309 225.676 51.2821 225.085 50.3986C224.494 49.5152 223.637 48.8431 222.638 48.4799C221.671 48.1378 220.623 48.0974 219.633 48.3642C218.642 48.631 217.756 49.1923 217.092 49.9739ZM224.342 53.1739C224.343 53.8489 224.143 54.5088 223.768 55.07C223.393 55.6312 222.86 56.0683 222.236 56.3259C221.769 56.521 221.265 56.6098 220.76 56.5862C220.255 56.5625 219.761 56.4269 219.315 56.1891C218.868 55.9513 218.48 55.6173 218.179 55.2113C217.877 54.8052 217.67 54.3372 217.571 53.8411C217.473 53.3451 217.486 52.8333 217.609 52.3428C217.732 51.8523 217.963 51.3954 218.285 51.005C218.606 50.6147 219.011 50.3006 219.469 50.0857C219.926 49.8707 220.426 49.7601 220.932 49.7619C221.823 49.8042 222.666 50.1771 223.296 50.8076C223.927 51.4382 224.3 52.2812 224.342 53.1719V53.1739Z" fill="#2755A0"/>
<path d="M98.5342 204.888C98.0002 196.488 97.1483 185.768 92.5643 178.766C86.5163 169.528 75.1643 166.302 64.2043 168.212C62.201 168.646 60.2391 169.252 58.3403 170.024C49.1603 173.624 41.8603 181.272 36.4843 189.642C34.1809 193.364 32.0805 197.207 30.1923 201.156C28.2323 205.08 16.0123 230.796 15.5923 231.862C15.3803 232.182 15.4863 232.822 15.9123 232.928C21.6403 235.418 37.7703 238.084 42.9943 239.006C42.9943 238.472 43.1003 237.94 43.1003 237.406C44.1024 226.031 45.8832 214.737 48.4303 203.606H88.2002C89.3048 212.383 89.3411 221.262 88.3083 230.048C92.4303 224.55 98.3983 217.718 98.9703 217.146C98.9525 213.056 98.8071 208.968 98.5342 204.888Z" fill="#2755A0"/>
<path d="M86.3802 187.722C85.2402 188.008 86.1042 188.582 87.3402 200.624C87.4502 201.69 89.0482 201.69 88.9402 200.624C88.5182 196.464 87.9802 192.414 87.4462 188.256C87.3676 188.05 87.2145 187.88 87.0171 187.781C86.8197 187.683 86.5925 187.661 86.3802 187.722Z" fill="#2755A0"/>
<path d="M51.8356 187.082C50.8356 191.362 49.2356 195.388 48.3176 199.664C48.0916 200.728 49.7036 201.156 49.9176 200.09C50.7696 195.826 52.4356 191.69 53.4356 187.51C53.6636 186.554 52.0616 186.126 51.8356 187.082Z" fill="#2755A0"/>
<path d="M29.7663 239.326C22.785 275.998 17.6963 313.005 14.5203 350.2C14.4183 351.266 16.0223 351.266 16.1203 350.2C19.1344 313.166 24.1887 276.327 31.2603 239.85C31.5783 238.686 29.9763 238.258 29.7663 239.326Z" fill="#2755A0"/>
<path d="M87.3402 286.984C87.3162 285.918 85.6342 285.918 85.7402 286.984C86.5865 308.235 88.6868 329.417 92.0302 350.42C92.2302 351.49 93.7362 351.06 93.6302 349.994C90.2843 329.134 88.184 308.094 87.3402 286.984Z" fill="#2755A0"/>
<path d="M98.7482 281.546C98.6502 280.478 97.0462 280.48 97.1482 281.546C99.8002 308.858 105.602 336.07 110.148 350.208C110.22 350.402 110.362 350.562 110.546 350.657C110.73 350.752 110.943 350.774 111.142 350.72C111.342 350.666 111.515 350.541 111.627 350.367C111.739 350.193 111.782 349.984 111.748 349.78C105.187 327.517 100.833 304.662 98.7482 281.546Z" fill="#2755A0"/>
<path d="M94.2695 301.696V311.296C94.2695 311.508 94.3538 311.712 94.5039 311.862C94.6539 312.012 94.8574 312.096 95.0695 312.096C95.2817 312.096 95.4852 312.012 95.6352 311.862C95.7853 311.712 95.8695 311.508 95.8695 311.296V301.696C95.8695 301.484 95.7853 301.28 95.6352 301.13C95.4852 300.98 95.2817 300.896 95.0695 300.896C94.8574 300.896 94.6539 300.98 94.5039 301.13C94.3538 301.28 94.2695 301.484 94.2695 301.696Z" fill="#2755A0"/>
<path d="M79.4502 301.696V311.296C79.4502 311.508 79.5345 311.712 79.6845 311.862C79.8345 312.012 80.038 312.096 80.2502 312.096C80.4624 312.096 80.6659 312.012 80.8159 311.862C80.9659 311.712 81.0502 311.508 81.0502 311.296V301.696C81.0502 301.484 80.9659 301.28 80.8159 301.13C80.6659 300.98 80.4624 300.896 80.2502 300.896C80.038 300.896 79.8345 300.98 79.6845 301.13C79.5345 301.28 79.4502 301.484 79.4502 301.696Z" fill="#2755A0"/>
<path d="M128.28 241.778C128.92 240.604 129.454 239.538 129.986 238.366C136.278 239.326 143.218 240.09 148.858 236.98C149.848 236.538 150.671 235.791 151.204 234.848C151.572 233.898 151.604 232.851 151.293 231.881C150.983 230.91 150.349 230.076 149.498 229.516C147.797 228.43 145.858 227.772 143.846 227.598C138.308 226.71 132.866 225.784 127.322 224.932C133.989 224.497 140.577 223.243 146.938 221.2C149.5 220.464 152.35 219.274 153.016 216.722C153.217 215.526 153.024 214.298 152.466 213.221C151.908 212.145 151.017 211.278 149.924 210.752C147.675 209.782 145.222 209.38 142.78 209.58C136.373 209.516 129.977 210.124 123.696 211.392C127.214 207.766 130.638 204.046 134.144 200.41C136.606 197.86 139.122 194.35 137.556 191.134C136.979 190.185 136.136 189.426 135.132 188.952C134.127 188.478 133.006 188.31 131.906 188.468C129.707 188.83 127.624 189.707 125.828 191.028C120.945 194.159 116.5 197.926 112.608 202.228C112.182 202.762 111.648 203.188 111.222 203.722C110.796 204.148 110.47 204.568 110.05 205C102.36 212.816 95.1311 221.073 88.4004 229.73C89.3804 220.942 89.3464 212.068 88.2944 203.288H48.4244C45.5664 215.964 42.7744 232.688 42.7744 245.828C42.7744 263.628 50.3464 278.652 69.4284 281.652C100.458 286.532 117.106 263.652 127.428 243.59C127.756 242.954 128.068 242.31 128.28 241.778Z" fill="#FC9070"/>
<path d="M118.8 215.976C119.558 215.242 118.358 214.148 117.628 214.804C115.886 216.364 114.082 217.974 112.402 219.604C111.644 220.338 112.844 221.432 113.576 220.776C115.308 219.214 117.112 217.6 118.8 215.976Z" fill="#FF4848"/>
<path d="M122.63 228.77C123.364 228.012 122.204 226.852 121.458 227.598C119.858 229.198 118.232 230.876 116.552 232.502C115.792 233.236 116.968 234.408 117.726 233.674C119.386 232.064 121.02 230.429 122.63 228.77Z" fill="#FF4848"/>
<path d="M80.3041 276.108H70.9201C70.7079 276.108 70.5045 276.192 70.3544 276.342C70.2044 276.492 70.1201 276.696 70.1201 276.908C70.1201 277.12 70.2044 277.324 70.3544 277.474C70.5045 277.624 70.7079 277.708 70.9201 277.708H80.3041C80.5163 277.708 80.7198 277.624 80.8698 277.474C81.0198 277.324 81.1041 277.12 81.1041 276.908C81.1041 276.696 81.0198 276.492 80.8698 276.342C80.7198 276.192 80.5163 276.108 80.3041 276.108Z" fill="#FF4848"/>
<path d="M62.178 156.91C62.1378 156.771 62.061 156.645 61.9557 156.545C61.8504 156.445 61.7204 156.375 61.579 156.343C61.4377 156.31 61.2902 156.316 61.1519 156.359C61.0135 156.403 60.8892 156.482 60.792 156.59C58.1538 159.465 54.8605 161.661 51.192 162.99C47.62 164.12 43.592 164.28 41.278 167.04C40.2905 168.242 39.4654 169.569 38.824 170.986C37.55 173.186 33.292 172.456 29.762 172.692C19.726 173.364 14.684 180.838 15.796 186.658C16.1947 187.824 16.3751 189.053 16.328 190.284C15.99 193.508 11.728 194.776 10.464 201.052C10.0032 202.887 10.0165 204.809 10.5025 206.638C10.9885 208.467 11.9313 210.142 13.2424 211.506C14.5535 212.871 16.1899 213.879 17.9978 214.438C19.8057 214.996 21.7259 215.085 23.578 214.698C31.578 198.714 39.882 176.116 60.536 169.232C62.0596 165.315 62.6226 161.09 62.178 156.91Z" fill="black"/>
<path d="M75.8256 147.2C76.0376 147.52 76.1436 148.052 75.8256 148.266C72.3409 151.108 68.5902 153.608 64.6256 155.73C64.4516 155.827 64.2485 155.859 64.053 155.82C63.8576 155.78 63.6825 155.673 63.5596 155.516C64.3172 157.033 65.5504 158.261 67.071 159.012C68.5916 159.763 70.3161 159.996 71.9816 159.676C73.2858 159.402 74.493 158.785 75.4778 157.887C76.4625 156.989 77.1888 155.844 77.5812 154.571C77.9736 153.297 78.0177 151.942 77.7089 150.646C77.4002 149.349 76.7499 148.16 75.8256 147.2Z" fill="#FC9070"/>
<path d="M75.8263 147.2C74.6112 145.859 72.9539 145 71.1575 144.781C69.3612 144.562 67.546 144.997 66.0443 146.007C64.5425 147.017 63.4546 148.533 62.9797 150.28C62.5048 152.026 62.6747 153.885 63.4583 155.516C63.5097 155.605 63.5795 155.682 63.663 155.742C63.7466 155.802 63.842 155.844 63.9429 155.864C64.0437 155.884 64.1478 155.883 64.248 155.86C64.3483 155.837 64.4424 155.792 64.5243 155.73C68.4715 153.579 72.2196 151.081 75.7243 148.266C75.8145 148.213 75.891 148.14 75.9473 148.052C76.0036 147.963 76.0382 147.863 76.0481 147.759C76.0581 147.655 76.0432 147.55 76.0046 147.453C75.966 147.356 75.9049 147.269 75.8263 147.2Z" fill="black"/>
<path d="M339.6 35.6858C331.254 17.8638 316.018 14.1058 304.778 35.9718C300.088 45.0958 290.16 65.3718 265.822 114.05C261.796 120.561 259.114 127.811 257.932 135.374C255.206 150.442 256.584 169.45 263.902 183.032C272.646 199.26 287.26 201.738 298.872 177.808C301.944 171.478 338.232 99.3138 340.026 95.4978C340.022 95.2978 353.462 65.2958 339.6 35.6858Z" fill="#78B5FF"/>
<path d="M286.074 153.818C285.674 153.164 281.452 146.104 281.074 145.716C280.918 145.562 280.707 145.475 280.487 145.475C280.268 145.475 280.057 145.562 279.9 145.716C279.7 145.916 280.258 145.14 274.356 153.818C274.29 153.943 274.257 154.083 274.262 154.224C274.267 154.366 274.31 154.503 274.386 154.623C274.462 154.742 274.568 154.84 274.694 154.904C274.82 154.969 274.961 154.999 275.102 154.992H285.338C285.479 154.996 285.617 154.964 285.741 154.898C285.865 154.832 285.969 154.735 286.044 154.616C286.118 154.497 286.16 154.361 286.166 154.221C286.171 154.081 286.14 153.942 286.074 153.818Z" fill="#2755A0"/>
<path d="M295.35 116.502C290.262 108.218 282.778 103.302 274.026 107.442C273.076 107.888 273.93 109.274 274.88 108.826C282.46 105.248 289.006 109.676 293.538 116.608C302.038 129.608 303.672 150.76 300.788 165.652C300.588 166.72 302.188 167.148 302.388 166.08C306.156 146.164 302.2 127.646 295.35 116.502Z" fill="#2755A0"/>
<path d="M204.618 321.528C205.76 338.064 205.638 338.528 206.218 342.21C206.67 345.086 208.67 352.766 213.148 350.528C215.732 349.236 216.7 344.016 216.986 341.144C216.932 341.078 205.326 322.588 204.618 321.528Z" fill="#2755A0"/>
<path d="M282.982 330.6C272.416 343.068 273.182 341.716 273.182 342.328C273.608 345.206 275.634 352.882 280.112 350.644C281.292 349.912 282.164 348.774 282.564 347.444C284.268 342.982 284.59 333.494 284.59 328.786C284.048 329.31 283.52 329.954 282.982 330.6Z" fill="#2755A0"/>
<path d="M295.456 228.876C295.456 228.45 295.136 228.13 294.604 228.024C294.382 227.996 192.316 214.696 191.078 214.696C190.652 214.59 190.226 215.124 190.226 215.55V299.03C191.852 301.742 239.47 378.03 240.016 378.568C240.082 378.671 240.169 378.758 240.271 378.825C240.373 378.892 240.489 378.937 240.61 378.956C240.73 378.975 240.853 378.97 240.971 378.939C241.089 378.909 241.2 378.855 241.296 378.78C241.584 378.478 294.724 316.882 295.244 316.622C295.578 316.088 295.456 322.152 295.456 228.876Z" fill="#FFD2D2"/>
<path d="M290.658 232.6C288.918 234.704 240.934 294.906 240.934 294.906C227.122 272.576 195.014 219.706 194.81 219.706C194.689 219.54 194.51 219.426 194.309 219.386C194.108 219.346 193.899 219.384 193.724 219.491C193.549 219.599 193.421 219.768 193.365 219.966C193.31 220.164 193.331 220.375 193.424 220.558C194.956 223.158 238.204 293.592 240.122 296.576V373.342C240.122 373.554 240.207 373.758 240.357 373.908C240.507 374.058 240.71 374.142 240.922 374.142C241.134 374.142 241.338 374.058 241.488 373.908C241.638 373.758 241.722 373.554 241.722 373.342V296.578C241.88 296.378 291.63 233.978 291.832 233.778C292.472 232.928 291.286 231.852 290.658 232.6Z" fill="#FF4848"/>
<path d="M364.864 329C364.664 328.976 317.874 323.562 317.314 323.562C316.246 323.456 316.248 325.038 317.314 325.162C317.514 325.186 364.304 330.6 364.864 330.6C365.93 330.696 365.928 329.114 364.864 329Z" fill="black"/>
<path d="M320.832 317.262C323.832 316.228 346.1 308.52 347.166 308.094C348.126 307.774 347.696 306.164 346.74 306.494C343.74 307.528 321.472 315.236 320.406 315.664C319.446 315.984 319.876 317.6 320.832 317.262Z" fill="black"/>
<path d="M318.6 329C317.854 328.254 316.672 329.436 317.428 330.174C319.64 332.332 336.828 348.298 337.578 349.044C338.328 349.79 339.506 348.608 338.752 347.872C337.034 346.2 319.282 329.68 318.6 329Z" fill="black"/>
<path d="M84.4614 97.5237C83.3934 97.3137 82.9654 98.9237 84.0334 99.1237C89.4594 100.144 94.8134 101.088 100.233 102.108C101.303 102.308 101.729 100.708 100.659 100.508C95.2394 99.4877 89.8954 98.5997 84.4614 97.5237Z" fill="black"/>
<path d="M107.704 97.0975C102.904 90.6975 98.0022 84.4095 93.2042 78.0135C92.5642 77.1595 91.1782 78.0135 91.8182 78.8655C96.6182 85.2655 101.52 91.5535 106.318 97.9495C106.958 98.6975 108.344 97.9495 107.704 97.0975Z" fill="black"/>
<path d="M338.743 122.686C338.315 121.726 336.929 122.58 337.357 123.54C337.439 123.728 388.533 233.468 388.533 233.674C388.959 234.634 390.333 233.79 389.919 232.822C389.837 232.626 338.743 122.898 338.743 122.686Z" fill="black"/>
<path d="M377.337 34.3998C375.783 37.7058 282.261 226.258 282.137 226.526C280.522 226.232 278.898 225.989 277.267 225.796C276.565 224.542 229.467 122.67 229.467 122.466C229.041 121.506 227.655 122.36 228.081 123.32C243.88 157.395 259.66 191.478 275.423 225.57C274.423 225.534 192.183 214.798 191.083 214.798C190.659 214.69 190.233 215.224 190.233 215.65V299.132C190.381 299.38 204.411 321.88 204.801 322.504C205.801 336.808 205.639 338.044 206.331 342.204C206.759 345.084 208.783 352.76 213.261 350.522C215.679 349.312 216.661 344.664 217.003 341.988C236.519 373.312 239.769 378.414 240.023 378.668C240.089 378.77 240.176 378.858 240.278 378.925C240.38 378.992 240.495 379.036 240.615 379.056C240.736 379.076 240.859 379.071 240.978 379.041C241.096 379.011 241.207 378.957 241.303 378.882C241.503 378.662 273.089 342.166 273.287 341.934V342.204C273.713 345.084 275.739 352.76 280.217 350.522C281.403 349.796 282.277 348.656 282.669 347.322C284.443 342.888 284.693 333.156 284.695 328.75C286.815 326.35 294.895 316.904 295.251 316.724C295.769 315.998 295.571 320.972 295.571 229.084C295.571 228.658 295.251 228.338 294.717 228.232C294.517 228.206 284.237 226.938 283.835 226.738C380.745 31.0538 378.531 35.4558 378.731 35.2538C379.151 34.2998 377.765 33.5538 377.337 34.3998ZM214.427 345.73C212.781 351.718 209.729 349.68 208.137 343.704C207.372 339.697 206.979 335.629 206.963 331.55C206.629 324.182 206.285 325.1 206.963 326.006C209.735 330.376 215.483 339.572 215.591 339.744C215.333 341.762 214.944 343.762 214.427 345.73ZM281.489 345.73C280.465 349.82 278.845 349.908 277.011 348.074C275.614 345.72 274.81 343.062 274.669 340.328C277.817 336.672 280.895 333.102 282.981 330.706C283.019 335.753 282.519 340.789 281.489 345.73ZM293.857 229.624V315.664C293.677 315.864 241.145 376.336 240.975 376.542C238.975 373.174 193.609 300.684 192.035 298.284V216.296C192.239 216.322 293.655 229.6 293.857 229.624Z" fill="black"/>
<path d="M290.657 232.6C288.917 234.704 240.933 294.906 240.933 294.906C227.121 272.576 195.013 219.706 194.809 219.706C194.688 219.54 194.509 219.426 194.308 219.386C194.107 219.346 193.898 219.384 193.723 219.491C193.548 219.599 193.42 219.768 193.364 219.966C193.309 220.164 193.33 220.375 193.423 220.558C194.955 223.158 238.203 293.592 240.121 296.576V373.342C240.121 373.554 240.206 373.758 240.356 373.908C240.506 374.058 240.709 374.142 240.921 374.142C241.133 374.142 241.337 374.058 241.487 373.908C241.637 373.758 241.721 373.554 241.721 373.342V296.578C241.879 296.378 291.629 233.978 291.831 233.778C292.471 232.928 291.285 231.852 290.657 232.6Z" fill="black"/>
<path d="M187.134 175.568C187.346 175.568 187.55 175.483 187.7 175.333C187.85 175.183 187.934 174.98 187.934 174.768C187.934 174.556 187.85 174.352 187.7 174.202C187.55 174.052 187.346 173.968 187.134 173.968H99.7082C99.6031 173.968 99.4991 173.988 99.4021 174.029C99.305 174.069 99.2168 174.128 99.1425 174.202C99.0682 174.276 99.0093 174.365 98.9691 174.462C98.9289 174.559 98.9082 174.663 98.9082 174.768C98.9082 174.873 98.9289 174.977 98.9691 175.074C99.0093 175.171 99.0682 175.259 99.1425 175.333C99.2168 175.408 99.305 175.467 99.4021 175.507C99.4991 175.547 99.6031 175.568 99.7082 175.568H187.134Z" fill="black"/>
<path d="M267.736 34.3997C267.642 34.5997 171.11 229.358 170.182 231.216L167.782 226.08C170.288 220.626 188.626 179.508 190.438 175.242C190.438 175.096 238.95 79.5557 238.95 79.4997C239 79.4064 239.031 79.3041 239.04 79.1988C239.05 79.0935 239.039 78.9873 239.007 78.8864C238.976 78.7855 238.924 78.6919 238.856 78.6111C238.788 78.5302 238.704 78.4638 238.61 78.4157C238.485 78.351 238.345 78.3206 238.204 78.3277H213.526C215.178 75.2797 216.504 72.6777 216.346 70.3277C216.078 67.1157 214.746 65.1277 211.346 64.8897C208.466 64.9957 206.654 67.2357 205.268 69.4737C203.534 72.3871 201.864 75.3378 200.258 78.3237H185.214C186.516 75.7237 188.278 73.1237 188.094 70.3237C187.826 67.1117 186.494 65.1237 183.082 64.8857C180.2 64.9997 178.4 67.2457 177 69.4837C175.271 72.3981 173.604 75.3487 172 78.3337H146.938C146.786 78.3262 146.635 78.3623 146.503 78.4378C146.371 78.5133 146.263 78.625 146.192 78.7597C137.927 94.4833 129.673 110.213 121.43 125.948C121.082 124.965 120.648 124.014 120.132 123.108C120.144 123.078 163.75 35.2597 163.784 35.2597C164.21 34.2997 162.824 33.5537 162.398 34.4057C162.272 34.6277 119.238 121.304 118.822 122.18C118.624 122.476 118.519 122.824 118.519 123.18C118.519 123.536 118.624 123.884 118.822 124.18C119.38 125.398 119.894 126.58 120.462 127.804C117.4 133.662 98.7479 169.492 97.4679 171.836C97.0419 172.582 95.8679 174.076 96.1899 175.036C96.5219 176.036 96.7659 176.392 109.68 205.09C110.108 204.664 110.428 204.238 110.854 203.812C108.508 198.48 98.4279 175.782 97.7879 174.612C99.3359 171.612 147.216 80.1117 147.258 79.9357H236.6C236.5 80.1357 188.728 173.946 188.728 174.292C188.64 174.492 143.624 276.016 143.528 276.218C142.262 273.372 128.388 242.726 128.388 242.634C128.068 243.274 127.748 243.808 127.428 244.446C130.414 250.95 142.78 278.352 142.888 278.564C142.958 278.685 143.059 278.787 143.181 278.857C143.302 278.927 143.44 278.964 143.581 278.964C143.721 278.964 143.859 278.927 143.981 278.857C144.103 278.787 144.204 278.685 144.274 278.564C145.766 275.152 163.994 234.336 166.92 227.964C168.12 230.46 168.628 231.856 169.436 233.352C169.436 233.46 169.542 233.46 169.542 233.566C169.612 233.687 169.713 233.788 169.835 233.859C169.956 233.929 170.094 233.966 170.235 233.966C170.375 233.966 170.513 233.929 170.635 233.859C170.757 233.788 170.858 233.687 170.928 233.566C171.022 233.366 268.94 35.4417 269.128 35.2577C269.548 34.2997 268.162 33.5537 267.736 34.3997ZM173.866 78.3337C175.209 75.9393 176.575 73.5579 177.964 71.1897C179.03 69.2697 180.522 66.6577 182.976 66.6057C185.542 66.5497 186.388 68.4057 186.388 70.9757C186.388 72.7217 185.264 74.6097 183.402 78.3337H173.866ZM202.284 78.3337C203.636 75.8577 205.084 73.5737 206.324 71.1897C207.39 69.2697 208.882 66.6577 211.336 66.6057C213.898 66.5497 214.748 68.4057 214.748 70.9757C214.748 72.7217 213.624 74.6097 211.762 78.3337H202.284Z" fill="black"/>
<path d="M188.626 49.9734C188.194 50.4758 187.866 51.0592 187.661 51.6895C187.456 52.3198 187.378 52.9846 187.433 53.6452C187.487 54.3057 187.672 54.9489 187.978 55.5373C188.283 56.1256 188.702 56.6474 189.211 57.0723C189.719 57.4972 190.307 57.8167 190.941 58.0123C191.574 58.2078 192.24 58.2755 192.9 58.2114C193.559 58.1473 194.2 57.9527 194.783 57.6389C195.367 57.3251 195.883 56.8983 196.3 56.3834C197.127 55.3632 197.52 54.0585 197.393 52.7513C197.266 51.4441 196.629 50.2394 195.621 49.3975C194.613 48.5555 193.315 48.144 192.006 48.2517C190.697 48.3595 189.483 48.978 188.626 49.9734ZM195.876 53.1734C195.876 53.8483 195.676 54.508 195.301 55.0691C194.926 55.6302 194.393 56.0675 193.77 56.3257C193.146 56.584 192.46 56.6515 191.799 56.5199C191.137 56.3882 190.529 56.0633 190.052 55.5861C189.574 55.1089 189.249 54.501 189.118 53.8391C188.986 53.1772 189.054 52.4912 189.312 51.8677C189.57 51.2443 190.007 50.7114 190.569 50.3365C191.13 49.9616 191.789 49.7614 192.464 49.7614C193.367 49.7677 194.231 50.1289 194.869 50.767C195.508 51.4051 195.869 52.2688 195.876 53.1714V53.1734Z" fill="black"/>
<path d="M217.092 49.9734C216.411 50.7893 216.007 51.801 215.94 52.8618C215.872 53.9226 216.145 54.9773 216.718 55.8727C217.29 56.7682 218.134 57.4578 219.125 57.8414C220.116 58.2251 221.204 58.2829 222.23 58.0064C223.257 57.73 224.168 57.1336 224.833 56.3039C225.497 55.4742 225.88 54.4543 225.925 53.3924C225.971 52.3304 225.676 51.2816 225.085 50.3982C224.494 49.5147 223.637 48.8426 222.638 48.4794C221.671 48.1373 220.623 48.0969 219.633 48.3637C218.642 48.6305 217.756 49.1919 217.092 49.9734ZM224.342 53.1734C224.343 53.8484 224.143 54.5083 223.768 55.0695C223.393 55.6307 222.86 56.0678 222.236 56.3254C221.769 56.5205 221.265 56.6093 220.76 56.5857C220.255 56.562 219.761 56.4264 219.315 56.1886C218.868 55.9508 218.48 55.6169 218.179 55.2108C217.877 54.8047 217.67 54.3367 217.571 53.8407C217.473 53.3446 217.486 52.8328 217.609 52.3423C217.732 51.8518 217.963 51.3949 218.285 51.0045C218.606 50.6142 219.011 50.3002 219.469 50.0852C219.926 49.8702 220.426 49.7596 220.932 49.7614C221.823 49.8033 222.666 50.176 223.297 50.8066C223.928 51.4373 224.3 52.2805 224.342 53.1714V53.1734Z" fill="black"/>
<path d="M86.3802 187.72C85.2402 188.008 86.1042 188.58 87.3402 200.624C87.4502 201.69 89.0482 201.69 88.9402 200.624C88.5182 196.464 87.9802 192.414 87.4462 188.256C87.368 188.049 87.2149 187.88 87.0174 187.781C86.8199 187.682 86.5925 187.661 86.3802 187.722V187.72Z" fill="black"/>
<path d="M51.8356 187.082C50.8356 191.362 49.2356 195.388 48.3176 199.664C48.0916 200.728 49.7036 201.156 49.9176 200.09C50.7696 195.826 52.4356 191.69 53.4356 187.51C53.6636 186.554 52.0616 186.126 51.8356 187.082Z" fill="black"/>
<path d="M29.7653 239.326C22.7841 275.997 17.6953 313.004 14.5193 350.2C14.4173 351.266 16.0213 351.266 16.1193 350.2C19.1333 313.166 24.1876 276.327 31.2593 239.85C31.5773 238.686 29.9753 238.258 29.7653 239.326Z" fill="black"/>
<path d="M87.3402 286.984C87.3162 285.918 85.6342 285.918 85.7402 286.984C86.5865 308.234 88.6868 329.416 92.0302 350.42C92.2302 351.49 93.7362 351.06 93.6302 349.994C90.2843 329.134 88.184 308.093 87.3402 286.984Z" fill="black"/>
<path d="M98.7482 281.545C98.6502 280.477 97.0462 280.479 97.1482 281.545C99.8002 308.857 105.602 336.069 110.148 350.207C110.22 350.402 110.362 350.562 110.546 350.656C110.73 350.751 110.943 350.774 111.142 350.719C111.342 350.666 111.514 350.54 111.626 350.366C111.738 350.192 111.782 349.983 111.748 349.779C105.187 327.516 100.833 304.661 98.7482 281.545Z" fill="black"/>
<path d="M94.2695 301.696V311.296C94.2695 311.508 94.3538 311.711 94.5039 311.861C94.6539 312.011 94.8574 312.096 95.0695 312.096C95.2817 312.096 95.4852 312.011 95.6352 311.861C95.7853 311.711 95.8695 311.508 95.8695 311.296V301.696C95.8695 301.483 95.7853 301.28 95.6352 301.13C95.4852 300.98 95.2817 300.896 95.0695 300.896C94.8574 300.896 94.6539 300.98 94.5039 301.13C94.3538 301.28 94.2695 301.483 94.2695 301.696Z" fill="black"/>
<path d="M79.4502 301.696V311.296C79.4502 311.508 79.5345 311.711 79.6845 311.861C79.8345 312.011 80.038 312.096 80.2502 312.096C80.4624 312.096 80.6659 312.011 80.8159 311.861C80.9659 311.711 81.0502 311.508 81.0502 311.296V301.696C81.0502 301.483 80.9659 301.28 80.8159 301.13C80.6659 300.98 80.4624 300.896 80.2502 300.896C80.038 300.896 79.8345 300.98 79.6845 301.13C79.5345 301.28 79.4502 301.483 79.4502 301.696Z" fill="black"/>
<path d="M117.726 214.909C116.046 216.535 114.182 218.081 112.502 219.709C111.744 220.443 112.942 221.537 113.674 220.881C115.416 219.321 117.218 217.711 118.898 216.081C119.656 215.347 118.484 214.175 117.726 214.909Z" fill="black"/>
<path d="M121.458 227.599C119.858 229.199 118.232 230.877 116.552 232.503C115.794 233.237 116.98 234.421 117.726 233.675C119.326 232.075 120.95 230.397 122.63 228.771C123.388 228.035 122.2 226.851 121.458 227.599Z" fill="black"/>
<path d="M80.3041 276.107H70.9201C70.7079 276.107 70.5045 276.192 70.3544 276.342C70.2044 276.492 70.1201 276.695 70.1201 276.907C70.1201 277.12 70.2044 277.323 70.3544 277.473C70.5045 277.623 70.7079 277.707 70.9201 277.707H80.3041C80.5163 277.707 80.7198 277.623 80.8698 277.473C81.0198 277.323 81.1041 277.12 81.1041 276.907C81.1041 276.695 81.0198 276.492 80.8698 276.342C80.7198 276.192 80.5163 276.107 80.3041 276.107Z" fill="black"/>
<path d="M150.458 210.112C147.376 208.41 143.458 208.754 137.344 209.046C133.592 209.226 129.852 209.618 126.144 210.218C135.416 200.418 136.558 199.632 137.98 196.892C141.156 191.068 136.08 186.292 129.98 188.15C125.626 189.44 118.968 194.894 115.694 198.064C113.268 200.414 102.234 212.076 98.8938 215.948C98.5078 203.294 98.0498 186.966 92.4418 178.548C85.8418 168.288 71.8778 165.228 60.1598 169.086C61.7785 165.166 62.393 160.904 61.9478 156.686C61.9075 156.547 61.8308 156.42 61.7255 156.321C61.6202 156.221 61.4901 156.151 61.3488 156.119C61.2075 156.086 61.06 156.092 60.9216 156.135C60.7833 156.179 60.659 156.258 60.5618 156.366C52.7618 164.166 48.7818 162.666 43.8238 164.79C42.1242 165.592 40.7104 166.894 39.7718 168.522C38.3858 170.948 38.6958 172.058 34.7718 172.36C33.0658 172.466 31.3598 172.36 29.5478 172.466C27.3862 172.54 25.262 173.05 23.3028 173.967C21.3437 174.883 19.5902 176.186 18.1478 177.798C17.1329 178.973 16.3798 180.351 15.9385 181.84C15.4971 183.329 15.3775 184.895 15.5878 186.434C15.9798 187.6 16.1618 188.828 16.1218 190.058C15.9078 192.084 13.9898 193.576 12.8158 195.176C5.92576 204.362 12.4958 216.548 23.4798 214.47C23.4438 214.542 15.9078 230.572 15.4798 231.638C15.3963 231.773 15.358 231.931 15.3706 232.089C15.3832 232.248 15.446 232.398 15.5498 232.518C15.6187 232.598 15.704 232.662 15.7998 232.706C20.8778 234.906 37.0658 237.906 42.2418 238.606V238.676C40.0918 266.628 52.2418 279.436 68.3638 282.276C85.7638 285.382 100.694 280.048 112.824 266.816C121.102 257.816 125.824 248.582 130.522 239.202C136.94 240.238 144.722 240.784 150.14 237.176C150.789 236.809 151.34 236.291 151.747 235.666C152.154 235.041 152.405 234.328 152.478 233.586C152.551 232.843 152.445 232.095 152.168 231.402C151.89 230.71 151.451 230.095 150.886 229.608C148.202 226.808 144.118 227.044 133.72 225.236C137.132 224.702 140.544 223.85 143.956 222.996C147.688 221.93 153.658 220.864 154.084 216.066C154.084 214.836 153.746 213.63 153.106 212.58C152.467 211.53 151.55 210.676 150.458 210.112ZM11.9618 201.69C12.8978 196.064 16.6178 194.648 17.7178 191.348C18.3578 189.216 17.1858 187.188 17.1858 185.058C17.1858 180.144 21.5858 174.846 29.9858 174.182C32.9718 173.968 36.8098 174.822 39.2618 172.69C41.1098 171.176 40.6618 168.504 44.0618 166.61C48.1518 164.34 53.5378 165.774 60.5858 158.722C60.5651 162.552 59.7478 166.336 58.1858 169.834C52.7993 172.094 47.9499 175.465 43.9538 179.726C35.7838 188.2 31.7538 197.514 24.3918 212.664C19.1098 215.614 10.4378 210.222 11.9618 201.69ZM17.3998 231.542C21.3458 222.906 25.3998 214.376 29.5558 205.848C33.2858 198.172 36.9118 190.494 42.4558 183.884C47.2542 177.73 53.7357 173.1 61.1138 170.558C71.1698 167.476 82.8238 169.658 89.5798 177.378C93.2158 181.578 94.4538 186.646 95.4438 192.094C96.6418 200.59 97.2698 209.154 97.3278 217.734C94.6078 220.782 91.9898 224.03 89.4738 227.278C90.2818 219.332 90.1738 211.318 89.1538 203.396C89.1559 203.283 89.1354 203.171 89.0934 203.067C89.0513 202.963 88.9887 202.868 88.9092 202.788C88.8296 202.708 88.7349 202.645 88.6305 202.603C88.5261 202.561 88.4143 202.54 88.3018 202.542H48.5318C48.3481 202.529 48.1667 202.589 48.0268 202.709C47.8869 202.829 47.7996 202.998 47.7838 203.182C45.1995 214.321 43.3852 225.625 42.3538 237.014C33.9224 235.752 25.5855 233.924 17.3998 231.542ZM152.272 216.082C152.054 219.792 145.932 220.932 142.89 221.734C137.792 223.252 132.529 224.146 127.216 224.398C126.364 224.414 126.044 225.784 127.004 225.998C130.628 226.532 134.146 227.172 137.772 227.704C143.442 228.704 145.372 228.612 147.688 229.624C150.954 231.056 151.444 234.264 149.394 235.7C144.426 239.372 136.28 238.57 130.194 237.62C130.021 237.563 129.834 237.564 129.661 237.621C129.488 237.679 129.338 237.791 129.234 237.94C116.976 263.4 101.192 283.44 73.2598 281.34C67.571 280.985 62.0504 279.271 57.1618 276.34C48.4178 270.688 44.5798 260.56 43.7278 250.54C42.5758 236.498 46.4638 217.14 49.0578 204.162H87.4458C88.4458 212.698 88.4458 221.32 87.4458 229.856C87.3398 230.71 88.5238 230.824 88.9398 230.282C96.7556 220.361 105.122 210.886 114 201.902C117.684 198.035 121.798 194.602 126.262 191.668C128.5 190.282 131.166 188.788 133.938 189.536C134.528 189.632 135.088 189.861 135.576 190.206C136.064 190.551 136.467 191.003 136.755 191.527C137.042 192.05 137.207 192.633 137.236 193.23C137.265 193.827 137.157 194.423 136.922 194.972C135.89 198.04 133.084 200.41 130.952 202.648C128.286 205.422 125.728 208.194 123.062 210.966C122.945 211.094 122.871 211.254 122.85 211.426C122.829 211.597 122.862 211.771 122.943 211.923C123.025 212.076 123.152 212.199 123.307 212.275C123.462 212.352 123.637 212.379 123.808 212.352C128.087 211.446 132.436 210.91 136.808 210.752C141.87 210.498 146.516 210.168 149.39 211.604C150.238 212.009 150.957 212.643 151.465 213.434C151.974 214.225 152.253 215.142 152.27 216.082H152.272Z" fill="black"/>
<path d="M66.158 146.127C65.3098 146.715 64.591 147.47 64.0459 148.346C63.5008 149.222 63.1408 150.201 62.9883 151.221C62.8358 152.242 62.8939 153.283 63.159 154.28C63.4242 155.277 63.8907 156.209 64.53 157.019C65.4266 158.083 66.589 158.889 67.8988 159.357C69.2085 159.824 70.6188 159.936 71.986 159.681C73.0639 159.442 74.0757 158.967 74.9492 158.291C75.8226 157.615 76.5363 156.755 77.0392 155.772C77.5422 154.789 77.8221 153.707 77.859 152.603C77.8958 151.5 77.6888 150.401 77.2526 149.387C76.8163 148.372 76.1617 147.467 75.3353 146.734C74.5089 146.002 73.531 145.46 72.4715 145.149C71.412 144.838 70.2968 144.764 69.2055 144.933C68.1142 145.102 67.0736 145.51 66.158 146.127ZM74.26 147.831C71.3321 150.181 68.1911 152.251 64.878 154.015C64.5063 152.806 64.5367 151.508 64.9647 150.317C65.3928 149.125 66.1954 148.105 67.2522 147.409C68.309 146.712 69.5631 146.377 70.8265 146.453C72.0899 146.529 73.2946 147.013 74.26 147.831ZM73.372 157.231C72.0702 158.003 70.5247 158.253 69.0461 157.931C67.5675 157.61 66.2655 156.74 65.402 155.497C68.8558 153.663 72.122 151.495 75.154 149.025C75.588 149.677 75.8866 150.41 76.032 151.179C76.1775 151.949 76.1667 152.74 76.0005 153.505C75.8343 154.27 75.5159 154.994 75.0644 155.634C74.6129 156.274 74.0373 156.816 73.372 157.229V157.231Z" fill="black"/>
<path d="M310.809 26.5176C309.265 28.1127 307.938 29.9049 306.863 31.8476C306.093 33.3076 265.603 114.338 265.603 114.584C250.463 137.692 255.155 186.244 275.305 194.544C283.751 198.024 292.105 191.324 296.201 183.344C297.381 181.056 299.087 177.26 299.187 177.054C299.955 175.466 338.315 99.1176 340.021 95.4916C340.021 95.4776 340.023 95.4636 340.029 95.4516C340.034 95.4375 340.042 95.4249 340.053 95.4156C340.063 95.4056 340.075 95.3974 340.087 95.3916C340.101 95.3869 340.115 95.3849 340.129 95.3856C343.985 88.6356 345.389 77.6196 345.673 69.0516C346.282 57.6449 344.201 46.2547 339.599 35.7996C331.433 18.3236 319.071 17.6856 310.809 26.5176ZM340.449 90.7976C339.589 93.2276 300.675 170.294 298.227 175.454C297.183 177.965 296.009 180.421 294.709 182.81C285.151 198.534 273.617 196.514 265.817 182.704C258.457 169.678 255.295 145.464 262.937 124.278C263.904 121.592 265.155 119.017 266.669 116.598C267.085 116.13 267.411 115.588 267.629 114.998C269.311 111.398 308.669 32.3896 308.677 32.3716C310.393 29.2653 312.846 26.628 315.819 24.6916C321.467 21.0916 328.647 21.9836 334.905 30.6656C345.737 45.7016 346.273 74.3556 340.449 90.7996V90.7976Z" fill="black"/>
<path d="M281.17 145.82C280.85 145.5 280.636 145.396 280.316 145.5C279.822 145.5 279.838 145.74 274.346 153.818C274.279 153.943 274.246 154.083 274.252 154.224C274.257 154.366 274.3 154.503 274.375 154.623C274.451 154.742 274.558 154.84 274.684 154.904C274.809 154.969 274.95 154.999 275.092 154.992H285.328C285.469 154.999 285.609 154.968 285.735 154.903C285.86 154.838 285.966 154.741 286.042 154.622C286.118 154.503 286.161 154.365 286.166 154.224C286.172 154.083 286.14 153.943 286.074 153.818C284.478 151.129 282.844 148.463 281.17 145.822V145.82ZM276.586 153.4L280.424 147.64L283.942 153.4H276.586Z" fill="black"/>
<path d="M295.35 116.5C290.262 108.218 282.778 103.3 274.026 107.44C273.076 107.888 273.93 109.274 274.88 108.826C282.46 105.246 289.006 109.676 293.538 116.606C302.038 129.606 303.672 150.76 300.788 165.652C300.588 166.72 302.188 167.148 302.388 166.08C306.156 146.164 302.2 127.646 295.35 116.5Z" fill="black"/>
<path d="M364.864 329C364.664 328.976 317.874 323.562 317.314 323.562C316.246 323.456 316.248 325.038 317.314 325.162C317.514 325.186 364.304 330.6 364.864 330.6C365.93 330.696 365.928 329.114 364.864 329Z" fill="black"/>
<path d="M320.831 317.262C323.831 316.228 346.099 308.52 347.165 308.094C348.125 307.774 347.695 306.164 346.739 306.494C343.739 307.528 321.471 315.236 320.405 315.664C319.445 315.984 319.875 317.6 320.831 317.262Z" fill="black"/>
<path d="M318.6 328.999C317.854 328.253 316.672 329.435 317.428 330.173C319.64 332.331 336.828 348.297 337.578 349.043C338.328 349.789 339.506 348.607 338.752 347.871C337.034 346.199 319.282 329.679 318.6 328.999Z" fill="black"/>
<path d="M263.5 352V315.5L276 303V337" stroke="black" stroke-width="1.5"/>
<path d="M123 175L139 144.5H163.5L151.5 175" stroke="black" stroke-width="1.5"/>
<circle cx="147.5" cy="164.5" r="2.5" fill="black"/>
<circle cx="272.5" cy="329.5" r="1.5" fill="black"/>
</svg>
