<svg width="72" height="72" viewBox="0 0 72 72" fill="none" xmlns="http://www.w3.org/2000/svg">
<path d="M36 27.375H33.125C32.3625 27.375 31.6312 27.6779 31.0921 28.2171C30.5529 28.7562 30.25 29.4875 30.25 30.25V31.3281C30.25 31.9502 30.4518 32.5555 30.825 33.0531C31.1982 33.5508 31.7228 33.9139 32.32 34.0881L39.68 36.2358C40.2772 36.4099 40.8018 36.7731 41.175 37.2707C41.5482 37.7684 41.75 38.3737 41.75 38.9958V41.75C41.75 42.5125 41.4471 43.2438 40.9079 43.7829C40.3688 44.3221 39.6375 44.625 38.875 44.625H36M36 27.375H38.875C39.6375 27.375 40.3688 27.6779 40.9079 28.2171C41.4471 28.7562 41.75 29.4875 41.75 30.25V31.6875M36 27.375V23.0625M36 44.625H33.125C32.7475 44.625 32.3736 44.5506 32.0248 44.4062C31.676 44.2617 31.359 44.0499 31.0921 43.7829C30.8251 43.516 30.6133 43.199 30.4688 42.8502C30.3244 42.5014 30.25 42.1276 30.25 41.75V40.3125M36 44.625V48.9375M4.375 10.125H38.875C41.8954 10.125 44.8862 10.7199 47.6767 11.8758C50.4672 13.0316 53.0027 14.7258 55.1385 16.8615C57.2742 18.9973 58.9684 21.5328 60.1242 24.3233C61.2801 27.1138 61.875 30.1046 61.875 33.125M4.375 10.125C5.55375 10.125 7.22125 9.41488 8.42875 8.67888C10.0342 7.68237 11.4528 6.41259 12.6205 4.927C13.5348 3.777 14.4375 2.41425 14.4375 1.5M4.375 10.125C5.55375 10.125 7.22125 10.8351 8.42875 11.5711C10.0339 12.568 11.4525 13.8377 12.6205 15.323C13.5348 16.473 14.4375 17.8358 14.4375 18.75M67.625 61.875H33.125C27.025 61.875 21.1749 59.4518 16.8615 55.1385C12.5482 50.8251 10.125 44.975 10.125 38.875M67.625 61.875C66.4462 61.875 64.7787 62.5851 63.5712 63.3211C61.9659 64.3178 60.5473 65.5875 59.3795 67.073C58.4652 68.223 57.5625 69.5858 57.5625 70.5M67.625 61.875C66.4462 61.875 64.7787 61.1649 63.5712 60.4289C61.9659 59.4322 60.5473 58.1625 59.3795 56.677C58.4652 55.527 57.5625 54.1642 57.5625 53.25M53.25 36C53.25 31.425 51.4326 27.0374 48.1976 23.8024C44.9626 20.5674 40.575 18.75 36 18.75C31.425 18.75 27.0374 20.5674 23.8024 23.8024C20.5674 27.0374 18.75 31.425 18.75 36C18.75 40.575 20.5674 44.9626 23.8024 48.1976C27.0374 51.4326 31.425 53.25 36 53.25C40.575 53.25 44.9626 51.4326 48.1976 48.1976C51.4326 44.9626 53.25 40.575 53.25 36Z" stroke="black" stroke-width="3"/>
</svg>
