<svg width="400" height="400" viewBox="0 0 400 400" fill="none" xmlns="http://www.w3.org/2000/svg">
<path d="M48.8495 220.066C59.8097 226.202 71.3415 231.255 83.2815 235.156C102.759 241.42 122.717 243.038 148.107 238.6C168.297 235.398 187.482 227.602 204.184 215.814C205.796 214.674 205.751 214.686 205.945 214.646C193.315 212.1 174.687 209.748 161.983 208.446C154.813 212.25 146.757 214.07 138.648 213.716C130.538 213.362 122.671 210.848 115.859 206.434C95.9715 207.686 66.1395 212.634 48.2755 219.986C48.2449 220.004 48.2155 220.025 48.1875 220.048C48.2904 219.995 48.4051 219.969 48.5208 219.972C48.6365 219.975 48.7496 220.007 48.8495 220.066ZM88.0495 221.206L169.387 218.194C170.347 218.158 170.343 219.65 169.387 219.686L88.0495 222.698C87.0915 222.734 87.0955 221.244 88.0535 221.2L88.0495 221.206Z" fill="#CCEAFF"/>
<path d="M232.848 315.176C232.234 302.994 231.556 290.598 228.754 278.696C225.462 264.724 218.684 251.558 206.678 243.794C206.678 234.336 206.91 224.878 206.782 215.42C206.778 215.297 206.746 215.176 206.688 215.068C206.63 214.959 206.548 214.866 206.448 214.794C206.541 214.873 206.615 214.972 206.665 215.083C206.714 215.195 206.738 215.316 206.735 215.438C206.731 215.56 206.7 215.679 206.645 215.788C206.589 215.896 206.509 215.99 206.412 216.064C196.741 223.119 186.15 228.817 174.934 233C154.507 240.348 132.805 243.484 111.134 242.22C89.3338 240.534 68.4138 232.42 49.2298 221.956L48.1078 221.356C47.9767 221.29 47.8711 221.182 47.8071 221.05C47.7431 220.918 47.7244 220.768 47.7538 220.624C47.7038 220.824 47.7538 220.16 47.7298 249.636C29.2598 263.488 21.9718 287.92 20.9298 310.558C19.9298 332.176 20.8418 357.726 21.4438 380.534C21.5758 378.598 26.1418 377.534 28.0638 377.1C27.2171 369.552 28.3716 361.913 31.4113 354.952C34.4511 347.992 39.2691 341.953 45.3814 337.444C51.4936 332.934 58.6849 330.113 66.2328 329.263C73.7808 328.412 81.4195 329.563 88.3818 332.6C86.161 339.072 85.4053 345.956 86.1694 352.755C86.9334 359.554 89.1981 366.099 92.7998 371.916L95.0758 371.858C74.5538 341.842 98.6398 299.972 136.346 304.574C146.14 305.765 155.214 310.325 162.016 317.472C152.605 322.497 145.221 330.621 141.114 340.467C137.007 350.314 136.431 361.277 139.482 371.5L141.34 371.516C138.279 361.971 138.621 351.66 142.306 342.339C145.991 333.017 152.792 325.26 161.552 320.388C168.725 316.677 176.759 314.946 184.824 315.375C192.89 315.804 200.694 318.377 207.434 322.828C215.683 328.592 221.665 337.053 224.348 346.752C227.031 356.452 226.248 366.783 222.134 375.968C225.935 376.444 229.669 377.347 233.268 378.66C233.661 378.826 234.006 379.088 234.273 379.421C234.54 379.754 234.719 380.148 234.796 380.568C234.372 358.362 232.862 315.412 232.848 315.176Z" fill="#CCEAFF"/>
<path d="M363.886 329.122C349.138 268.522 323.272 189.572 314.156 139.958C314.156 140.018 314.174 140.076 314.18 140.136C314.195 140.223 314.19 140.312 314.167 140.396C314.143 140.481 314.101 140.56 314.044 140.627C313.987 140.693 313.916 140.747 313.835 140.783C313.755 140.819 313.668 140.837 313.58 140.836C313.224 140.988 266.526 145.548 266.3 145.73C266.474 145.59 266.256 145.93 265.624 146.33C257.978 151.96 246.638 156.842 237.376 155.53C236.071 155.328 234.78 155.042 233.512 154.674C231.496 154.112 220.472 150.938 219.966 150.782C219.721 150.679 219.469 150.591 219.212 150.52C219.012 150.52 218.664 150.578 200.97 152.384C200.863 152.384 200.757 152.361 200.659 152.316C200.562 152.272 200.475 152.206 200.405 152.125C200.335 152.044 200.283 151.948 200.253 151.845C200.224 151.742 200.216 151.634 200.232 151.528C199.776 153.928 199.032 156.296 198.352 158.642C197.052 163.134 184.256 203.928 182.034 210.83C190 211.9 198.068 213.068 205.946 214.656C206.052 214.651 206.158 214.667 206.257 214.704C206.357 214.74 206.448 214.796 206.526 214.868C206.604 214.94 206.667 215.027 206.711 215.123C206.754 215.22 206.779 215.324 206.782 215.43C206.91 224.888 206.682 234.346 206.678 243.804C230.926 259.484 231.918 293.13 233.136 321.914C235.034 315.434 255.11 240.376 256.736 234.22C261.718 252.62 284.936 342.122 286.688 348.112C286.745 348.3 286.872 348.458 287.042 348.555C287.213 348.652 287.414 348.679 287.604 348.632C307.676 345.601 327.509 341.156 346.954 335.33C352.46 333.68 357.896 331.814 363.368 330.05C363.557 329.991 363.715 329.862 363.812 329.689C363.908 329.516 363.935 329.314 363.886 329.122ZM255.898 226C255.164 223.45 252.332 211.87 246.388 194.904C246.07 193.996 247.51 193.608 247.826 194.504C251.226 204.238 254.85 215.674 257.336 225.6C257.389 225.791 257.364 225.995 257.267 226.167C257.17 226.339 257.008 226.466 256.817 226.519C256.626 226.572 256.423 226.547 256.25 226.45C256.078 226.353 255.951 226.191 255.898 226ZM289.298 282.26L285.534 271.088C285.226 270.176 286.666 269.788 286.972 270.688L290.736 281.86C291.04 282.778 289.6 283.166 289.294 282.262L289.298 282.26ZM346.784 332.948C346.784 332.948 311.612 195.8 308.956 183.812C306.282 171.75 304.234 159.576 302.25 147.386C302.096 146.446 303.534 146.044 303.688 146.986C309.232 181.074 311.76 190.202 320.376 223.844C323.47 235.922 345.232 320.444 348.218 332.55C348.244 332.644 348.252 332.743 348.24 332.84C348.228 332.938 348.197 333.032 348.149 333.117C348.101 333.202 348.036 333.277 347.959 333.338C347.882 333.398 347.794 333.443 347.699 333.469C347.605 333.495 347.506 333.503 347.409 333.491C347.312 333.479 347.218 333.448 347.132 333.4C347.047 333.352 346.972 333.287 346.911 333.21C346.851 333.133 346.806 333.044 346.78 332.95L346.784 332.948Z" fill="#FFD2D2"/>
<path d="M314.155 139.958C309.615 99.5378 291.931 65.6358 272.339 46.3138C267.707 41.8947 262.145 38.5687 256.059 36.5798C241.551 31.5798 225.823 32.8238 215.203 43.7398C209.833 49.2578 207.015 56.9198 205.165 64.2498C202.445 75.7152 200.915 87.4305 200.597 99.2098C201.085 99.3218 202.181 99.5598 202.237 99.5718C202.426 99.6278 202.586 99.7547 202.683 99.9259C202.78 100.097 202.806 100.299 202.757 100.49C201.175 108.462 196.863 132.982 194.825 141.412C194.805 141.506 194.765 141.596 194.709 141.674C194.652 141.752 194.58 141.818 194.497 141.868C194.414 141.917 194.321 141.949 194.225 141.961C194.13 141.973 194.032 141.965 193.939 141.938C196.101 142.729 198.265 143.508 200.433 144.276C200.433 146.688 200.451 149.116 200.233 151.518C200.218 151.624 200.225 151.732 200.255 151.835C200.285 151.938 200.336 152.034 200.406 152.115C200.476 152.196 200.563 152.261 200.661 152.306C200.758 152.351 200.864 152.374 200.971 152.374C219.123 150.52 219.013 150.506 219.213 150.51C220.305 150.812 217.497 150.208 233.513 154.664C234.782 155.033 236.072 155.319 237.377 155.52C245.805 156.72 256.011 152.72 263.127 148.064C263.675 147.704 265.745 146.298 266.201 145.898C266.201 145.898 266.471 145.594 266.301 145.73C266.501 145.568 313.185 141.004 313.581 140.836C313.741 140.836 313.893 140.773 314.006 140.66C314.118 140.548 314.181 140.395 314.181 140.236C314.177 140.143 314.169 140.05 314.155 139.958ZM219.027 150.482C212.836 149.054 206.793 147.045 200.979 144.482C200.095 144.132 200.483 142.682 201.379 143.044C204.327 144.214 207.255 145.468 210.261 146.484C214.335 147.862 219.137 148.912 219.473 149.084C219.651 149.151 219.795 149.283 219.878 149.453C219.961 149.623 219.976 149.819 219.919 149.999C219.863 150.18 219.739 150.332 219.574 150.425C219.409 150.518 219.215 150.544 219.031 150.498L219.027 150.482ZM245.087 140.78L237.631 144.508C236.775 144.936 236.021 143.65 236.879 143.22L244.333 139.492C245.199 139.064 245.945 140.35 245.087 140.78ZM254.033 59.9998C244.768 74.0677 237.353 89.27 231.971 105.232C231.498 105.61 230.971 105.916 230.407 106.14C221.963 104.335 213.452 102.901 204.873 101.84C203.931 101.724 203.923 100.24 204.873 100.348C213.505 101.415 222.079 102.852 230.595 104.66C236.008 88.6354 243.453 73.371 252.747 59.2398C253.271 58.4418 254.563 59.1878 254.033 59.9998ZM289.361 111.2C284.151 121.434 278.285 131.322 271.799 140.8C271.261 141.59 269.969 140.842 270.513 140.048C277 130.569 282.869 120.682 288.083 110.448C288.509 109.588 289.799 110.344 289.361 111.2Z" fill="#2755A0"/>
<path d="M221.436 17.8618C221.466 17.988 221.462 18.1198 221.427 18.2444C221.391 18.3691 221.324 18.4825 221.232 18.5737C221.139 18.6649 221.025 18.7308 220.9 18.7652C220.775 18.7995 220.643 18.8011 220.518 18.7698C219.888 18.6798 206.466 16.9018 204.214 16.5358C204.105 16.5043 204.004 16.4485 203.92 16.3727C203.835 16.2968 203.769 16.2028 203.726 16.0978C203.683 15.9927 203.665 15.8793 203.672 15.7661C203.679 15.6528 203.712 15.5427 203.768 15.4438C201.368 19.9658 201.608 26.2218 206.342 29.0998C208.488 30.3894 211.032 30.8504 213.495 30.3963C215.958 29.9422 218.17 28.6042 219.716 26.6338C220.603 25.375 221.215 23.943 221.512 22.4314C221.808 20.9198 221.782 19.3627 221.436 17.8618Z" fill="#FC9070"/>
<path d="M188.459 12.9276C187.505 12.8336 187.511 14.3276 188.459 14.4196L196.883 15.2636C197.837 15.3596 197.829 13.8636 196.883 13.7736L188.459 12.9276Z" fill="black"/>
<path d="M169.4 218.2L88.0542 221.2C87.0982 221.236 87.0922 222.728 88.0542 222.692L169.4 219.686C170.348 219.65 170.354 218.158 169.4 218.2Z" fill="#2755A0"/>
<path d="M149.024 265.376C114.41 272.328 78.3215 268.536 48.8415 249.348C48.0415 248.824 47.2875 250.114 48.0895 250.636C76.5995 269.2 111.344 273.568 145.252 267.6C166.834 263.85 187.535 256.134 206.306 244.842C207.124 244.342 206.374 243.052 205.554 243.554C188.117 254.049 168.989 261.433 149.024 265.376Z" fill="white"/>
<path d="M52.5215 271.36C47.0869 278.973 43.8102 287.912 43.0375 297.234C42.9555 298.19 44.4375 298.184 44.5295 297.234C45.32 288.181 48.5247 279.505 53.8095 272.112C54.3675 271.33 53.0735 270.584 52.5215 271.36Z" fill="black"/>
<path d="M137.698 169.342C140.498 170.142 143.142 168.708 146.872 167.288C144.058 164.688 143.654 164.458 141.072 162.076C139.661 162.08 138.265 161.793 136.97 161.234C135.969 162.246 135.248 163.499 134.876 164.872C134.756 165.351 134.734 165.85 134.813 166.338C134.891 166.826 135.067 167.292 135.331 167.71C135.595 168.128 135.941 168.488 136.347 168.768C136.754 169.049 137.213 169.244 137.698 169.342Z" fill="#F7DA31"/>
<path d="M160.614 166.252C159.624 165.718 158.475 165.558 157.378 165.804C154.764 166.298 152.188 166.975 149.67 167.832C152.577 170.617 155.286 173.6 157.78 176.76C162.682 173.364 163.2 167.968 160.614 166.252Z" fill="#F7DA31"/>
<path d="M111.504 194.436C105.892 188.802 101.854 181.795 99.7945 174.114C97.7346 166.433 97.724 158.346 99.7639 150.66C99.4202 150.572 99.0817 150.465 98.7499 150.34C94.0324 161.39 93.8716 173.857 98.3025 185.025C102.733 196.193 111.397 205.159 122.407 209.969C133.417 214.78 145.882 215.046 157.087 210.709C168.292 206.373 177.331 197.785 182.234 186.816C178.554 192.567 173.631 197.419 167.826 201.013C162.022 204.608 155.484 206.853 148.696 207.585C141.908 208.316 135.042 207.514 128.605 205.238C122.168 202.963 116.324 199.271 111.504 194.436Z" fill="#F7DA31"/>
<path d="M177.305 141.106C177.305 141.954 177.294 142.801 177.271 143.648C177.129 149.15 176.931 155.282 173.495 159.48C172.324 161.093 170.624 162.243 168.691 162.73C166.758 163.218 164.715 163.011 162.919 162.146C157.177 159.29 155.719 151.908 154.703 145.628C154.235 153.084 150.327 160.686 143.093 161.902C144.871 163.502 146.671 165.076 148.439 166.688C150.973 165.785 153.566 165.055 156.199 164.504C157.284 164.259 158.401 164.191 159.507 164.304C160.594 164.494 161.585 165.045 162.321 165.867C163.056 166.69 163.493 167.736 163.561 168.838C163.616 170.644 163.198 172.433 162.348 174.028C161.498 175.622 160.246 176.967 158.715 177.928C159.649 179.096 160.582 180.268 161.515 181.444C162.103 182.19 161.055 183.244 160.461 182.498C159.483 181.254 158.493 180.018 157.503 178.782C154.59 180.706 151.526 182.391 148.341 183.822C147.471 184.222 146.715 182.93 147.587 182.536C150.701 181.133 153.701 179.493 156.561 177.628C153.959 174.364 151.127 171.29 148.087 168.428C147.393 168.682 146.687 168.92 146.001 169.198C143.772 170.375 141.296 171.008 138.775 171.048C137.765 171.016 136.78 170.73 135.91 170.216C135.04 169.701 134.314 168.976 133.799 168.106C132.503 165.532 133.769 162.69 135.651 160.506C131.431 157.822 130.617 151.706 129.451 146.754L126.123 132.634C121.93 138.442 116.871 143.574 111.123 147.85C108.306 150.039 104.787 151.127 101.225 150.91C98.4976 161.073 99.4961 171.877 104.04 181.368C108.585 190.859 116.375 198.411 126.002 202.659C135.63 206.906 146.459 207.569 156.533 204.527C166.607 201.485 175.26 194.94 180.927 186.074C181.684 184.928 182.38 183.743 183.013 182.524C183.056 182.435 183.118 182.357 183.195 182.296C183.271 182.234 183.36 182.19 183.456 182.167C183.551 182.143 183.651 182.141 183.747 182.161C183.844 182.18 183.934 182.221 184.013 182.28C186.264 175.38 186.83 168.041 185.663 160.878C184.496 153.714 181.63 146.934 177.305 141.106Z" fill="#F7DA31"/>
<path d="M213.278 10.1998C211.352 10.0395 209.421 10.4524 207.729 11.3865C206.037 12.3207 204.659 13.7344 203.768 15.4498C203.671 15.6243 203.647 15.8299 203.701 16.0219C203.755 16.214 203.882 16.3771 204.056 16.4758C204.316 16.6198 217.514 18.3398 220.518 18.7758C220.644 18.8065 220.775 18.8044 220.9 18.7699C221.025 18.7353 221.138 18.6693 221.231 18.5783C221.323 18.4873 221.39 18.3741 221.426 18.2498C221.462 18.1254 221.465 17.9939 221.436 17.8678C221.001 15.9194 219.991 14.1466 218.536 12.7793C217.081 11.412 215.249 10.5133 213.278 10.1998Z" fill="black"/>
<path d="M158.722 177.926C160.249 176.962 161.5 175.617 162.349 174.023C163.199 172.429 163.619 170.641 163.568 168.836C163.5 167.734 163.063 166.688 162.327 165.865C161.592 165.043 160.601 164.492 159.514 164.302C158.408 164.188 157.29 164.256 156.206 164.502C153.571 165.054 150.976 165.784 148.44 166.686C146.972 165.348 145.292 163.886 143.094 161.9C142.426 162.018 141.75 162.076 141.072 162.074C143.442 164.262 145.232 165.804 146.872 167.286C146.162 167.556 145.362 167.85 144.672 168.136C142.549 169.305 140.095 169.728 137.704 169.336C137.221 169.235 136.763 169.039 136.358 168.757C135.953 168.476 135.608 168.116 135.345 167.699C135.081 167.282 134.905 166.816 134.825 166.33C134.746 165.843 134.765 165.345 134.882 164.866C135.254 163.493 135.976 162.239 136.976 161.228C136.518 161.026 136.078 160.786 135.66 160.51C133.78 162.682 132.512 165.524 133.808 168.11C134.322 168.978 135.048 169.702 135.918 170.215C136.788 170.728 137.773 171.012 138.782 171.042C141.57 171.282 143.82 169.992 148.094 168.422C151.134 171.283 153.966 174.357 156.568 177.622C153.706 179.485 150.706 181.126 147.594 182.53C146.722 182.93 147.48 184.21 148.348 183.816C151.533 182.385 154.596 180.7 157.51 178.776C158.414 179.888 159.392 181.122 160.468 182.492C161.068 183.246 162.11 182.184 161.522 181.438C160.492 180.142 159.568 178.976 158.722 177.926ZM149.67 167.832C152.189 166.977 154.764 166.298 157.378 165.8C158.475 165.554 159.624 165.713 160.614 166.248C163.196 167.958 162.658 173.358 157.78 176.756C155.296 173.589 152.585 170.607 149.67 167.832Z" fill="black"/>
<path d="M184.302 183.276C184.722 182.476 183.59 181.732 183.08 182.416C182.425 183.67 181.706 184.891 180.928 186.074C175.26 194.937 166.608 201.48 156.536 204.521C146.464 207.562 135.637 206.9 126.01 202.654C116.384 198.408 108.594 190.859 104.048 181.371C99.5018 171.883 98.4995 161.082 101.222 150.92C100.731 150.867 100.244 150.78 99.7643 150.66C96.8952 161.511 98.1309 173.04 103.235 183.036C108.339 193.033 116.951 200.795 127.423 204.835C137.895 208.876 149.49 208.91 159.985 204.931C170.481 200.953 179.14 193.242 184.302 183.276Z" fill="#FC9070"/>
<path d="M379.1 360.932C375.474 358.67 371.551 356.926 367.444 355.748C345.554 349.408 315.468 351.02 287.696 362.892C286.972 363.202 287.4 364.26 288.072 364.282C314.228 365.126 352.34 363.862 378.72 362.388C378.897 362.397 379.071 362.345 379.214 362.241C379.357 362.136 379.459 361.986 379.504 361.815C379.549 361.643 379.533 361.462 379.459 361.301C379.386 361.14 379.259 361.01 379.1 360.932Z" fill="black"/>
<path d="M202.237 99.5717C182.833 94.9404 163.069 91.977 143.159 90.7137C137.154 90.3547 131.219 92.1654 126.437 95.8157C122.101 99.2723 118.286 103.336 115.109 107.882C106.479 119.86 106.059 121.668 98.7834 133.282C96.8401 135.799 95.3992 138.668 94.5394 141.73C94.3161 142.892 94.3303 144.087 94.5812 145.243C94.8321 146.399 95.3145 147.493 95.9994 148.458C97.3568 149.919 99.2248 150.8 101.215 150.92C104.777 151.136 108.296 150.049 111.113 147.86C116.862 143.584 121.92 138.453 126.113 132.644L129.441 146.764C130.861 152.79 131.675 158.928 136.957 161.234C139.478 162.277 142.295 162.354 144.869 161.45C151.069 159.312 154.269 152.328 154.691 145.628C155.717 151.976 157.183 159.298 162.907 162.146C164.703 163.011 166.746 163.218 168.679 162.73C170.612 162.243 172.312 161.093 173.483 159.48C176.919 155.28 177.121 149.17 177.259 143.648C177.327 140.906 177.297 138.448 177.121 135.548C178.693 136.164 193.721 141.908 193.921 141.938C194.014 141.965 194.111 141.972 194.207 141.96C194.303 141.948 194.395 141.916 194.478 141.867C194.561 141.817 194.633 141.752 194.69 141.673C194.747 141.595 194.787 141.506 194.807 141.412C196.877 132.85 201.153 108.482 202.739 100.49C202.789 100.301 202.765 100.101 202.671 99.9305C202.578 99.7597 202.423 99.6313 202.237 99.5717ZM151.487 119.4C150.986 121.752 150.18 124.029 149.087 126.172C148.651 127.028 147.367 126.272 147.801 125.418C148.828 123.387 149.585 121.231 150.053 119.004C150.247 118.072 151.685 118.472 151.487 119.4ZM125.335 121.02C126.171 119.191 126.786 117.27 127.167 115.296C127.351 114.354 128.789 114.756 128.605 115.696C128.188 117.793 127.523 119.833 126.623 121.774C126.221 122.652 124.937 121.894 125.335 121.028V121.02Z" fill="#FC9070"/>
<path d="M48.0976 221.354L49.2196 221.954C85.7396 241.88 112.848 245.46 144.382 240.694C166.782 237.308 187.77 229.864 206.412 216.064C206.547 215.967 206.648 215.829 206.7 215.671C206.752 215.512 206.752 215.342 206.7 215.183C206.648 215.025 206.546 214.888 206.411 214.791C206.275 214.694 206.112 214.643 205.946 214.646C205.756 214.682 205.786 214.68 204.184 215.814C187.483 227.602 168.298 235.398 148.108 238.6C110.674 245.144 83.7076 238.89 48.8496 220.066C47.9816 219.6 47.2656 220.924 48.0976 221.354Z" fill="white"/>
<path d="M286.968 270.694C286.662 269.79 285.222 270.178 285.53 271.094L289.294 282.266C289.598 283.17 291.04 282.782 290.732 281.866L286.968 270.694Z" fill="#2755A0"/>
<path d="M237.632 144.508L245.088 140.78C245.946 140.35 245.192 139.064 244.334 139.492L236.88 143.22C236.022 143.65 236.776 144.936 237.632 144.508Z" fill="#0B8767"/>
<path d="M43.7199 135.66C43.6353 135.61 43.5418 135.578 43.4448 135.565C43.3477 135.551 43.2489 135.557 43.1541 135.582C43.0593 135.607 42.9703 135.65 42.8922 135.709C42.8141 135.768 42.7484 135.842 42.6989 135.927C42.6494 136.011 42.617 136.105 42.6037 136.202C42.5903 136.299 42.5962 136.398 42.621 136.493C42.6458 136.587 42.689 136.676 42.7482 136.755C42.8074 136.833 42.8813 136.898 42.9659 136.948C45.9439 138.794 68.3659 152.444 69.4759 153.082C69.5618 153.129 69.6564 153.159 69.754 153.17C69.8516 153.18 69.9503 153.171 70.0444 153.143C70.1384 153.115 70.2259 153.068 70.3017 153.006C70.3776 152.944 70.4402 152.867 70.4859 152.78C70.576 152.613 70.5994 152.419 70.5515 152.236C70.5036 152.053 70.388 151.895 70.2279 151.794C68.4619 150.7 44.7099 136.262 43.7199 135.66Z" fill="black"/>
<path d="M24.7782 161.384H69.8522C70.0501 161.384 70.2398 161.305 70.3797 161.165C70.5196 161.025 70.5982 160.835 70.5982 160.638C70.5982 160.44 70.5196 160.25 70.3797 160.11C70.2398 159.97 70.0501 159.892 69.8522 159.892H24.7782C24.5804 159.892 24.3906 159.97 24.2507 160.11C24.1108 160.25 24.0322 160.44 24.0322 160.638C24.0322 160.835 24.1108 161.025 24.2507 161.165C24.3906 161.305 24.5804 161.384 24.7782 161.384Z" fill="black"/>
<path d="M69.4755 167.496L42.8755 181.976C42.0315 182.434 42.7835 183.722 43.6275 183.264L70.2275 168.782C71.0695 168.324 70.3175 167.036 69.4755 167.496Z" fill="black"/>
<path d="M126.623 121.78C127.523 119.839 128.188 117.799 128.605 115.702C128.789 114.764 127.351 114.362 127.167 115.302C126.786 117.275 126.171 119.197 125.335 121.026C124.937 121.894 126.221 122.652 126.623 121.78Z" fill="#FC9070"/>
<path d="M147.8 125.426C147.366 126.28 148.65 127.026 149.086 126.18C150.178 124.037 150.985 121.76 151.486 119.408C151.686 118.472 150.246 118.072 150.048 119.008C149.581 121.236 148.826 123.393 147.8 125.426Z" fill="#FC9070"/>
<path d="M162.105 269.086C154.604 271.363 147.885 275.682 142.697 281.56C137.51 287.437 134.06 294.642 132.733 302.368C134.157 302.459 135.577 302.605 136.991 302.808C136.93 302.722 136.891 302.622 136.879 302.517C136.866 302.412 136.881 302.306 136.921 302.208C137.291 301.286 137.637 300.354 138.047 299.446C150.711 271.306 187.917 263.43 208.679 284.194C211.96 287.484 214.61 291.348 216.497 295.594C208.779 273.6 184.459 262.096 162.105 269.086Z" fill="#F7DA31"/>
<path d="M217.872 305.066C217.736 304.16 217.526 303.266 217.304 302.378C215.465 294.991 211.385 288.354 205.624 283.378C184.17 264.868 148.794 274.81 138.36 302.598C138.086 303.33 137.126 302.632 140.938 303.558C149.934 305.751 158.078 310.564 164.338 317.388C164.408 317.36 164.48 317.338 164.55 317.308C172.889 313.675 182.127 312.628 191.068 314.301C200.009 315.974 208.242 320.291 214.704 326.694C217.844 320.123 219.198 312.84 218.628 305.58C218.544 305.601 218.457 305.605 218.372 305.59C218.287 305.575 218.206 305.542 218.134 305.493C218.063 305.445 218.002 305.381 217.957 305.308C217.912 305.234 217.883 305.152 217.872 305.066Z" fill="#F7DA31"/>
<path d="M86.8896 338.2C86.7365 338.268 86.5624 338.273 86.4056 338.214C61.8716 329.136 33.9396 348.378 30.5416 375.258C30.4216 376.2 28.9416 376.21 29.0496 375.258C32.3996 347.55 60.8196 327.486 86.7996 336.778C86.9354 336.828 87.0536 336.917 87.1396 337.034C87.4876 335.54 87.8956 334.06 88.3796 332.598C81.4168 329.559 73.7769 328.406 66.2275 329.255C58.6781 330.104 51.4851 332.925 45.3714 337.435C39.2576 341.945 34.4385 347.984 31.3983 354.946C28.3581 361.908 27.2039 369.548 28.0516 377.098C43.2056 373.738 77.2956 372.332 92.7936 371.916C86.5255 361.869 84.4085 349.779 86.8896 338.2Z" fill="#F7DA31"/>
<path d="M124.825 343.616C122.625 347.556 125.789 351.148 131.587 349.32C133.175 348.82 134.713 348.164 136.263 347.544C133.463 345.022 130.573 342.606 127.945 339.928C126.688 340.955 125.631 342.206 124.825 343.616Z" fill="#F7DA31"/>
<path d="M138.4 349.498C138.33 349.46 137.528 348.708 137.47 348.654C135.075 349.738 132.585 350.596 130.032 351.218C128.924 351.435 127.781 351.379 126.701 351.054C125.62 350.729 124.635 350.146 123.832 349.354C121.006 346.124 123.58 341.622 126.914 338.844C125.913 337.777 124.978 336.65 124.114 335.47C123.548 334.692 124.842 333.95 125.402 334.716C126.217 335.826 127.098 336.887 128.04 337.892C130.418 335.936 132.994 334.234 135.726 332.812C136.576 332.37 137.326 333.66 136.478 334.1C133.843 335.455 131.362 337.091 129.078 338.978C131.838 341.788 134.918 344.296 137.832 346.95C138.588 346.674 138.772 346.55 139.062 346.638C140.552 340.772 143.196 335.261 146.839 330.428C150.483 325.595 155.052 321.536 160.282 318.488C154.397 313.939 147.317 311.199 139.904 310.6C109.046 308.08 84.9676 339.182 94.8796 367.936C95.1936 368.848 93.7536 369.234 93.4416 368.336C90.6827 360.263 90.3889 351.551 92.5976 343.31C100.956 311.91 138.082 299.008 161.428 317.51C161.744 317.76 161.388 317.804 162.012 317.472C154.534 309.612 144.334 304.908 133.502 304.324C97.5016 302.254 74.9856 342.468 95.0716 371.858C109.872 371.47 124.677 371.35 139.482 371.5C137.29 364.371 136.918 356.807 138.4 349.498Z" fill="#F7DA31"/>
<path d="M136.474 334.1C137.328 333.66 136.572 332.37 135.722 332.812C132.99 334.233 130.414 335.935 128.036 337.892C128.374 338.258 128.716 338.622 129.066 338.978C131.353 337.09 133.837 335.454 136.474 334.1Z" fill="#FC9070"/>
<path d="M131.588 349.32C124.532 351.546 120.896 345.776 127.946 339.92C127.597 339.563 127.253 339.202 126.914 338.836C123.576 341.618 121.008 346.118 123.832 349.346C124.635 350.138 125.62 350.721 126.701 351.046C127.781 351.371 128.925 351.427 130.032 351.21C132.585 350.589 135.076 349.73 137.47 348.646C137.07 348.274 136.67 347.902 136.27 347.536C134.714 348.164 133.176 348.82 131.588 349.32Z" fill="#FC9070"/>
<path d="M137.82 346.95C138.136 347.238 138.446 347.53 138.756 347.822C138.85 347.422 138.948 347.027 139.05 346.638C138.762 346.552 138.6 346.668 137.82 346.95Z" fill="#FC9070"/>
<path d="M125.4 334.716C124.84 333.95 123.546 334.692 124.112 335.47C127.744 339.896 131.816 343.941 136.266 347.544C136.336 347.608 138.342 349.47 138.396 349.498C138.506 348.938 138.626 348.378 138.758 347.822C134.2 343.554 129.07 339.74 125.4 334.716Z" fill="#FC9070"/>
<path d="M196.643 362.648C196.082 361.707 195.31 360.91 194.387 360.32C192.473 358.937 190.468 357.683 188.387 356.566C188.289 360.581 187.918 364.584 187.275 368.548C193.509 370.048 198.299 365.89 196.643 362.648Z" fill="#F7DA31"/>
<path d="M181.032 343.4C180.132 343.743 179.404 344.427 179.005 345.304C178.607 346.181 178.57 347.18 178.904 348.084C180.016 351.22 183.626 352.47 186.904 354.104C186.916 349.918 186.704 346.774 186.918 342.854C184.942 342.519 182.913 342.707 181.032 343.4Z" fill="#F7DA31"/>
<path d="M225.6 353.056C225.424 352.764 225.502 352.31 224.778 349.706C222.64 341.931 218.092 335.035 211.786 330.009C205.481 324.983 197.743 322.087 189.688 321.738C183.533 321.535 177.404 322.615 171.689 324.907C165.974 327.2 160.798 330.655 156.49 335.055C152.182 339.454 148.836 344.701 146.663 350.463C144.491 356.225 143.54 362.375 143.872 368.524C143.93 369.484 142.44 369.478 142.38 368.524C141.776 358.184 144.749 347.952 150.8 339.546C168.424 314.9 203.6 313.72 220.012 336.518C203.692 308.63 162.592 307.932 145.656 335.628C142.387 340.943 140.309 346.904 139.565 353.099C138.82 359.294 139.426 365.577 141.342 371.516C159.012 371.7 173.512 372.156 185.126 372.716C185.288 371.713 185.448 370.709 185.604 369.704C182.163 368.829 178.797 367.683 175.538 366.276C174.658 365.898 175.418 364.614 176.29 364.988C179.376 366.314 182.563 367.394 185.82 368.218C186.466 364.092 186.82 359.926 186.88 355.75C183.378 353.938 180.176 352.862 178.266 350.11C177.637 349.233 177.273 348.195 177.217 347.118C177.161 346.042 177.414 344.971 177.948 344.034C178.508 343.305 179.209 342.696 180.01 342.244C180.812 341.793 181.696 341.508 182.61 341.406C184.069 341.215 185.547 341.202 187.01 341.366C187.122 339.907 187.323 338.457 187.61 337.022C187.798 336.08 189.236 336.482 189.048 337.422C188.773 338.784 188.582 340.161 188.474 341.546C191.519 341.958 194.51 342.702 197.394 343.764C198.29 344.092 197.9 345.534 196.994 345.202C194.204 344.178 191.315 343.451 188.374 343.032C188.174 346.81 188.374 350.752 188.374 354.86C190.503 355.972 192.558 357.221 194.526 358.6C195.503 359.228 196.397 359.978 197.186 360.832C200.774 364.832 196.148 371.852 187.04 370.016C186.896 370.949 186.75 371.877 186.602 372.798C197.112 373.338 211.714 374.398 222.122 375.962C225.356 368.789 226.559 360.866 225.6 353.056Z" fill="#F7DA31"/>
<path d="M170.08 323.874C161.465 327.611 154.196 333.888 149.245 341.867C144.294 349.846 141.897 359.146 142.374 368.524C142.434 369.478 143.924 369.484 143.866 368.524C143.407 359.92 145.452 351.367 149.753 343.901C154.053 336.435 160.425 330.375 168.098 326.454C174.666 322.944 182.075 321.311 189.51 321.734C196.945 322.158 204.121 324.621 210.248 328.854C218.255 334.675 223.743 343.329 225.594 353.054C224.923 347.209 223.02 341.572 220.01 336.516C208.824 320.982 188.044 316.01 170.08 323.874Z" fill="#FC9070"/>
<path d="M191.356 274.07C180.905 271.303 169.811 272.335 160.049 276.981C150.287 281.628 142.491 289.588 138.048 299.444C137.648 300.352 137.292 301.284 136.922 302.206C136.882 302.304 136.867 302.41 136.879 302.515C136.891 302.62 136.93 302.72 136.992 302.806C137.342 302.858 137.69 302.922 138.04 302.98C138.187 302.894 138.3 302.759 138.36 302.6C140.944 295.818 145.147 289.77 150.604 284.985C156.06 280.199 162.605 276.821 169.666 275.144C191.21 269.978 212.2 281.944 217.304 302.376C217.526 303.264 217.736 304.158 217.872 305.064C217.883 305.15 217.912 305.232 217.957 305.306C218.002 305.38 218.062 305.443 218.134 305.492C218.205 305.541 218.286 305.575 218.371 305.59C218.456 305.605 218.544 305.603 218.628 305.582C218.377 302.171 217.661 298.81 216.498 295.594C214.148 290.378 210.677 285.745 206.331 282.024C201.985 278.304 196.872 275.588 191.356 274.07Z" fill="#FC9070"/>
<path d="M142.683 309.432C109.859 304.572 82.8574 337.752 93.4414 368.328C93.7534 369.23 95.1934 368.844 94.8794 367.928C92.499 361.029 91.9898 353.623 93.4034 346.464C99.7574 314.334 137.003 300.348 160.269 318.484C160.711 318.222 161.149 317.954 161.599 317.708C161.555 317.631 161.497 317.563 161.427 317.508C155.996 313.219 149.531 310.434 142.683 309.432Z" fill="#FC9070"/>
<path d="M86.8002 336.778C60.5862 327.406 32.3622 347.838 29.0482 375.26C28.9342 376.212 30.4202 376.202 30.5402 375.26C33.9402 348.316 61.9242 329.158 86.4042 338.216C86.5611 338.275 86.7351 338.27 86.8882 338.202C86.9682 337.812 87.0482 337.422 87.1402 337.034C87.0542 336.917 86.9361 336.828 86.8002 336.778Z" fill="#FC9070"/>
<path d="M197 345.2C197.904 345.532 198.292 344.09 197.4 343.762C194.516 342.7 191.525 341.957 188.48 341.544C188.438 342.038 188.41 342.534 188.384 343.03C191.324 343.449 194.212 344.177 197 345.2Z" fill="#FC9070"/>
<path d="M188.384 356.566C190.465 357.682 192.47 358.936 194.384 360.32C195.306 360.91 196.079 361.707 196.64 362.648C198.292 365.882 193.516 370.048 187.268 368.548C187.196 369.039 187.123 369.531 187.048 370.022C196.198 371.866 200.762 364.822 197.194 360.838C196.405 359.984 195.511 359.234 194.534 358.606C192.566 357.227 190.511 355.978 188.382 354.866C188.388 355.432 188.4 356 188.384 356.566Z" fill="#FC9070"/>
<path d="M176.288 365C175.416 364.626 174.656 365.91 175.536 366.288C178.795 367.694 182.161 368.841 185.602 369.716C185.68 369.222 185.746 368.716 185.818 368.23C182.561 367.407 179.374 366.327 176.288 365Z" fill="#FC9070"/>
<path d="M186.895 354.098C183.647 352.47 180.019 351.228 178.895 348.078C178.562 347.174 178.598 346.175 178.997 345.298C179.395 344.421 180.123 343.737 181.023 343.394C182.902 342.703 184.928 342.514 186.901 342.848C186.927 342.356 186.963 341.866 187.005 341.376C185.542 341.211 184.065 341.225 182.605 341.416C181.691 341.517 180.807 341.802 180.006 342.254C179.205 342.706 178.504 343.314 177.943 344.044C177.41 344.981 177.156 346.051 177.213 347.128C177.269 348.205 177.633 349.243 178.261 350.12C180.181 352.886 183.373 353.948 186.875 355.76C186.887 355.206 186.894 354.652 186.895 354.098Z" fill="#FC9070"/>
<path d="M188.302 345.496C188.292 342.788 188.543 340.087 189.052 337.428C189.24 336.492 187.802 336.09 187.614 337.028C187.241 338.947 187.005 340.891 186.91 342.844C186.39 352.444 188.018 355.078 185.124 372.722L186.614 372.8C189.172 357.044 188.182 356.154 188.302 345.496Z" fill="#FC9070"/>
<path d="M247.825 194.51C247.509 193.61 246.069 193.998 246.387 194.91C252.307 211.812 255.173 223.49 255.897 226.006C255.924 226.1 255.968 226.188 256.029 226.266C256.089 226.343 256.164 226.407 256.249 226.456C256.335 226.504 256.429 226.535 256.526 226.547C256.623 226.558 256.722 226.551 256.816 226.525C256.911 226.498 256.999 226.454 257.076 226.393C257.153 226.333 257.218 226.258 257.266 226.173C257.314 226.087 257.345 225.993 257.357 225.896C257.369 225.799 257.362 225.7 257.335 225.606C254.825 215.6 251.159 204.028 247.825 194.51Z" fill="#2755A0"/>
<path d="M210.258 146.474C207.258 145.458 204.324 144.204 201.376 143.034C200.484 142.682 200.096 144.122 200.976 144.472C206.789 147.038 212.832 149.047 219.024 150.472C219.208 150.518 219.402 150.492 219.567 150.399C219.732 150.306 219.855 150.154 219.912 149.973C219.968 149.793 219.954 149.597 219.871 149.427C219.788 149.257 219.643 149.125 219.466 149.058C219.018 148.846 214.532 147.92 210.258 146.474Z" fill="#0B8767"/>
<path d="M252.748 59.2397C243.46 73.3718 236.017 88.6336 230.6 104.654C222.092 102.847 213.51 101.409 204.878 100.342C203.926 100.226 203.936 101.718 204.878 101.834C213.448 102.888 221.976 104.234 230.412 106.134C230.636 106.184 231.846 105.628 231.976 105.226C237.319 89.2506 244.735 74.0455 254.034 59.9997C254.564 59.1997 253.272 58.4397 252.748 59.2397Z" fill="#0B8767"/>
<path d="M271.8 140.8C278.287 131.32 284.156 121.433 289.372 111.2C289.806 110.348 288.52 109.6 288.084 110.448C282.868 120.681 277 130.568 270.514 140.048C269.96 140.84 271.252 141.588 271.8 140.8Z" fill="#0B8767"/>
<path d="M346.78 332.95C346.806 333.044 346.851 333.132 346.911 333.209C346.972 333.287 347.047 333.351 347.132 333.399C347.217 333.448 347.311 333.479 347.409 333.49C347.506 333.502 347.605 333.495 347.699 333.469C347.793 333.442 347.882 333.398 347.959 333.337C348.036 333.277 348.101 333.202 348.149 333.117C348.197 333.031 348.228 332.937 348.24 332.84C348.252 332.743 348.244 332.644 348.218 332.55C345.218 320.446 314.174 199.9 311.396 187.85C308.164 173.82 305.932 160.804 303.688 146.986C303.534 146.04 302.088 146.442 302.25 147.386C308.546 186.078 307.252 178.61 346.78 332.95Z" fill="#2755A0"/>
<path d="M305.764 67.8136C305.661 67.6484 305.498 67.5298 305.31 67.4829C305.121 67.4361 304.921 67.4647 304.754 67.5627C304.586 67.6607 304.463 67.8204 304.411 68.0077C304.359 68.195 304.382 68.3951 304.476 68.5656C313.317 83.7935 319.36 100.482 322.32 117.84C322.478 118.786 323.92 118.384 323.758 117.44C321.472 103.797 317.259 90.5475 311.246 78.0896C309.558 74.5996 307.786 71.1356 305.764 67.8136Z" fill="black"/>
<path d="M311.826 60.8C322.524 77.9208 328.66 97.4959 329.648 117.66C329.694 118.614 331.186 118.62 331.138 117.66C330.145 97.2323 323.939 77.3988 313.112 60.048C312.6 59.24 311.314 59.986 311.826 60.8Z" fill="black"/>
<path d="M234.8 380.568C234.723 380.148 234.544 379.754 234.277 379.42C234.01 379.087 233.665 378.826 233.272 378.66C209.284 368.108 10.3897 369.226 21.8217 381.628C32.2117 392.904 234.65 392.6 234.802 380.698V380.65L234.8 380.568Z" fill="#FFC431"/>
<path d="M203.662 15.3779C201.2 19.9439 201.512 26.2519 206.28 29.2059C207.59 29.9962 209.059 30.487 210.581 30.6431C212.103 30.7992 213.641 30.6168 215.085 30.1089C216.528 29.601 217.841 28.7803 218.93 27.7054C220.019 26.6305 220.857 25.3281 221.384 23.8914C221.91 22.4548 222.113 20.9194 221.977 19.3954C221.841 17.8713 221.369 16.3962 220.596 15.0757C219.823 13.7552 218.767 12.6221 217.505 11.7573C216.242 10.8926 214.804 10.3177 213.294 10.0739C211.344 9.9077 209.389 10.3228 207.674 11.2667C205.96 12.2107 204.564 13.6412 203.662 15.3779ZM213.862 28.6659C212.867 28.9674 211.823 29.068 210.789 28.9617C209.756 28.8554 208.754 28.5443 207.841 28.0467C206.929 27.5491 206.125 26.8749 205.476 26.0633C204.827 25.2518 204.347 24.3192 204.062 23.3199C203.606 21.1083 203.902 18.8076 204.904 16.7839C208.104 17.2879 213.05 17.8299 219.968 18.8279C220.4 20.9385 220.006 23.1343 218.869 24.964C217.732 26.7938 215.937 28.1185 213.854 28.6659H213.862ZM219.478 17.0119C216.654 16.6119 207.592 15.4119 205.892 15.1599C206.69 14.0196 207.772 13.108 209.031 12.5157C210.29 11.9235 211.683 11.6711 213.07 11.7839C214.503 12.014 215.849 12.6187 216.973 13.5368C218.097 14.4549 218.958 15.6538 219.47 17.0119H219.478Z" fill="black"/>
<path d="M188.46 12.7999C187.348 12.6899 187.354 14.4299 188.46 14.5399L196.884 15.3839C197.996 15.4959 197.988 13.7559 196.884 13.6459L188.46 12.7999Z" fill="black"/>
<path d="M169.4 218.07L88.0619 221.082C86.9459 221.124 86.9399 222.864 88.0619 222.824C90.7599 222.722 169.354 219.812 169.4 219.81C170.508 219.768 170.514 218.028 169.4 218.07Z" fill="black"/>
<path d="M44.654 297.234C45.4474 288.203 48.6463 279.55 53.918 272.174C54.568 271.262 53.06 270.392 52.414 271.296C46.974 278.931 43.6922 287.891 42.914 297.234C42.818 298.348 44.558 298.342 44.654 297.234Z" fill="black"/>
<path d="M379.144 360.814C375.52 358.544 371.592 356.798 367.478 355.628C346.762 349.526 316.478 350.44 287.634 362.786C286.788 363.148 287.288 364.386 288.072 364.408C314.218 365.246 352.228 363.994 378.702 362.514C378.909 362.525 379.113 362.465 379.28 362.343C379.447 362.221 379.567 362.045 379.619 361.845C379.671 361.644 379.652 361.432 379.566 361.245C379.479 361.057 379.33 360.904 379.144 360.814ZM292.302 362.76C314.194 354.204 342.544 350.56 365.292 356.808C368.97 357.769 372.527 359.145 375.892 360.912C350.8 362.276 317.314 363.356 292.302 362.76Z" fill="black"/>
<path d="M289.174 282.294C289.53 283.35 291.21 282.894 290.85 281.832C289.598 278.108 288.344 274.385 287.088 270.662C286.732 269.606 285.052 270.062 285.41 271.124L289.174 282.294Z" fill="black"/>
<path d="M244.272 139.386L236.816 143.114C235.816 143.614 236.696 145.114 237.694 144.616L245.15 140.888C246.152 140.386 245.272 138.886 244.272 139.386Z" fill="black"/>
<path d="M42.6001 135.906C42.4956 136.1 42.4687 136.327 42.5247 136.54C42.5807 136.754 42.7156 136.938 42.9021 137.056C45.9021 138.876 68.3021 152.552 69.4101 153.19C69.609 153.302 69.8442 153.331 70.0647 153.272C70.2852 153.212 70.4734 153.068 70.5887 152.871C70.7039 152.674 70.737 152.439 70.6808 152.218C70.6245 151.996 70.4835 151.806 70.2881 151.688L43.7821 135.552C43.6813 135.497 43.5707 135.463 43.4566 135.451C43.3426 135.439 43.2273 135.45 43.1175 135.483C43.0076 135.516 42.9054 135.57 42.8166 135.643C42.7278 135.715 42.6542 135.805 42.6001 135.906Z" fill="black"/>
<path d="M23.938 160.668C23.9454 160.888 24.0363 161.098 24.1923 161.254C24.3482 161.41 24.5576 161.501 24.778 161.508H69.85C70.0807 161.508 70.302 161.416 70.4651 161.253C70.6283 161.09 70.72 160.869 70.72 160.638C70.72 160.407 70.6283 160.186 70.4651 160.023C70.302 159.86 70.0807 159.768 69.85 159.768H24.778C24.5474 159.776 24.3295 159.876 24.172 160.045C24.0146 160.213 23.9304 160.437 23.938 160.668Z" fill="black"/>
<path d="M43.6925 183.37L70.2925 168.89C71.2765 168.354 70.3985 166.852 69.4145 167.388L42.8145 181.868C41.8325 182.4 42.7085 183.906 43.6925 183.37Z" fill="black"/>
<path d="M126.731 121.844C127.639 119.894 128.31 117.843 128.731 115.734C128.947 114.64 127.271 114.172 127.055 115.272C126.676 117.235 126.065 119.147 125.235 120.966C124.765 121.976 126.265 122.86 126.731 121.844Z" fill="black"/>
<path d="M149.2 126.242C150.299 124.09 151.11 121.804 151.614 119.442C151.848 118.35 150.17 117.882 149.938 118.98C149.474 121.196 148.721 123.343 147.698 125.364C147.184 126.36 148.684 127.242 149.2 126.242Z" fill="black"/>
<path d="M286.564 348.134C286.633 348.351 286.782 348.534 286.98 348.646C287.179 348.757 287.413 348.788 287.634 348.734C307.705 345.7 327.538 341.255 346.984 335.432C352.49 333.782 357.924 331.914 363.398 330.15C363.615 330.08 363.797 329.931 363.909 329.733C364.02 329.534 364.052 329.301 363.998 329.08C356.968 299.348 330.046 206.906 323.026 178.988C319.826 166.27 316.668 152.948 314.27 139.922C309.734 99.8577 292.644 66.4877 272.67 46.4737C267.971 41.8362 262.236 38.3837 255.938 36.4017C248.921 33.8801 241.4 33.083 234.01 34.0777C226.372 35.1333 219.356 38.8646 214.21 44.6077C208.898 50.6977 206.25 58.8537 204.438 66.5897C202.13 77.2659 200.797 88.13 200.456 99.0477C184.812 95.4296 168.948 92.8348 152.966 91.2797C142.662 90.2997 134.756 89.3917 126.366 95.7077C122.038 99.2029 118.214 103.279 115 107.82C106.336 119.842 105.852 121.76 98.6721 133.22C96.7249 135.748 95.2802 138.626 94.4161 141.698C94.19 142.88 94.2061 144.096 94.4636 145.272C94.7211 146.448 95.2146 147.56 95.9141 148.54C96.6272 149.381 97.5465 150.024 98.5821 150.404C94.4037 160.23 93.808 171.212 96.8988 181.433C99.9896 191.654 106.571 200.465 115.494 206.33C95.6621 207.614 66.1761 212.486 48.2401 219.866C48.1179 219.909 48.0057 219.977 47.9099 220.065C47.8141 220.152 47.7366 220.258 47.6821 220.376C47.5601 220.616 47.6101 220.912 47.5921 249.576C29.3261 263.318 21.6781 288.038 20.7921 310.558C20.3081 319.736 20.3101 328.942 20.3681 338.13C20.4041 343.964 20.9581 374.106 21.3221 381.102C21.3481 381.942 23.7461 383.102 24.5821 383.372C28.5343 384.552 32.5867 385.365 36.6881 385.802C103.334 393.534 234.966 389.736 234.928 381.102C234.928 378.468 233.482 327.702 233.252 321.934C235.138 315.484 255.148 240.7 256.73 234.696C261.672 252.944 284.886 342.122 286.564 348.134ZM205.35 70.6957C206.922 62.8057 209.16 54.5557 213.854 47.8957C226.962 29.9857 254.346 32.9297 269.954 46.2777C276.797 53.0483 282.855 60.5692 288.012 68.6977C301.35 90.1265 309.71 114.275 312.476 139.364C276.8 143.02 268.4 143.776 266.238 144.15C265.4 144.294 265.496 144.382 265.308 144.55C263.011 146.264 260.578 147.787 258.032 149.104C250.288 153.314 241.658 154.524 237.314 153.88C233.68 153.342 219.256 148.816 219.456 148.916C206.472 145.498 212.686 147.046 195.128 140.646C197.056 132.494 201.562 107.134 202.88 100.516C202.91 100.399 202.916 100.277 202.898 100.158C202.879 100.039 202.836 99.9246 202.771 99.8227C202.706 99.7209 202.621 99.6334 202.521 99.5658C202.422 99.4982 202.309 99.4518 202.19 99.4297C202.526 89.7863 203.583 80.1816 205.35 70.6957ZM202.052 145.036C206.048 146.782 210.164 148.237 214.37 149.39L201.908 150.664C202.025 148.79 202.073 146.913 202.052 145.036ZM133.694 168.17C134.22 169.057 134.962 169.797 135.85 170.322C136.738 170.846 137.745 171.138 138.776 171.17C141.592 171.414 143.776 170.142 148.048 168.57C151.032 171.383 153.817 174.4 156.382 177.6C153.556 179.431 150.596 181.046 147.526 182.43C146.508 182.892 147.39 184.39 148.404 183.932C151.558 182.512 154.595 180.845 157.486 178.948C158.455 180.156 159.418 181.369 160.374 182.588C160.537 182.751 160.758 182.842 160.989 182.842C161.22 182.842 161.441 182.751 161.604 182.588C161.763 182.423 161.852 182.202 161.852 181.973C161.852 181.743 161.763 181.523 161.604 181.358C160.705 180.218 159.803 179.08 158.896 177.946C160.423 176.981 161.67 175.632 162.513 174.034C163.355 172.436 163.763 170.645 163.696 168.84C163.632 167.71 163.187 166.636 162.435 165.791C161.683 164.946 160.667 164.38 159.552 164.186C158.424 164.069 157.284 164.136 156.178 164.386C153.565 164.931 150.993 165.653 148.478 166.548C146.792 165.012 145.078 163.512 143.376 161.99H143.356C143.887 161.886 144.409 161.746 144.92 161.57C150.828 159.488 154.12 153.002 154.746 146.61C155.772 152.682 157.346 159.566 162.86 162.252C164.681 163.123 166.749 163.332 168.707 162.842C170.665 162.353 172.392 161.195 173.588 159.57C177.038 155.4 177.2 149.46 177.4 144.06C181.461 150.197 183.904 157.261 184.503 164.595C185.103 171.93 183.838 179.297 180.828 186.012C175.178 194.839 166.56 201.356 156.528 204.389C146.497 207.422 135.711 206.77 126.117 202.551C116.524 198.332 108.753 190.825 104.208 181.381C99.6618 171.938 98.6399 161.182 101.326 151.052C104.88 151.254 108.387 150.157 111.192 147.966C116.886 143.739 121.905 138.673 126.078 132.94L129.334 146.8C130.518 151.826 131.408 157.872 135.474 160.552C134.455 161.502 133.742 162.733 133.425 164.09C133.108 165.446 133.202 166.866 133.694 168.17ZM137 161.382C138.274 161.92 139.643 162.198 141.026 162.2C143.512 164.492 143.842 164.664 146.644 167.244C145.974 167.5 145.3 167.744 144.634 168.018C142.532 169.179 140.101 169.602 137.73 169.218C137.273 169.124 136.839 168.94 136.452 168.678C136.066 168.416 135.735 168.08 135.478 167.69C135.222 167.3 135.045 166.863 134.957 166.405C134.87 165.946 134.873 165.475 134.968 165.018C135.308 163.646 136.01 162.39 137 161.382ZM149.904 167.884C152.357 167.054 154.866 166.399 157.412 165.924C158.477 165.684 159.593 165.839 160.552 166.36C163.038 168.032 162.552 173.256 157.8 176.588C155.369 173.511 152.731 170.603 149.904 167.884ZM177.43 141.066C177.43 139.284 177.372 137.504 177.268 135.734C184.43 138.534 192.304 141.534 200.31 144.364C200.342 152.088 200.224 151.704 198.232 158.6C196.932 163.092 184.158 203.818 181.946 210.686C175.45 209.814 168.941 209.042 162.418 208.372C168.166 205.259 173.18 200.95 177.12 195.735C181.06 190.519 183.836 184.519 185.259 178.139C186.682 171.759 186.719 165.148 185.369 158.752C184.018 152.357 181.311 146.326 177.43 141.066ZM96.0101 143.352C96.0401 140.254 97.8101 137.842 99.4101 135.328C107.704 122.198 114.686 108.528 125.454 98.6617C129.532 94.8947 134.798 92.6719 140.342 92.3777C143.553 92.2752 146.767 92.3981 149.96 92.7457C167.158 94.261 184.226 97.0012 201.034 100.946C200.166 105.376 193.986 137.868 193.48 140.048C187.819 137.952 182.179 135.801 176.56 133.596C176.431 133.561 176.296 133.556 176.165 133.582C176.033 133.607 175.91 133.663 175.804 133.744C175.697 133.825 175.611 133.929 175.552 134.049C175.492 134.168 175.461 134.3 175.46 134.434C175.695 137.991 175.743 141.559 175.606 145.122C175.783 149.104 175.038 153.074 173.428 156.722C171.716 159.878 168.228 162.284 164.558 161.08C156.664 158.48 156.71 145.37 154.758 136.354C154.696 136.157 154.566 135.989 154.392 135.879C154.217 135.769 154.01 135.724 153.806 135.752C153.601 135.779 153.414 135.878 153.275 136.031C153.136 136.183 153.056 136.38 153.048 136.586C153.566 141.275 153.278 146.018 152.196 150.61C151.732 152.457 150.9 154.192 149.749 155.71C148.599 157.228 147.155 158.499 145.502 159.446C143.936 160.31 142.143 160.675 140.364 160.49C138.585 160.305 136.905 159.58 135.55 158.412C132.98 155.812 132.428 152.32 131.216 147.178L127.318 130.642C127.285 130.531 127.229 130.428 127.156 130.338C127.082 130.249 126.992 130.175 126.89 130.12C126.788 130.066 126.676 130.032 126.56 130.021C126.445 130.01 126.329 130.022 126.218 130.056C125.104 130.4 124.55 134.08 113.572 143.898C111.456 145.838 109.042 147.425 106.422 148.6C105.182 149.135 103.843 149.401 102.493 149.381C101.142 149.361 99.8117 149.055 98.5881 148.484C97.7249 147.951 97.0267 147.189 96.5714 146.283C96.1162 145.377 95.9218 144.362 96.0101 143.352ZM113.14 202.518C106.244 196.986 101.177 189.504 98.5997 181.048C96.0225 172.592 96.0554 163.555 98.6941 155.118C97.2254 164.503 98.7168 174.113 102.961 182.612C107.205 191.111 113.991 198.077 122.377 202.542C130.762 207.007 140.33 208.749 149.75 207.526C159.171 206.303 167.977 202.175 174.944 195.718L174.92 195.742C167.626 204.833 157.019 210.654 145.433 211.924C133.848 213.195 122.231 209.811 113.14 202.518ZM80.1141 212.822C92.6483 210.24 105.36 208.61 118.14 207.946C124.404 211.494 131.416 213.513 138.607 213.839C145.799 214.165 152.965 212.788 159.524 209.822C172.794 211.12 190.924 213.382 203.862 215.89C187.227 227.566 168.148 235.295 148.076 238.49C111.83 245.09 83.3581 238.53 50.5441 220.842C60.1459 217.305 70.0409 214.621 80.1141 212.822ZM49.3441 222.162C84.1081 241.266 112.956 245.87 144.416 240.814C166.284 237.935 187.127 229.797 205.16 217.098C205.148 225.964 205.066 234.828 205.062 243.698C171.114 264.24 124.966 274.698 83.8001 264.44C71.5995 261.386 59.9798 256.359 49.4001 249.558C49.4201 248.882 49.3221 248.02 49.3241 247.536C49.3441 237.866 49.3441 230.482 49.3441 222.162ZM23.0881 303.4C24.9581 285.946 30.7641 267.96 43.2781 255.556C44.8921 253.896 46.6638 252.398 48.5681 251.082C67.6749 263.13 89.7157 269.716 112.3 270.128C145.219 270.773 177.656 262.141 205.9 245.22C216.434 252.066 222.9 263.59 226.244 275.452C229.718 287.744 230.458 300.73 231.14 313.428C231.61 322.138 233.122 377.698 233.14 378.456C230.109 377.379 226.981 376.597 223.8 376.12C227.24 368.197 228.318 359.45 226.905 350.929C225.491 342.409 221.647 334.478 215.834 328.09C219.618 320.588 221.091 312.132 220.068 303.793C219.044 295.453 215.571 287.605 210.086 281.24C204.593 274.897 197.464 270.185 189.476 267.617C181.488 265.049 172.948 264.724 164.788 266.678C156.219 268.622 148.428 273.084 142.415 279.491C136.403 285.898 132.443 293.957 131.046 302.632C122.027 302.61 113.211 305.302 105.742 310.358C98.2738 315.413 92.4988 322.599 89.1681 330.98C89.0461 331.28 89.3521 331.21 87.5021 330.472C80.2915 327.639 72.4707 326.72 64.7999 327.804C57.1291 328.888 49.8691 331.938 43.7255 336.657C37.5819 341.377 32.7637 347.605 29.739 354.737C26.7144 361.869 25.5862 369.663 26.4641 377.36C25.2663 377.654 24.1011 378.068 22.9861 378.596C22.4001 361.494 21.2621 320.456 23.0881 303.4ZM186.77 353.898C183.616 352.324 180.11 351.098 179.024 348.044C178.7 347.169 178.734 346.201 179.119 345.351C179.505 344.501 180.21 343.838 181.082 343.506C182.903 342.837 184.865 342.648 186.78 342.958C186.582 346.8 186.774 349.708 186.77 353.898ZM187.156 370.166C188.957 370.664 190.859 370.658 192.657 370.147C194.454 369.636 196.075 368.641 197.344 367.27C198.119 366.357 198.54 365.196 198.529 363.999C198.519 362.802 198.077 361.648 197.286 360.75C196.485 359.894 195.583 359.138 194.6 358.498C192.651 357.134 190.617 355.895 188.51 354.79C188.51 350.666 188.31 346.924 188.498 343.19C191.389 343.61 194.228 344.329 196.97 345.336C198.022 345.722 198.476 344.04 197.432 343.66C194.579 342.61 191.62 341.872 188.608 341.46C188.72 340.122 188.908 338.792 189.172 337.476C189.394 336.382 187.718 335.916 187.494 337.012C187.217 338.414 187.017 339.83 186.894 341.254C185.46 341.101 184.013 341.12 182.584 341.31C181.654 341.415 180.756 341.707 179.942 342.169C179.128 342.63 178.416 343.252 177.848 343.996C177.303 344.951 177.044 346.043 177.1 347.142C177.156 348.241 177.525 349.3 178.164 350.196C180.088 352.97 183.226 354.024 186.764 355.846C186.7 359.945 186.354 364.036 185.728 368.088C182.528 367.27 179.397 366.205 176.362 364.902C176.162 364.791 175.926 364.762 175.705 364.82C175.484 364.878 175.293 365.019 175.172 365.214C175.115 365.312 175.077 365.422 175.062 365.535C175.046 365.648 175.053 365.763 175.083 365.874C175.112 365.984 175.162 366.088 175.232 366.179C175.301 366.27 175.387 366.346 175.486 366.404C178.725 367.801 182.069 368.944 185.486 369.822C185.35 370.708 185.184 371.714 185.036 372.61C173.694 372.052 159.262 371.592 141.454 371.41C138.285 361.484 138.812 350.746 142.938 341.178C147.064 331.61 154.511 323.857 163.906 319.349C173.3 314.842 184.008 313.883 194.053 316.651C204.099 319.419 212.804 325.726 218.564 334.41C212.737 327.595 204.844 322.869 196.086 320.949C187.327 319.029 178.182 320.021 170.038 323.774C161.403 327.519 154.117 333.811 149.155 341.809C144.193 349.807 141.792 359.13 142.272 368.53C142.342 369.642 144.082 369.65 144.012 368.53C143.553 359.947 145.592 351.416 149.882 343.968C154.172 336.52 160.529 330.476 168.184 326.568C174.733 323.067 182.119 321.44 189.532 321.863C196.946 322.286 204.099 324.745 210.206 328.968C218.172 334.788 223.635 343.411 225.496 353.1C226.449 360.85 225.269 368.714 222.082 375.844C211.648 374.294 197.238 373.244 186.764 372.698C186.874 371.878 187.032 370.962 187.156 370.166ZM187.414 368.448C188.035 364.585 188.398 360.686 188.5 356.776C190.52 357.863 192.465 359.082 194.324 360.426C195.23 361.003 195.988 361.786 196.536 362.71C198.12 365.826 193.482 369.86 187.414 368.448ZM129.248 338.988C131.502 337.141 133.945 335.538 136.536 334.206C137.536 333.692 136.652 332.19 135.658 332.704C132.958 334.111 130.412 335.793 128.058 337.724C127.152 336.75 126.303 335.725 125.514 334.654C124.862 333.756 123.352 334.624 124.012 335.532C124.859 336.685 125.773 337.787 126.748 338.834C123.428 341.634 120.916 346.2 123.748 349.434C124.565 350.243 125.568 350.839 126.669 351.169C127.77 351.5 128.935 351.555 130.062 351.33C132.597 350.721 135.067 349.869 137.438 348.788C137.704 349.036 137.974 349.28 138.238 349.532L138.264 349.548C136.29 359.498 138.506 370.164 139.304 371.348C124.382 371.216 109.144 371.36 95.1441 371.72C89.1727 362.963 86.6661 352.3 88.1101 341.8C89.6286 330.503 95.5501 320.264 104.584 313.314C113.619 306.364 125.034 303.266 136.342 304.696C146.036 305.906 155.022 310.404 161.8 317.44L161.6 317.546C161.576 317.5 161.546 317.459 161.51 317.422C156.014 313.183 149.543 310.392 142.688 309.305C135.833 308.218 128.816 308.87 122.278 311.2C98.4961 319.456 85.3861 345.42 93.3221 368.352C93.6861 369.402 95.3681 368.952 95.0001 367.89C87.5321 346.142 99.3861 322.474 120.4 313.758C126.836 310.998 133.885 309.978 140.839 310.801C147.794 311.624 154.41 314.26 160.024 318.446C149.601 324.663 142.041 334.73 138.976 346.474C138.704 346.45 138.576 346.542 137.858 346.798C134.986 344.2 131.964 341.74 129.248 338.988ZM136.032 347.502C132.546 348.902 128.588 350.83 125.672 348.838C124.911 348.236 124.411 347.366 124.273 346.406C124.136 345.446 124.372 344.47 124.934 343.68C125.721 342.32 126.74 341.109 127.944 340.1C130.506 342.698 133.314 345.054 136.032 347.502ZM29.8001 376.13C30.0294 376.125 30.248 376.032 30.4102 375.87C30.5724 375.708 30.6655 375.489 30.6701 375.26C34.2301 348.232 61.6221 329.46 86.3761 338.336C86.4867 338.376 86.6046 338.393 86.7221 338.386C84.3293 349.859 86.4281 361.813 92.5861 371.786C76.7201 372.216 43.7861 373.51 28.1641 376.938C27.3433 369.427 28.5086 361.833 31.5433 354.914C34.578 347.996 39.3759 341.995 45.4571 337.512C51.5384 333.029 58.69 330.221 66.1969 329.369C73.7037 328.516 81.3027 329.65 88.2341 332.656C86.6921 337.338 87.3181 336.856 86.8341 336.656C60.1461 327.3 32.2041 347.986 28.9261 375.256C28.9261 375.487 29.0182 375.71 29.1821 375.874C29.346 376.038 29.5683 376.13 29.8001 376.13ZM208.772 284.104C186.832 262.286 147.916 272.23 136.806 302.174C136.49 302.998 138.006 302.59 132.886 302.254C134.236 294.581 137.683 287.431 142.847 281.597C148.01 275.763 154.688 271.472 162.14 269.2C172.373 265.915 183.458 266.521 193.272 270.902C203.085 275.282 210.938 283.129 215.326 292.94C213.577 289.694 211.368 286.718 208.768 284.104H208.772ZM217.188 302.41C219.489 310.461 218.586 319.09 214.668 326.49C212.698 324.673 210.591 323.011 208.366 321.518C202.05 317.074 194.691 314.34 187.005 313.583C179.319 312.826 171.568 314.071 164.506 317.198L164.374 317.248C158.101 310.446 149.962 305.646 140.974 303.448C137.796 302.68 138.286 303.128 138.484 302.648C141.061 295.886 145.253 289.856 150.694 285.086C156.136 280.315 162.661 276.948 169.702 275.278C191 270.13 212.044 281.906 217.184 302.41H217.188ZM232.078 381.35C211.59 390.388 44.6041 390.586 24.1181 381.318C23.9861 381.254 23.0861 380.8 23.1021 380.656C23.1201 380.456 24.0821 379.998 24.2581 379.918C46.6581 370.568 213.708 371.038 232.146 379.984C233.576 380.676 233.42 380.756 232.074 381.35H232.078ZM255.894 231.078C252.124 245.164 237.124 302.052 233.022 316.192C231.854 289.086 229.476 258.446 206.806 243.73C206.816 223.37 207.006 217.516 206.898 215.684C206.846 214.778 206.376 214.44 205.936 214.518C198.576 213.034 191.136 211.934 183.694 210.918C185.346 205.776 197.648 166.74 199.094 161.822C201.398 154.038 200.828 155.714 201.73 152.422L219.21 150.634C219.136 150.634 230.21 153.916 233.474 154.782C238.456 156.24 244.418 156.51 253.612 152.982C258.23 151.209 262.575 148.793 266.518 145.806C278.626 144.576 293.654 143.036 301.718 142.206C305.392 141.858 309.084 141.558 312.74 141.078C314.838 152.372 317.432 163.57 320.182 174.72C323.474 188.064 361.944 327.92 362.138 328.74C357.626 330.28 353.093 331.746 348.538 333.14C308.628 177.282 310.098 185.556 303.816 146.94C303.638 145.838 301.962 146.306 302.14 147.402C307.26 178.89 309.306 187.078 317.634 219.602C320.728 231.68 346.468 332.132 346.858 333.638C327.591 339.442 307.938 343.878 288.046 346.912C284.952 335.792 260.76 242.796 257.576 231.066C257.523 230.882 257.411 230.722 257.258 230.607C257.105 230.493 256.919 230.432 256.729 230.434C256.538 230.435 256.353 230.499 256.201 230.615C256.05 230.731 255.941 230.894 255.89 231.078H255.894Z" fill="black"/>
<path d="M257.456 225.574C254.703 215.085 251.531 204.71 247.946 194.476C247.578 193.426 245.896 193.876 246.268 194.94C252.05 211.446 254.868 222.854 255.778 226.036C255.839 226.258 255.987 226.447 256.187 226.561C256.388 226.675 256.626 226.705 256.848 226.644C257.071 226.582 257.26 226.435 257.374 226.235C257.488 226.034 257.517 225.796 257.456 225.574Z" fill="black"/>
<path d="M204.874 101.958C213.431 103.01 221.932 104.442 230.376 106.254C230.894 106.378 232 105.554 232.092 105.254C237.474 89.3045 244.885 74.1133 254.142 60.0539C254.76 59.1159 253.254 58.2419 252.64 59.1759C243.366 73.2834 235.93 88.5173 230.514 104.508C222.034 102.704 213.487 101.273 204.874 100.216C204.644 100.218 204.424 100.31 204.261 100.473C204.098 100.636 204.006 100.856 204.004 101.086C204.008 101.315 204.102 101.534 204.264 101.697C204.426 101.859 204.644 101.953 204.874 101.958Z" fill="black"/>
<path d="M271.898 140.862C278.385 131.383 284.254 121.496 289.468 111.262C289.976 110.262 288.468 109.386 287.966 110.384C282.749 120.616 276.88 130.503 270.396 139.984C269.764 140.91 271.27 141.782 271.898 140.862Z" fill="black"/>
<path d="M322.2 117.874C322.386 118.976 324.062 118.508 323.878 117.412C321.589 103.758 317.372 90.4992 311.352 78.0321C309.666 74.5321 307.894 71.0721 305.872 67.7501C305.754 67.5546 305.563 67.4136 305.342 67.3573C305.121 67.3011 304.886 67.3342 304.689 67.4495C304.492 67.5648 304.348 67.753 304.288 67.9735C304.228 68.194 304.258 68.4291 304.37 68.6281C313.204 83.8482 319.242 100.526 322.2 117.874Z" fill="black"/>
<path d="M331.265 117.662C330.272 97.2122 324.06 77.3571 313.221 59.9879C312.621 59.0399 311.123 59.9119 311.719 60.8659C322.403 77.9696 328.531 97.5236 329.519 117.666C329.579 118.778 331.319 118.784 331.265 117.662Z" fill="black"/>
</svg>
