<svg width="438" height="438" viewBox="0 0 438 438" fill="none" xmlns="http://www.w3.org/2000/svg">
<mask id="path-1-inside-1_23_326" fill="white">
<path fill-rule="evenodd" clip-rule="evenodd" d="M219 61C204.611 61 191.12 64.8471 179.5 71.5688C167.88 64.8471 154.389 61 140 61C96.3695 61 61 96.3695 61 140C61 154.389 64.8471 167.88 71.5688 179.5C64.8471 191.12 61 204.611 61 219C61 232.571 64.422 245.343 70.4503 256.5C64.422 267.657 61 280.429 61 294C61 337.63 96.3695 373 140 373C152.986 373 165.241 369.867 176.048 364.315C188.413 372.339 203.162 377 219 377C234.838 377 249.587 372.339 261.952 364.315C272.759 369.867 285.014 373 298 373C341.63 373 377 337.63 377 294C377 280.429 373.578 267.657 367.55 256.5C373.578 245.343 377 232.571 377 219C377 204.611 373.153 191.12 366.431 179.5C373.153 167.88 377 154.389 377 140C377 96.3695 341.63 61 298 61C283.611 61 270.12 64.8471 258.5 71.5688C246.88 64.8471 233.389 61 219 61Z"/>
</mask>
<path fill-rule="evenodd" clip-rule="evenodd" d="M219 61C204.611 61 191.12 64.8471 179.5 71.5688C167.88 64.8471 154.389 61 140 61C96.3695 61 61 96.3695 61 140C61 154.389 64.8471 167.88 71.5688 179.5C64.8471 191.12 61 204.611 61 219C61 232.571 64.422 245.343 70.4503 256.5C64.422 267.657 61 280.429 61 294C61 337.63 96.3695 373 140 373C152.986 373 165.241 369.867 176.048 364.315C188.413 372.339 203.162 377 219 377C234.838 377 249.587 372.339 261.952 364.315C272.759 369.867 285.014 373 298 373C341.63 373 377 337.63 377 294C377 280.429 373.578 267.657 367.55 256.5C373.578 245.343 377 232.571 377 219C377 204.611 373.153 191.12 366.431 179.5C373.153 167.88 377 154.389 377 140C377 96.3695 341.63 61 298 61C283.611 61 270.12 64.8471 258.5 71.5688C246.88 64.8471 233.389 61 219 61Z" fill="#CCEAFF"/>
<path d="M179.5 71.5688L178.749 72.8672L179.5 73.3017L180.251 72.8672L179.5 71.5688ZM71.5688 179.5L72.8672 180.251L73.3017 179.5L72.8672 178.749L71.5688 179.5ZM70.4503 256.5L71.77 257.213L72.1553 256.5L71.77 255.787L70.4503 256.5ZM176.048 364.315L176.865 363.056L176.136 362.583L175.363 362.98L176.048 364.315ZM261.952 364.315L262.637 362.98L261.864 362.583L261.135 363.056L261.952 364.315ZM367.55 256.5L366.23 255.787L365.845 256.5L366.23 257.213L367.55 256.5ZM366.431 179.5L365.133 178.749L364.698 179.5L365.133 180.251L366.431 179.5ZM258.5 71.5688L257.749 72.8672L258.5 73.3017L259.251 72.8672L258.5 71.5688ZM180.251 72.8672C191.649 66.274 204.881 62.5 219 62.5V59.5C204.34 59.5 190.591 63.4202 178.749 70.2704L180.251 72.8672ZM140 62.5C154.119 62.5 167.351 66.274 178.749 72.8672L180.251 70.2704C168.409 63.4202 154.66 59.5 140 59.5V62.5ZM62.5 140C62.5 97.1979 97.1979 62.5 140 62.5V59.5C95.5411 59.5 59.5 95.5411 59.5 140H62.5ZM72.8672 178.749C66.274 167.351 62.5 154.119 62.5 140H59.5C59.5 154.66 63.4202 168.409 70.2704 180.251L72.8672 178.749ZM62.5 219C62.5 204.881 66.274 191.649 72.8672 180.251L70.2704 178.749C63.4202 190.591 59.5 204.34 59.5 219H62.5ZM71.77 255.787C65.8571 244.844 62.5 232.316 62.5 219H59.5C59.5 232.826 62.9869 245.843 69.1306 257.213L71.77 255.787ZM62.5 294C62.5 280.684 65.8571 268.156 71.77 257.213L69.1306 255.787C62.9869 267.157 59.5 280.174 59.5 294H62.5ZM140 371.5C97.1979 371.5 62.5 336.802 62.5 294H59.5C59.5 338.459 95.5411 374.5 140 374.5V371.5ZM175.363 362.98C164.762 368.426 152.742 371.5 140 371.5V374.5C153.23 374.5 165.719 371.307 176.734 365.649L175.363 362.98ZM219 375.5C203.46 375.5 188.993 370.928 176.865 363.056L175.232 365.573C187.832 373.751 202.863 378.5 219 378.5V375.5ZM261.135 363.056C249.007 370.928 234.54 375.5 219 375.5V378.5C235.137 378.5 250.168 373.751 262.768 365.573L261.135 363.056ZM298 371.5C285.258 371.5 273.238 368.426 262.637 362.98L261.266 365.649C272.281 371.307 284.77 374.5 298 374.5V371.5ZM375.5 294C375.5 336.802 340.802 371.5 298 371.5V374.5C342.459 374.5 378.5 338.459 378.5 294H375.5ZM366.23 257.213C372.143 268.156 375.5 280.684 375.5 294H378.5C378.5 280.174 375.013 267.157 368.869 255.787L366.23 257.213ZM375.5 219C375.5 232.316 372.143 244.844 366.23 255.787L368.869 257.213C375.013 245.843 378.5 232.826 378.5 219H375.5ZM365.133 180.251C371.726 191.649 375.5 204.881 375.5 219H378.5C378.5 204.34 374.58 190.591 367.73 178.749L365.133 180.251ZM375.5 140C375.5 154.119 371.726 167.351 365.133 178.749L367.73 180.251C374.58 168.409 378.5 154.66 378.5 140H375.5ZM298 62.5C340.802 62.5 375.5 97.1979 375.5 140H378.5C378.5 95.5411 342.459 59.5 298 59.5V62.5ZM259.251 72.8672C270.649 66.274 283.881 62.5 298 62.5V59.5C283.34 59.5 269.591 63.4202 257.749 70.2704L259.251 72.8672ZM219 62.5C233.119 62.5 246.351 66.274 257.749 72.8672L259.251 70.2704C247.409 63.4202 233.66 59.5 219 59.5V62.5Z" fill="black" mask="url(#path-1-inside-1_23_326)"/>
<rect x="234.368" y="78.901" width="102.5" height="129.5" transform="rotate(13.1525 234.368 78.901)" fill="#FFD2D2" stroke="black" stroke-width="1.5"/>
<rect x="252.713" y="167.397" width="25.5" height="47.5" transform="rotate(13.1525 252.713 167.397)" fill="#CCEAFF" stroke="black" stroke-width="1.5"/>
<rect x="244.424" y="101.79" width="17.5" height="21.5" transform="rotate(13.1525 244.424 101.79)" fill="#CCEAFF" stroke="black" stroke-width="1.5"/>
<rect x="290.181" y="143.29" width="17.5" height="21.5" transform="rotate(13.1525 290.181 143.29)" fill="#CCEAFF" stroke="black" stroke-width="1.5"/>
<rect x="89.0245" y="231.775" width="83.5" height="83.5" transform="rotate(-30 89.0245 231.775)" fill="#C0C195" stroke="black" stroke-width="1.5"/>
<rect x="141.371" y="260.442" width="22.5" height="32.5" transform="rotate(-30 141.371 260.442)" fill="#CCEAFF" stroke="black" stroke-width="1.5"/>
<rect x="239.822" y="282.901" width="86.5" height="43.5" transform="rotate(13.1827 239.822 282.901)" fill="#FC9070" stroke="black" stroke-width="1.5"/>
<path d="M234.276 305.481L318.984 325.322" stroke="black" stroke-width="1.5"/>
<path d="M261.051 311.753L266.183 289.846" stroke="black" stroke-width="1.5"/>
<path d="M242.859 328.034L247.42 308.561" stroke="black" stroke-width="1.5"/>
<path d="M272.069 334.875L276.63 315.402" stroke="black" stroke-width="1.5"/>
<path d="M301.278 341.717L305.839 322.244" stroke="black" stroke-width="1.5"/>
<path d="M290.261 318.595L295.393 296.688" stroke="black" stroke-width="1.5"/>
<path d="M289 268.5L288.443 267.998L289 268.5ZM232.47 232.47C232.177 232.763 232.177 233.237 232.47 233.53L237.243 238.303C237.536 238.596 238.01 238.596 238.303 238.303C238.596 238.01 238.596 237.536 238.303 237.243L234.061 233L238.303 228.757C238.596 228.464 238.596 227.99 238.303 227.697C238.01 227.404 237.536 227.404 237.243 227.697L232.47 232.47ZM268.429 256.502L267.795 256.102L268.429 256.502ZM265.608 281.94C268.457 278.002 272.317 271.951 274.614 266.609C275.757 263.951 276.549 261.388 276.587 259.319C276.607 258.277 276.436 257.301 275.968 256.494C275.488 255.667 274.732 255.081 273.712 254.781L273.288 256.22C273.968 256.42 274.398 256.777 274.671 257.247C274.955 257.737 275.104 258.413 275.088 259.291C275.055 261.06 274.36 263.404 273.236 266.017C271 271.216 267.21 277.165 264.392 281.061L265.608 281.94ZM273.712 254.781C272.256 254.353 271.039 254.268 270.041 254.509C269.02 254.755 268.281 255.331 267.795 256.102L269.063 256.902C269.348 256.45 269.763 256.119 270.393 255.967C271.047 255.809 271.98 255.835 273.288 256.22L273.712 254.781ZM274.512 267.593C277.241 268.856 280.232 269.975 282.885 270.42C285.482 270.856 288.037 270.691 289.557 269.002L288.443 267.998C287.478 269.07 285.65 269.363 283.133 268.941C280.672 268.528 277.82 267.472 275.142 266.231L274.512 267.593ZM289.557 269.002C290.819 267.6 292.176 264.586 292.459 260.901C292.744 257.182 291.942 252.718 288.792 248.431C282.505 239.876 267.052 232.25 233 232.25V233.75C266.948 233.75 281.745 241.374 287.583 249.319C290.496 253.282 291.225 257.381 290.963 260.786C290.699 264.227 289.431 266.9 288.443 267.998L289.557 269.002ZM267.795 256.102C266.323 258.438 267.036 260.901 268.513 262.896C269.987 264.886 272.317 266.576 274.512 267.593L275.142 266.231C273.118 265.294 271.009 263.746 269.719 262.003C268.432 260.265 268.056 258.5 269.063 256.902L267.795 256.102Z" fill="black"/>
<path d="M204.031 126.03C204.324 125.737 204.324 125.263 204.031 124.97L199.258 120.197C198.965 119.904 198.49 119.904 198.197 120.197C197.904 120.49 197.904 120.964 198.197 121.257L202.44 125.5L198.197 129.743C197.904 130.036 197.904 130.51 198.197 130.803C198.49 131.096 198.965 131.096 199.258 130.803L204.031 126.03ZM127.198 197.726C122.502 185.779 120.706 167.93 130.415 153.098C140.105 138.296 161.423 126.25 203.5 126.25V124.75C161.178 124.75 139.245 136.871 129.16 152.277C119.094 167.654 120.999 186.055 125.802 198.274L127.198 197.726Z" fill="black"/>
</svg>
