<svg id="Capa_1" data-name="Capa 1" xmlns="http://www.w3.org/2000/svg" xmlns:xlink="http://www.w3.org/1999/xlink" viewBox="0 0 64 64"><defs><style>.cls-1{fill:#00a5e0;}.cls-2{fill:#ff4c3b;}.cls-3{clip-path:url(#clip-path);}.cls-4{fill:#9fc43c;}.cls-5{clip-path:url(#clip-path-2);}</style><clipPath id="clip-path"><path class="cls-1" d="M54.16,35V26.08L32.6,8.25,10.51,26V37.52h3.14V27.47L32.57,12.3,51,27.56v6.37a15.1,15.1,0,0,0-3.1-.33,14.87,14.87,0,0,0-12.22,6.34H8.45L3.35,45H3.3v.05L1.08,47.31,9.75,56l3.42-3.41L17,56.37,20.35,53l3.22,3.22L26.84,53l4.25,4.25h.64l4,0A15,15,0,1,0,54.16,35ZM9.75,51.54,6.39,48.18H13.1Zm38.18,8.9a11.78,11.78,0,0,1-10-5.59l-.46-.74h-.87l-4.15,0-5.56-5.56-3.27,3.27-3.22-3.22L17,51.93l-3.75-3.75H35.75V45h-28l2-2H37.42l.46-.73a11.84,11.84,0,1,1,10,18.1Z"/></clipPath><clipPath id="clip-path-2"><polygon class="cls-2" points="32.45 4.47 46.14 16.03 46.14 7 43 7 43 9.27 32.52 0.42 5.95 21.53 7.9 23.98 32.45 4.47"/></clipPath></defs><title>icono-card-1</title><path class="cls-1" d="M51.48,53.89a5.3,5.3,0,1,1,5.3-5.3A5.31,5.31,0,0,1,51.48,53.89Zm0-7.46a2.16,2.16,0,1,0,2.16,2.16A2.16,2.16,0,0,0,51.48,46.43Z"/><polygon class="cls-2" points="48.95 17.82 57.1 25.02 59.18 22.67 52.08 16.4 52.08 1.67 42.89 1.67 42.89 4.81 48.95 4.81 48.95 17.82"/><path class="cls-1" d="M54.16,35V26.08L32.6,8.25,10.51,26V37.52h3.14V27.47L32.57,12.3,51,27.56v6.37a15.1,15.1,0,0,0-3.1-.33,14.87,14.87,0,0,0-12.22,6.34H8.45L3.35,45H3.3v.05L1.08,47.31,9.75,56l3.42-3.41L17,56.37,20.35,53l3.22,3.22L26.84,53l4.25,4.25h.64l4,0A15,15,0,1,0,54.16,35ZM9.75,51.54,6.39,48.18H13.1Zm38.18,8.9a11.78,11.78,0,0,1-10-5.59l-.46-.74h-.87l-4.15,0-5.56-5.56-3.27,3.27-3.22-3.22L17,51.93l-3.75-3.75H35.75V45h-28l2-2H37.42l.46-.73a11.84,11.84,0,1,1,10,18.1Z"/><g class="cls-3"><path class="cls-4" d="M32.61,37.89V-5.71L-2.1,23.09V38.78S32.73,37.77,32.61,37.89Z"/></g><polygon class="cls-2" points="32.45 4.47 46.14 16.03 46.14 7 43 7 43 9.27 32.52 0.42 5.95 21.53 7.9 23.98 32.45 4.47"/><g class="cls-5"><polygon class="cls-4" points="32.19 -5.08 32.19 38.53 5.37 38.53 -9.61 23.55 32.19 -5.08"/></g></svg>