<svg width="400" height="400" viewBox="0 0 400 400" fill="none" xmlns="http://www.w3.org/2000/svg">
<path d="M307.625 115.164H309.493C310.349 116.62 311.187 118.087 312.007 119.564H310.169C309.338 118.087 308.49 116.62 307.625 115.164Z" fill="#FF4848"/>
<path d="M303.469 108.482H305.377C306.46 110.161 307.516 111.853 308.545 113.56H306.665C305.626 111.853 304.561 110.161 303.469 108.482Z" fill="#FF4848"/>
<path d="M208.968 78.878C208.33 87.196 210.152 95.478 212.066 103.528C214.551 113.999 217.718 124.295 221.548 134.352C221.042 134.512 220.548 134.686 220.028 134.828C214.45 120.486 210.365 105.608 207.838 90.428C206.792 83.156 206.728 75.29 209.864 68.484C211.422 65.1635 213.77 62.2755 216.703 60.0726C219.635 57.8697 223.063 56.4192 226.686 55.848C252.122 51.638 281.8 76.174 297.452 97.18V99.832C261.572 51.012 211.666 43.756 208.968 78.878Z" fill="#FF4848"/>
<path d="M10.1729 299.2C10.1984 297.158 10.8789 295.177 12.1142 293.551C13.3494 291.924 15.0743 290.737 17.0349 290.164C17.0801 290.16 17.1256 290.16 17.1709 290.164C17.196 290.153 17.2221 290.144 17.2489 290.138C22.0229 289.5 26.5789 293.004 30.1789 296.238C25.5229 289.456 20.9029 282.622 16.8709 275.494C11.9349 266.766 8.42486 255.946 12.6289 246.204C16.2289 237.844 25.0869 233.474 33.8669 233.15C43.9269 232.778 53.1909 237.818 60.7929 243.972C67.1178 249.102 72.9067 254.859 78.0709 261.156C73.4869 252.765 69.3089 244.17 65.5369 235.37C63.1829 229.862 60.6849 223.876 61.9629 217.77C62.3456 215.331 63.4956 213.077 65.2459 211.336C66.9962 209.594 69.2558 208.456 71.6969 208.086C76.9209 207.462 81.3589 210.014 85.1749 213.286C81.7989 207.214 78.7309 200.416 79.6209 193.634C80.6729 185.602 87.0209 179.082 95.4949 180.894C97.6769 181.366 99.7436 182.267 101.575 183.544C90.6623 168.897 80.6838 153.577 71.6989 137.674C63.1389 122.454 56.8189 103.57 66.8729 87.4519C68.7244 84.2408 71.2512 81.47 74.2785 79.3311C77.3059 77.1922 80.7617 75.7363 84.4069 75.0639C93.6609 73.7259 102.783 78.3159 110.661 82.6339C141.261 99.4059 162.957 128.556 181.273 158.332C179.073 150.578 179.153 142.26 184.273 135.474C191.175 126.314 206.655 124.712 218.089 135.3C217.427 135.454 216.763 135.598 216.089 135.72C203.389 124.32 182.205 128.502 181.501 148.834C181.543 155.319 183.326 161.674 186.665 167.234C186.718 167.325 186.753 167.425 186.767 167.53C186.782 167.634 186.775 167.74 186.749 167.842C186.722 167.944 186.675 168.039 186.612 168.123C186.548 168.207 186.469 168.278 186.378 168.331C186.287 168.384 186.187 168.419 186.082 168.433C185.978 168.448 185.872 168.441 185.77 168.415C185.668 168.388 185.572 168.342 185.489 168.278C185.405 168.214 185.334 168.135 185.281 168.044C167.213 138.626 147.509 108.214 118.111 88.9839C110.681 84.1219 102.331 79.2839 93.6349 77.1659C89.639 76.1745 85.4476 76.3003 81.5184 77.5295C77.5892 78.7587 74.0733 81.0441 71.3549 84.1359C66.2168 89.9979 63.3271 97.4939 63.2009 105.288C63.0529 115.018 66.5709 124.402 70.9649 132.932C79.5269 149.548 97.3409 175.368 108.519 190.264C109.061 190.984 107.831 191.942 107.259 191.234C103.715 186.852 99.2769 182.574 93.3229 182.202C90.9157 182.097 88.5392 182.773 86.5478 184.13C84.5564 185.486 83.0569 187.45 82.2729 189.728C78.4729 199.17 84.7809 209.248 89.3109 217.278C89.4148 217.446 89.4526 217.647 89.4171 217.842C89.3817 218.036 89.2754 218.211 89.1188 218.332C88.9622 218.452 88.7663 218.511 88.5691 218.496C88.3719 218.481 88.1873 218.393 88.0509 218.25C83.9429 214.202 79.3189 209.6 73.1529 209.604C67.1769 209.604 63.5529 214.716 63.2309 220.29C62.8829 226.342 65.8849 232.264 68.2569 237.652C73.4614 249.468 79.4307 260.932 86.1269 271.972C86.6669 272.862 85.3129 273.63 84.7429 272.772C78.8064 263.993 71.8379 255.957 63.9869 248.838C56.7349 242.228 47.9869 235.956 37.9469 234.884C29.5249 233.984 19.9469 236.928 15.3249 244.454C9.66887 253.654 12.9769 265.082 17.7769 273.83C21.1489 279.972 26.6229 287.958 38.0389 304.896C38.5389 305.64 37.3349 306.594 36.7789 305.866C34.3419 302.623 31.5957 299.624 28.5789 296.912C25.5789 294.252 21.6489 291.244 17.4089 291.722C12.5529 292.812 11.0209 298.602 12.1229 302.906C13.4869 308.23 17.4809 312.892 20.5109 317.368C25.5109 324.744 30.8029 332.386 33.7309 340.882V346.094H33.5309C30.8929 334.224 23.1029 324.074 16.4329 314.178C13.4529 309.768 9.71687 304.846 10.1729 299.2Z" fill="#FF4848"/>
<path d="M297.452 120.362C297.455 120.151 297.54 119.949 297.69 119.8C297.839 119.65 298.041 119.565 298.252 119.562C374.982 119.012 371.582 119.41 371.914 119.85C372.23 120.186 372.114 109.912 372.114 346.104H297.452V120.362Z" fill="#43F7B2"/>
<path d="M207.467 171.298C207.467 171.086 207.551 170.883 207.701 170.733C207.851 170.582 208.054 170.498 208.267 170.498C284.997 169.954 281.599 170.346 281.929 170.786C282.239 171.114 282.129 163.288 282.129 346.104H207.201C207.201 335.35 207.401 180.446 207.467 171.298Z" fill="#43F7B2"/>
<path d="M121.75 244.454C198.502 243.906 195.074 244.302 195.41 244.744C195.72 245.072 195.61 237.892 195.61 346.102H120.948V245.256C120.951 245.044 121.036 244.842 121.186 244.692C121.336 244.542 121.538 244.457 121.75 244.454Z" fill="#FFC431"/>
<path d="M34.5303 316.096C44.0383 316.028 102.21 316.02 107.588 315.982C107.778 315.981 107.96 316.052 108.098 316.182C108.544 316.484 108.39 315.874 108.39 346.104H72.4943C69 346 71.5 346.104 70.8943 346.104H33.7323V316.904C33.7333 316.692 33.8174 316.488 33.9666 316.337C34.1157 316.186 34.3181 316.1 34.5303 316.096Z" fill="#FF4848"/>
<path d="M298.888 115.164C298.676 115.164 298.473 115.08 298.323 114.93C298.173 114.78 298.088 114.576 298.088 114.364C298.088 114.152 298.173 113.948 298.323 113.798C298.473 113.648 298.676 113.564 298.888 113.564H371.056C371.269 113.564 371.472 113.648 371.622 113.798C371.772 113.948 371.856 114.152 371.856 114.364C371.856 114.576 371.772 114.78 371.622 114.93C371.472 115.08 371.269 115.164 371.056 115.164H298.888Z" fill="#43F7B2"/>
<path d="M208 164.346H281.326C281.538 164.346 281.742 164.43 281.892 164.581C282.042 164.731 282.126 164.934 282.126 165.146C282.126 165.358 282.042 165.562 281.892 165.712C281.742 165.862 281.538 165.946 281.326 165.946H208C207.788 165.946 207.584 165.862 207.434 165.712C207.284 165.562 207.2 165.358 207.2 165.146C207.2 164.934 207.284 164.731 207.434 164.581C207.584 164.43 207.788 164.346 208 164.346Z" fill="#43F7B2"/>
<path d="M194.801 239.454H121.743C121.53 239.454 121.327 239.37 121.177 239.22C121.027 239.07 120.943 238.866 120.943 238.654C120.943 238.442 121.027 238.238 121.177 238.088C121.327 237.938 121.53 237.854 121.743 237.854H194.801C195.013 237.854 195.216 237.938 195.366 238.088C195.516 238.238 195.601 238.442 195.601 238.654C195.601 238.866 195.516 239.07 195.366 239.22C195.216 239.37 195.013 239.454 194.801 239.454Z" fill="#FFC431"/>
<path d="M194.801 230.768H121.743C121.53 230.768 121.327 230.684 121.177 230.534C121.027 230.384 120.943 230.18 120.943 229.968C120.943 229.756 121.027 229.552 121.177 229.402C121.327 229.252 121.53 229.168 121.743 229.168H194.801C195.013 229.168 195.216 229.252 195.366 229.402C195.516 229.552 195.601 229.756 195.601 229.968C195.601 230.18 195.516 230.384 195.366 230.534C195.216 230.684 195.013 230.768 194.801 230.768Z" fill="#FFC431"/>
<path d="M194.801 222.08H121.743C121.53 222.08 121.327 221.996 121.177 221.846C121.027 221.696 120.943 221.492 120.943 221.28C120.943 221.068 121.027 220.864 121.177 220.714C121.327 220.564 121.53 220.48 121.743 220.48H194.801C195.013 220.48 195.216 220.564 195.366 220.714C195.516 220.864 195.601 221.068 195.601 221.28C195.601 221.492 195.516 221.696 195.366 221.846C195.216 221.996 195.013 222.08 194.801 222.08Z" fill="#FFC431"/>
<path d="M107.589 312.29H34.5307C34.3185 312.29 34.115 312.206 33.965 312.056C33.815 311.906 33.7307 311.702 33.7307 311.49C33.7307 311.278 33.815 311.074 33.965 310.924C34.115 310.774 34.3185 310.69 34.5307 310.69H107.589C107.801 310.69 108.004 310.774 108.154 310.924C108.304 311.074 108.389 311.278 108.389 311.49C108.389 311.702 108.304 311.906 108.154 312.056C108.004 312.206 107.801 312.29 107.589 312.29Z" fill="#FF4848"/>
<path d="M183.033 200.896C165.517 215.896 141.433 216.926 121.347 207.096C120.419 206.644 121.231 205.26 122.147 205.712C138.473 213.712 158.647 214.61 175.477 204.43C177.444 203.211 179.333 201.871 181.133 200.416C182.857 199.083 184.287 197.408 185.333 195.496C185.763 194.56 187.169 195.384 186.719 196.306C185.816 198.071 184.561 199.633 183.033 200.896Z" fill="#FFC431"/>
<path d="M298.254 80.1502C298.254 80.1502 366.09 80.1122 371.314 80.1502C371.525 80.1533 371.727 80.2386 371.877 80.3879C372.026 80.5373 372.111 80.739 372.114 80.9502V107.68C372.111 107.891 372.026 108.093 371.877 108.242C371.727 108.392 371.525 108.477 371.314 108.48C294.56 109.02 297.986 108.632 297.652 108.192C297.358 107.88 297.252 109.456 297.452 80.9502C297.455 80.7386 297.541 80.5367 297.691 80.3872C297.841 80.2378 298.043 80.1528 298.254 80.1502Z" fill="#43F7B2"/>
<path d="M197.925 135.412C203.903 136.675 210.068 136.781 216.087 135.724C223.06 134.443 229.621 131.495 235.211 127.133C240.801 122.77 245.254 117.122 248.191 110.668C248.244 110.577 248.314 110.497 248.398 110.433C248.482 110.369 248.578 110.322 248.68 110.296C248.782 110.269 248.888 110.263 248.993 110.277C249.097 110.292 249.198 110.327 249.289 110.38C256.508 115.748 263.324 121.637 269.683 128C269.807 128.126 269.887 128.289 269.909 128.465C269.932 128.641 269.897 128.819 269.809 128.972C263.712 139.771 254.249 148.278 242.865 153.195C231.48 158.111 218.799 159.167 206.759 156.2C206.309 156.154 205.869 156.038 205.455 155.858C205.091 155.63 205.019 155.176 204.891 154.798C202.955 149.132 199.783 142.228 197.369 136.64C197.306 136.525 197.271 136.398 197.266 136.267C197.261 136.137 197.287 136.007 197.34 135.888C197.394 135.769 197.475 135.664 197.577 135.581C197.678 135.499 197.797 135.441 197.925 135.412Z" fill="#43F7B2"/>
<path d="M82.9406 145.09C85.2728 145.035 87.5561 144.41 89.5913 143.27C91.6265 142.129 93.3517 140.508 94.6166 138.548C98.9926 132.17 98.1546 122.6 95.6166 115.372C95.3946 114.74 96.0525 114.294 96.6025 114.386C103.855 115.607 111.013 117.331 118.027 119.544C118.675 119.838 118.851 120.744 119.075 121.382C120.802 126.361 121.504 131.637 121.139 136.894C120.879 142.75 118.576 148.33 114.631 152.664C112.686 154.994 110.231 156.846 107.457 158.078C104.683 159.309 101.663 159.887 98.6306 159.766C97.7146 159.676 98.0865 159.566 91.2965 153.566C88.473 151.069 85.5023 148.742 82.4006 146.6C82.241 146.501 82.1202 146.351 82.0582 146.174C81.9962 145.996 81.9969 145.803 82.0601 145.627C82.1233 145.45 82.2452 145.3 82.4054 145.203C82.5656 145.105 82.7545 145.065 82.9406 145.09Z" fill="#FF4848"/>
<path d="M113.516 182.702C113.516 182.702 120.596 171.302 120.9 170.806C121.01 170.625 121.186 170.494 121.391 170.44C121.596 170.386 121.814 170.414 121.998 170.518C124.843 172.462 127.807 174.225 130.872 175.798C132.932 176.904 135.139 177.712 137.426 178.198C140.256 178.656 143.159 178.244 145.75 177.019C148.342 175.793 150.501 173.81 151.942 171.332C152.004 171.226 152.089 171.135 152.191 171.067C152.294 170.999 152.41 170.956 152.532 170.94C152.654 170.924 152.778 170.937 152.894 170.977C153.01 171.017 153.116 171.083 153.202 171.17C158.002 175.868 164.24 178.786 170.214 181.696C170.337 181.764 170.44 181.865 170.51 181.987C170.581 182.108 170.617 182.247 170.614 182.388C170.32 194.016 159.162 201.882 147.276 201.266C137.276 200.748 125.768 194.176 118.058 187.894C116.437 186.61 114.944 185.172 113.6 183.6C113.483 183.484 113.41 183.33 113.395 183.166C113.38 183.002 113.422 182.838 113.516 182.702Z" fill="#FFC431"/>
<path d="M345.127 161.008L336.417 147.38C336.727 155.96 337.417 201.58 336.385 261.426C336.385 261.638 336.301 261.841 336.151 261.991C336.001 262.141 335.797 262.226 335.585 262.226C335.373 262.226 335.169 262.141 335.019 261.991C334.869 261.841 334.785 261.638 334.785 261.426L334.785 147.06L326.081 161.01C325.537 161.884 324.149 161.08 324.697 160.2C327.781 155.256 334.513 144.47 334.791 144.02C334.864 143.902 334.966 143.805 335.087 143.737C335.208 143.67 335.344 143.634 335.483 143.634C335.622 143.634 335.758 143.67 335.879 143.737C336 143.805 336.102 143.902 336.175 144.02C339.149 148.776 346.095 159.532 346.521 160.2C347.069 161.06 345.681 161.876 345.127 161.008Z" fill="black"/>
<path d="M100.013 134.899L102.221 136.436C102.062 136.727 101.914 137.023 101.778 137.324C101.55 137.703 101.41 138.127 101.37 138.567C101.329 139.006 101.388 139.449 101.543 139.863C101.698 140.276 101.944 140.649 102.263 140.954C102.582 141.259 102.966 141.488 103.386 141.624C104.19 141.831 105.033 141.831 105.837 141.623C106.641 141.415 107.378 141.006 107.981 140.435L110.956 142.503C110.392 143.365 109.76 144.182 109.066 144.944C108.348 145.685 109.542 146.745 110.265 146.01C111.026 145.221 111.704 144.356 112.287 143.428L114.738 145.143C115.576 145.724 116.644 144.538 115.805 143.944L113.156 142.101C115.621 138.507 111.844 134.83 107.878 138.429L104.384 136C104.822 135.346 105.331 134.743 105.902 134.2C106.655 133.497 105.458 132.439 104.704 133.135C104.081 133.715 103.521 134.359 103.034 135.057L101.085 133.701C100.245 133.12 99.1657 134.31 100.013 134.899ZM102.967 138.809C103.069 138.293 103.257 137.797 103.522 137.342L106.596 139.48C105.204 140.515 102.93 140.449 102.97 138.813L102.967 138.809ZM111.644 138.544C112.563 138.842 112.454 140.032 112.09 140.712C112.006 140.869 111.915 141.024 111.82 141.174L109.205 139.356C109.527 139.049 109.913 138.818 110.335 138.677C110.757 138.537 111.204 138.491 111.646 138.543L111.644 138.544Z" fill="black"/>
<path d="M240.635 137.852C240.316 137.497 239.975 137.163 239.615 136.852C239.847 136.53 240.037 136.268 240.067 136.222C240.655 135.37 239.267 134.568 238.683 135.412L238.313 135.942C237.816 135.642 237.251 135.473 236.672 135.45C236.092 135.427 235.516 135.551 234.997 135.81C234.478 136.07 234.033 136.456 233.704 136.934C233.374 137.412 233.171 137.965 233.113 138.542C233.234 139.561 233.71 140.504 234.457 141.208C233.751 142.142 233.045 143.06 232.377 143.91C231.875 143.554 231.383 143.186 230.901 142.806C230.101 142.17 228.957 143.296 229.767 143.938C230.275 144.338 230.831 144.782 231.367 145.178L231.055 145.562C230.407 146.362 231.535 147.496 232.189 146.696L232.705 146.06C233.062 146.264 233.435 146.438 233.821 146.582C234.593 146.867 235.443 146.856 236.208 146.552C236.973 146.248 237.599 145.672 237.965 144.934C238.233 144.274 238.409 143.198 236.523 141.134C237.323 140.064 238.019 139.082 238.669 138.17C238.963 138.427 239.24 138.702 239.501 138.994C240.189 139.756 241.321 138.618 240.635 137.852ZM236.507 143.928C236.725 144.842 235.079 145.652 233.725 144.784C234.377 143.956 234.981 143.184 235.541 142.434C235.968 142.855 236.298 143.365 236.507 143.928ZM235.425 139.916C234.855 139.218 234.437 138.428 235.025 137.796C235.306 137.473 235.685 137.25 236.104 137.16C236.522 137.07 236.959 137.118 237.349 137.296C236.757 138.116 236.103 139 235.425 139.916Z" fill="black"/>
<path d="M147.169 189.522C146.546 188.786 145.749 188.217 144.851 187.866C144.591 187.719 144.329 187.576 144.065 187.436L144.533 184.8C145.207 184.852 145.933 184.942 146.597 185.024C147.619 185.148 147.611 183.544 146.597 183.424C146.049 183.358 145.413 183.262 144.817 183.192L145.101 181.592C145.279 180.592 143.735 180.15 143.553 181.166L143.209 183.112C142.795 183.125 142.384 183.186 141.983 183.292C141.513 183.403 141.088 183.654 140.763 184.012C140.438 184.369 140.228 184.816 140.161 185.294C140.094 185.772 140.173 186.26 140.388 186.693C140.602 187.125 140.942 187.483 141.363 187.72C141.657 187.906 141.993 188.086 142.297 188.264C142.097 189.376 141.897 190.494 141.723 191.514C141.068 191.272 140.491 190.858 140.053 190.314C139.415 189.504 138.285 190.648 138.919 191.448C139.57 192.246 140.451 192.824 141.441 193.104C141.189 194.528 141.009 195.54 140.983 195.704C140.803 196.704 142.349 197.146 142.529 196.13L143.023 193.33C143.699 193.344 144.371 193.222 144.999 192.971C145.627 192.721 146.198 192.347 146.679 191.872C147.01 191.59 147.237 191.206 147.326 190.781C147.414 190.355 147.359 189.913 147.169 189.522ZM142.083 186.274C141.959 186.18 141.865 186.052 141.811 185.905C141.758 185.759 141.748 185.6 141.782 185.448C141.817 185.296 141.894 185.157 142.005 185.048C142.116 184.938 142.257 184.863 142.409 184.832C142.576 184.778 142.749 184.742 142.923 184.726L142.595 186.578C142.431 186.48 142.231 186.384 142.083 186.274ZM145.545 190.732C144.943 191.324 144.148 191.679 143.305 191.732C143.465 190.82 143.621 189.932 143.769 189.106C144.113 189.306 144.517 189.522 144.845 189.706C145.126 189.82 145.388 189.975 145.623 190.166C145.835 190.416 145.779 190.472 145.545 190.732Z" fill="black"/>
<path d="M336.791 90.2701C336.749 89.3941 336.697 88.5308 336.635 87.6801C337.681 87.7308 338.703 88.0035 339.635 88.4801C339.819 88.5875 340.038 88.6175 340.244 88.5635C340.45 88.5095 340.626 88.3759 340.733 88.1921C340.841 88.0083 340.871 87.7894 340.817 87.5834C340.763 87.3775 340.629 87.2015 340.445 87.0941C339.224 86.47 337.878 86.1282 336.507 86.0941C336.455 85.4781 336.395 84.8741 336.331 84.2821C336.221 83.2681 334.617 83.2561 334.731 84.2821C334.793 84.8681 334.853 85.4601 334.907 86.0561C333.383 86.0821 331.253 86.3061 330.477 87.6881C329.807 88.8881 330.493 90.3861 335.249 91.5161C335.291 92.6301 335.315 93.7501 335.319 94.8661C333.913 94.5216 332.624 93.8084 331.585 92.8001C331.511 92.7258 331.423 92.6668 331.326 92.6266C331.228 92.5864 331.124 92.5657 331.019 92.5657C330.914 92.5657 330.81 92.5864 330.713 92.6266C330.616 92.6668 330.528 92.7258 330.453 92.8001C330.379 92.8744 330.32 92.9627 330.28 93.0598C330.239 93.1569 330.219 93.261 330.219 93.3661C330.219 93.4712 330.239 93.5753 330.28 93.6724C330.32 93.7695 330.379 93.8578 330.453 93.9321C331.766 95.2645 333.466 96.1491 335.311 96.4601C335.311 97.0821 335.291 97.7021 335.273 98.3161C335.273 98.5283 335.357 98.7318 335.508 98.8818C335.658 99.0318 335.861 99.1161 336.073 99.1161C336.285 99.1161 336.489 99.0318 336.639 98.8818C336.789 98.7318 336.873 98.5283 336.873 98.3161C336.892 97.7134 336.904 97.1061 336.909 96.4941C338.725 96.2461 340.855 95.0941 340.837 93.0941C340.825 91.3361 338.689 90.7181 336.791 90.2701ZM333.485 89.3361C333.255 89.2481 331.917 88.7201 331.925 88.4361C331.941 87.8541 334.275 87.6781 335.031 87.6361C335.086 88.3641 335.132 89.0974 335.169 89.8361C334.598 89.7059 334.035 89.5389 333.485 89.3361ZM337.845 94.6481C337.547 94.7679 337.235 94.8525 336.917 94.9001C336.917 93.9121 336.893 92.9181 336.859 91.9301C337.495 92.0768 338.115 92.2893 338.707 92.5641C339.937 93.1581 338.617 94.3141 337.845 94.6481Z" fill="black"/>
<path d="M290.854 63.3781C292.152 54.4595 293.446 45.5435 294.738 36.6301C294.886 35.6141 296.43 36.0461 296.284 37.0561L292.4 63.8001C292.254 64.8221 290.708 64.3881 290.854 63.3781Z" fill="#FF4848"/>
<path d="M284.201 62.4001L275.959 41.7741C275.575 40.8161 277.125 40.4001 277.505 41.3481C280.25 48.2241 282.997 55.0994 285.747 61.9741C286.129 62.9401 284.579 63.3561 284.201 62.4001Z" fill="#FF4848"/>
<path d="M22.0005 192.85C21.3625 192.05 22.4905 190.91 23.1345 191.714L39.4485 212.076C40.0885 212.876 38.9605 214.016 38.3145 213.21C25.7705 197.546 22.6605 193.666 22.0005 192.85Z" fill="#FF4848"/>
<path d="M35.7287 217.214L11.9747 204.374C11.0667 203.884 11.8767 202.498 12.7847 202.99L36.5387 215.828C37.4467 216.32 36.6387 217.704 35.7287 217.214Z" fill="#FF4848"/>
<path d="M21.9763 22.2721C22.0695 22.1233 22.2071 22.0075 22.3696 21.9411C22.5322 21.8747 22.7115 21.8611 22.8823 21.9021C38.0686 25.9671 51.5003 34.9055 61.1143 47.3441C61.2017 47.4978 61.2367 47.6758 61.2139 47.8512C61.1912 48.0266 61.112 48.1898 60.9883 48.3161C56.4783 53.0461 51.7343 57.5481 47.3143 62.3621C47.2399 62.4368 47.1516 62.496 47.0543 62.5365C46.957 62.5769 46.8526 62.5977 46.7473 62.5977C46.6419 62.5977 46.5376 62.5769 46.4403 62.5365C46.343 62.496 46.2546 62.4368 46.1803 62.3621C37.1518 53.0135 25.9379 46.0597 13.5503 42.1281C13.3482 42.0671 13.1773 41.9307 13.073 41.7471C12.9688 41.5636 12.9391 41.3469 12.9903 41.1421C14.7054 34.3187 17.76 27.9044 21.9763 22.2721ZM46.7303 60.6501C50.8383 56.2381 55.2542 52.1181 59.3602 47.7021C50.1833 35.9283 37.4185 27.4668 23.0003 23.6001C19.1686 28.7648 16.3614 34.6155 14.7303 40.8361C26.8492 44.7409 37.8332 51.542 46.7303 60.6501Z" fill="#FF4848"/>
<path d="M41.8016 43.1719C42.9616 41.9339 43.7595 40.1579 42.4015 38.7219C41.7374 38.1498 40.9174 37.7892 40.0469 37.6862C39.1764 37.5832 38.2949 37.7426 37.5156 38.1439C36.5875 37.2182 35.6994 36.2534 34.8536 35.2519C35.6844 34.7146 36.5759 34.2776 37.5095 33.9499C38.4795 33.6119 38.0636 32.0639 37.0836 32.4039C35.9568 32.7956 34.8822 33.3235 33.8836 33.9759C33.6309 33.6204 33.3908 33.2562 33.1636 32.8839C33.0529 32.7098 32.8792 32.5852 32.6788 32.5361C32.4784 32.487 32.2667 32.5173 32.0881 32.6205C31.9094 32.7238 31.7776 32.8921 31.7201 33.0902C31.6626 33.2884 31.6839 33.5011 31.7796 33.6839C32.036 34.1388 32.3198 34.5776 32.6295 34.9979C31.5923 35.7447 30.837 36.8192 30.4856 38.0479C30.4249 38.4827 30.4814 38.9258 30.6491 39.3315C30.8168 39.7372 31.0897 40.0909 31.4396 40.3559C33.1876 41.6979 35.4395 40.8539 37.2115 40.0479C38.0922 40.9539 38.9196 41.9102 39.6896 42.9119C38.4961 43.7343 37.146 44.3021 35.7236 44.58C34.7096 44.78 35.1396 46.3239 36.1496 46.1279C37.7454 45.8014 39.256 45.1469 40.5856 44.2059L40.7136 44.4059C40.821 44.5897 40.997 44.7233 41.2029 44.7774C41.4088 44.8314 41.6278 44.8014 41.8115 44.6939C41.9953 44.5865 42.1289 44.4105 42.1829 44.2046C42.237 43.9987 42.207 43.7797 42.0995 43.5959C42.0055 43.4559 41.8956 43.3179 41.8016 43.1719ZM33.7616 39.4739C32.9096 39.5079 31.7136 39.0299 32.1616 37.9799C32.5177 37.3043 33.006 36.7071 33.5976 36.2239C34.3476 37.0999 35.1835 37.9619 36.0395 38.8419C35.325 39.1895 34.553 39.4037 33.7616 39.4739ZM38.7335 39.3959C40.4195 38.8639 42.0336 39.9359 41.4156 41.1159C41.2639 41.3821 41.0863 41.6326 40.8856 41.8639C40.2122 41.0052 39.4939 40.1827 38.7335 39.3999V39.3959Z" fill="black"/>
<path d="M255.617 212.457L246.963 198.933C247.293 206.515 248.095 241.969 246.891 312.235C246.891 312.447 246.807 312.651 246.657 312.801C246.507 312.951 246.304 313.035 246.091 313.035C245.879 313.035 245.676 312.951 245.526 312.801C245.376 312.651 245.291 312.447 245.291 312.235L245.291 198.479L236.565 212.465C236.019 213.339 234.631 212.535 235.179 211.665C238.265 206.719 244.997 195.935 245.275 195.485C245.348 195.367 245.45 195.269 245.571 195.201C245.692 195.134 245.829 195.098 245.967 195.098C246.106 195.098 246.243 195.134 246.364 195.201C246.485 195.269 246.587 195.367 246.659 195.485L257.005 211.665C257.559 212.521 256.171 213.333 255.617 212.457Z" fill="black"/>
<path d="M170.084 285.97L161.358 272.322L161.358 336.514C161.358 336.726 161.274 336.93 161.124 337.08C160.974 337.23 160.77 337.314 160.558 337.314C160.346 337.314 160.143 337.23 159.993 337.08C159.842 336.93 159.758 336.726 159.758 336.514L159.758 271.974L151.032 285.96C150.488 286.834 149.1 286.028 149.648 285.15C152.732 280.206 159.464 269.42 159.742 268.97C159.818 268.856 159.921 268.763 160.042 268.698C160.163 268.634 160.297 268.6 160.434 268.6C160.571 268.6 160.706 268.634 160.827 268.698C160.947 268.763 161.05 268.856 161.126 268.97L171.472 285.15C172.026 286.032 170.638 286.838 170.084 285.97Z" fill="black"/>
<path d="M80.4892 338.19L71.794 324.683L71.5825 342.708C71.5825 342.918 71.4986 343.12 71.3491 343.268C71.1996 343.417 70.9968 343.5 70.7854 343.5C70.574 343.5 70.3712 343.417 70.2217 343.268C70.0722 343.12 69.9882 342.918 69.9882 342.708L70.1996 324.339L61.5044 338.18C60.9623 339.045 59.5792 338.247 60.1253 337.378C63.1984 332.485 69.9067 321.812 70.1837 321.366C70.2594 321.254 70.362 321.161 70.4823 321.097C70.6025 321.033 70.7368 321 70.8732 321C71.0096 321 71.1439 321.033 71.2642 321.097C71.3845 321.161 71.4871 321.254 71.5628 321.366L81.8723 337.378C82.4243 338.251 81.0412 339.048 80.4892 338.19Z" fill="black"/>
<path d="M14.8944 346.102C34.0944 345.768 51.6944 346.102 70.8424 346.102C71.5 346.102 71.5 346.102 72.4904 346.102H389.098C389.311 346.102 389.514 346.186 389.664 346.336C389.814 346.486 389.898 346.69 389.898 346.902C389.898 347.114 389.814 347.318 389.664 347.468C389.514 347.618 389.311 347.702 389.098 347.702H72.4984C70.8484 347.702 70.8484 347.702 70.8484 347.702H14.8984C14.6863 347.702 14.4828 347.618 14.3327 347.468C14.1827 347.318 14.0984 347.114 14.0984 346.902C14.0984 346.69 14.1827 346.486 14.3327 346.336C14.4828 346.186 14.6863 346.102 14.8984 346.102H14.8944Z" fill="black"/>
<path d="M101.677 354.36C110.669 357.676 119.751 360.729 128.923 363.52C129.909 363.818 129.489 365.368 128.497 365.066C119.329 362.277 110.246 359.223 101.249 355.906C100.289 355.552 100.705 354 101.677 354.36Z" fill="black"/>
<path d="M118.66 377.902L100.39 360.534C99.6402 359.822 100.776 358.69 101.524 359.4L119.794 376.768C120.544 377.482 119.4 378.614 118.66 377.902Z" fill="black"/>
<path d="M20.112 373.92L41.368 360.8C42.248 360.256 43.056 361.642 42.178 362.184L20.92 375.308C20.04 375.848 19.234 374.46 20.112 373.92Z" fill="black"/>
<path d="M14.8865 362.102C23.5532 359.936 32.1645 357.559 40.7205 354.972C40.9256 354.916 41.1446 354.943 41.3295 355.048C41.5144 355.153 41.65 355.327 41.7065 355.532C41.763 355.737 41.7358 355.956 41.6308 356.141C41.5257 356.326 41.3516 356.462 41.1465 356.518C32.6132 359.149 24.0025 361.526 15.3145 363.648C15.1095 363.705 14.8904 363.678 14.7053 363.573C14.5202 363.468 14.3843 363.294 14.3275 363.089C14.2708 362.884 14.2978 362.665 14.4026 362.48C14.5075 362.295 14.6815 362.159 14.8865 362.102Z" fill="black"/>
<path d="M281.326 166.084H208C207.751 166.084 207.513 165.985 207.338 165.81C207.162 165.634 207.064 165.396 207.064 165.148C207.064 164.9 207.162 164.662 207.338 164.486C207.513 164.311 207.751 164.212 208 164.212H281.326C281.574 164.212 281.812 164.311 281.988 164.486C282.163 164.662 282.262 164.9 282.262 165.148C282.262 165.396 282.163 165.634 281.988 165.81C281.812 165.985 281.574 166.084 281.326 166.084Z" fill="black"/>
<path d="M194.8 239.588H121.742C121.494 239.588 121.256 239.489 121.08 239.314C120.905 239.138 120.806 238.9 120.806 238.652C120.806 238.404 120.905 238.165 121.08 237.99C121.256 237.814 121.494 237.716 121.742 237.716H194.8C195.049 237.716 195.287 237.814 195.462 237.99C195.638 238.165 195.736 238.404 195.736 238.652C195.736 238.9 195.638 239.138 195.462 239.314C195.287 239.489 195.049 239.588 194.8 239.588Z" fill="black"/>
<path d="M194.801 230.9H121.743C121.502 230.889 121.275 230.785 121.109 230.611C120.943 230.437 120.85 230.206 120.85 229.965C120.85 229.724 120.943 229.493 121.109 229.318C121.275 229.144 121.502 229.041 121.743 229.03H194.801C195.041 229.041 195.268 229.144 195.434 229.318C195.601 229.493 195.693 229.724 195.693 229.965C195.693 230.206 195.601 230.437 195.434 230.611C195.268 230.785 195.041 230.889 194.801 230.9Z" fill="black"/>
<path d="M194.801 222.214H121.743C121.502 222.203 121.275 222.099 121.109 221.925C120.943 221.751 120.85 221.52 120.85 221.279C120.85 221.038 120.943 220.807 121.109 220.632C121.275 220.458 121.502 220.355 121.743 220.344H194.801C195.041 220.355 195.268 220.458 195.434 220.632C195.601 220.807 195.693 221.038 195.693 221.279C195.693 221.52 195.601 221.751 195.434 221.925C195.268 222.099 195.041 222.203 194.801 222.214Z" fill="black"/>
<path d="M107.588 312.424H34.5277C34.2872 312.413 34.0603 312.309 33.894 312.135C33.7278 311.961 33.635 311.729 33.635 311.489C33.635 311.248 33.7278 311.016 33.894 310.842C34.0603 310.668 34.2872 310.565 34.5277 310.554H107.588C107.828 310.565 108.055 310.668 108.221 310.842C108.388 311.016 108.48 311.248 108.48 311.489C108.48 311.729 108.388 311.961 108.221 312.135C108.055 312.309 107.828 312.413 107.588 312.424Z" fill="black"/>
<path d="M183.126 201C165.336 216.226 141.044 216.93 121.278 207.228C120.196 206.7 121.144 205.086 122.222 205.612C138.482 213.612 158.712 214.466 175.422 204.33C177.381 203.116 179.261 201.78 181.052 200.33C182.768 199.005 184.192 197.339 185.234 195.438C185.736 194.346 187.372 195.308 186.848 196.382C185.936 198.16 184.67 199.731 183.126 201Z" fill="black"/>
<path d="M298.254 80.0159H371.314C371.561 80.0195 371.797 80.1194 371.971 80.2942C372.146 80.469 372.245 80.705 372.248 80.9519V107.682C372.245 107.928 372.145 108.164 371.971 108.338C371.796 108.513 371.561 108.612 371.314 108.616H305.622C306.645 110.208 307.645 111.812 308.622 113.428H371.056C371.297 113.439 371.524 113.542 371.69 113.717C371.856 113.891 371.949 114.122 371.949 114.363C371.949 114.604 371.856 114.835 371.69 115.009C371.524 115.183 371.297 115.287 371.056 115.298H309.724C310.524 116.666 311.312 118.042 312.086 119.426C356.196 119.426 367.698 119.364 370.744 119.448C371.292 119.462 372.266 119.434 372.248 120.362C372.248 120.362 372.326 343.908 372.268 345.962H389.098C389.346 345.962 389.584 346.06 389.76 346.236C389.936 346.412 390.034 346.65 390.034 346.898C390.034 347.146 389.936 347.384 389.76 347.56C389.584 347.735 389.346 347.834 389.098 347.834H72.6282C74 347.834 74.5 347.84 70.7582 347.84C70.7582 347.84 23.3742 347.992 14.8942 347.84C14.646 347.84 14.4079 347.741 14.2323 347.566C14.0568 347.39 13.9582 347.152 13.9582 346.904C13.9582 346.656 14.0568 346.418 14.2323 346.242C14.4079 346.067 14.646 345.968 14.8942 345.968H33.3602C30.6882 334.182 22.9462 324.094 16.3142 314.254C13.3142 309.814 9.58418 304.872 10.0382 299.204C10.1018 297.452 10.6131 295.746 11.5234 294.248C12.4337 292.749 13.7126 291.509 15.2382 290.646C19.9822 288.338 25.4842 292.028 29.4802 295.446C25.0222 288.944 20.6182 282.384 16.7582 275.556C11.7962 266.784 8.28619 255.918 12.5142 246.13C16.1462 237.73 25.0422 233.33 33.8682 233.01C43.9642 232.638 53.2462 237.71 60.8882 243.872C66.8582 248.721 72.3536 254.126 77.3002 260.016C72.9695 252.008 69.0102 243.813 65.4222 235.43C63.0582 229.886 60.5482 223.874 61.8362 217.734C62.2257 215.266 63.392 212.987 65.1656 211.228C66.9392 209.469 69.2276 208.321 71.6982 207.952C76.6982 207.352 80.9962 209.654 84.6982 212.714C81.4582 206.784 78.6282 200.206 79.4782 193.63C80.5262 185.508 86.9682 178.974 95.5202 180.76C97.4706 181.18 99.3314 181.941 101.016 183.01C90.298 168.527 80.4661 153.409 71.5742 137.738C63.0502 122.444 56.6702 103.538 66.7482 87.3799C68.6095 84.1546 71.1481 81.3714 74.189 79.222C77.2299 77.0727 80.7007 75.6083 84.3622 74.9299C93.6522 73.5799 102.81 78.1799 110.72 82.5139C141.12 99.1719 162.706 128.014 180.906 157.494C178.938 149.952 179.202 141.958 184.152 135.39C191.152 126.092 206.752 124.676 218.11 135.15C218.688 135.014 219.272 134.894 219.846 134.736C214.222 120.453 210.149 105.607 207.7 90.4539C206.714 83.1259 206.63 75.2719 209.74 68.4079C211.3 65.0672 213.657 62.1615 216.605 59.9467C219.552 57.732 222.999 56.2763 226.642 55.7079C251.81 51.3079 281.686 75.9079 297.31 96.7719V80.9519C297.314 80.7034 297.415 80.4662 297.591 80.2913C297.768 80.1163 298.006 80.0174 298.254 80.0159ZM370.378 106.746V81.8879H299.19V106.746H370.378ZM299.19 345.968H370.378V121.298H299.19V345.968ZM278.318 345.968C278.974 345.968 279.698 345.896 280.39 345.908V172.232H209.2C209.2 194.762 208.948 333.502 208.946 345.968H278.318ZM122.686 345.968C122.686 345.968 193.184 345.94 193.872 345.948V246.2H122.686V345.968ZM35.4642 345.968H70.7582C73 345.968 72 345.968 72.6282 345.968C72.6282 345.968 105.966 345.94 106.652 345.948V317.722C97.4522 317.722 40.5302 317.832 35.4642 317.834V345.968ZM199.6 137.428C202.048 143.028 204.6 148.588 206.564 154.366C231.33 160.648 255.404 148.966 267.918 128.712C262.038 122.916 255.79 117.505 249.214 112.512C244.816 121.526 237.579 128.847 228.615 133.349C219.651 137.85 209.458 139.283 199.6 137.428ZM243.14 58.5739C222.874 53.2639 210.368 62.3599 209.102 78.8779C208.464 87.1839 210.284 95.4619 212.196 103.492C214.669 113.918 217.819 124.171 221.628 134.186C227.429 132.3 232.775 129.229 237.327 125.169C241.88 121.109 245.539 116.148 248.074 110.6C248.136 110.494 248.219 110.401 248.317 110.327C248.415 110.252 248.527 110.198 248.646 110.167C248.765 110.136 248.889 110.129 249.011 110.146C249.133 110.163 249.25 110.204 249.356 110.266C256.559 115.674 263.381 121.57 269.776 127.912C269.919 128.06 270.011 128.25 270.037 128.455C270.064 128.659 270.023 128.866 269.922 129.046C263.811 139.87 254.325 148.396 242.914 153.324C231.502 158.252 218.792 159.311 206.722 156.338C206.261 156.288 205.81 156.167 205.386 155.98C204.764 155.596 204.586 154.314 204.344 153.654C201.272 145.154 197.064 136.902 197.144 136.194C197.136 136.053 197.162 135.912 197.219 135.783C197.276 135.653 197.364 135.54 197.474 135.451C197.584 135.363 197.714 135.302 197.852 135.274C197.991 135.246 198.134 135.251 198.27 135.29C204.027 136.564 209.979 136.684 215.782 135.642C203.128 124.514 182.328 128.896 181.64 148.842C181.677 155.302 183.454 161.634 186.784 167.17C186.895 167.383 186.92 167.631 186.854 167.862C186.787 168.093 186.634 168.289 186.427 168.411C186.219 168.532 185.973 168.569 185.739 168.514C185.505 168.458 185.301 168.315 185.17 168.114C167.536 138.462 147.428 108.314 118.05 89.0999C110.628 84.2459 102.31 79.3279 93.6042 77.2999C89.6321 76.2929 85.4584 76.4078 81.5478 77.6321C77.6372 78.8563 74.143 81.1417 71.4542 84.2339C66.3363 90.0682 63.4621 97.5338 63.3462 105.294C63.1962 115 66.7062 124.362 71.0922 132.87C79.6002 149.384 97.4002 175.226 108.638 190.2C109.27 191.042 107.838 192.16 107.168 191.334C103.648 186.98 99.2422 182.712 93.3262 182.334C90.9454 182.23 88.595 182.899 86.6258 184.241C84.6566 185.583 83.1743 187.526 82.4002 189.78C78.6122 199.18 84.8162 209.284 89.4322 217.21C89.5392 217.406 89.5727 217.634 89.5267 217.853C89.4807 218.072 89.3581 218.267 89.181 218.404C89.0039 218.541 88.7839 218.61 88.5605 218.599C88.3371 218.588 88.125 218.497 87.9622 218.344C83.8822 214.324 79.2842 209.744 73.1622 209.744C67.2622 209.744 63.6882 214.794 63.3622 220.296C63.0182 226.324 66.0082 232.222 68.3622 237.59C73.5663 249.407 79.5363 260.871 86.2342 271.91C86.8622 272.948 85.2822 273.848 84.6182 272.854C78.6871 264.085 71.7261 256.058 63.8842 248.946C56.6842 242.346 47.9402 236.104 37.9382 235.032C29.5642 234.136 20.0342 237.05 15.4302 244.536C9.80218 253.69 13.1062 265.07 17.8842 273.774C21.2542 279.914 26.7342 287.912 38.1442 304.842C38.7302 305.71 37.3302 306.82 36.6762 305.976C34.2398 302.732 31.4935 299.733 28.4762 297.022C25.4762 294.408 21.6242 291.41 17.4282 291.866C12.6542 292.946 11.1602 298.652 12.2442 302.884C13.6062 308.196 17.5962 312.85 20.6202 317.314C25.4762 324.486 30.6202 331.914 33.5902 340.13V316.898C33.5938 316.651 33.6934 316.416 33.8677 316.241C34.0421 316.067 34.2776 315.967 34.5242 315.964C91.7502 315.964 104.362 315.734 107.292 315.886C108.172 315.93 108.446 315.944 108.492 316.984C108.57 318.692 108.518 324.584 108.518 345.968H120.808V245.258C120.811 245.011 120.911 244.774 121.086 244.599C121.261 244.425 121.497 244.325 121.744 244.322C200.24 243.8 194.956 244.168 195.462 244.6C195.892 245.056 195.738 237.896 195.738 345.968H207.076C207.076 323.44 207.33 184.076 207.332 171.298C207.335 171.05 207.434 170.814 207.609 170.639C207.784 170.464 208.021 170.364 208.268 170.362C286.656 169.762 281.54 170.236 281.92 170.592C282.46 170.992 282.262 168.192 282.262 345.968H297.318V120.362C297.322 120.115 297.422 119.879 297.596 119.704C297.771 119.529 298.007 119.429 298.254 119.426H309.94C309.16 118.042 308.36 116.666 307.54 115.298H298.88C298.64 115.287 298.413 115.183 298.246 115.009C298.08 114.835 297.987 114.604 297.987 114.363C297.987 114.122 298.08 113.891 298.246 113.717C298.413 113.542 298.64 113.439 298.88 113.428H306.42C305.432 111.808 304.421 110.204 303.386 108.616H298.246C298.024 108.621 297.808 108.538 297.646 108.386C297.174 108.02 297.304 108.386 297.304 99.8759C284.094 81.8919 264.554 64.1839 243.14 58.5739Z" fill="black"/>
<path d="M99.8185 159.96C98.8045 159.946 98.0185 159.96 97.4185 159.272C92.7142 154.714 87.6762 150.514 82.3465 146.706C82.1694 146.587 82.0368 146.413 81.9699 146.211C81.9029 146.008 81.9052 145.79 81.9766 145.589C82.048 145.388 82.1843 145.217 82.3639 145.102C82.5435 144.987 82.7563 144.936 82.9685 144.956C85.2732 144.897 87.5287 144.276 89.5393 143.148C91.5499 142.02 93.2549 140.418 94.5065 138.482C98.8585 132.142 98.0225 122.578 95.5065 115.408C95.2485 114.67 96.0165 114.148 96.6585 114.258C103.91 115.482 111.068 117.205 118.082 119.416C118.794 119.732 118.978 120.658 119.224 121.346C122.046 129.133 122.1 137.654 119.378 145.476C116.016 153.484 108.24 160.052 99.8185 159.96ZM117.1 121.08C110.759 119.105 104.301 117.529 97.7625 116.362C99.3554 121.31 99.8155 126.552 99.1085 131.702C98.6386 135.301 97.0696 138.667 94.6155 141.341C92.1614 144.014 88.9419 145.866 85.3965 146.642C90.065 150.205 94.547 154.006 98.8245 158.03C108.056 158.684 116.498 150.658 118.718 141.368C120.163 134.592 119.601 127.541 117.1 121.08Z" fill="black"/>
<path d="M147.272 201.4C135.86 200.926 120.11 191.282 113.546 183.764C113.531 183.736 113.516 183.708 113.502 183.68C113.366 183.544 113.281 183.365 113.263 183.173C113.244 182.982 113.293 182.79 113.4 182.63C120.084 172.406 119.94 172.098 120.784 170.734C120.912 170.522 121.117 170.368 121.356 170.306C121.595 170.244 121.849 170.277 122.064 170.4C124.91 172.343 127.874 174.106 130.94 175.68C132.99 176.784 135.186 177.592 137.462 178.08C140.264 178.545 143.142 178.143 145.709 176.928C148.277 175.713 150.412 173.742 151.828 171.28C151.901 171.158 152.001 171.054 152.121 170.976C152.24 170.898 152.375 170.848 152.517 170.83C152.658 170.812 152.801 170.826 152.936 170.871C153.071 170.917 153.194 170.992 153.296 171.092C158.096 175.78 164.318 178.692 170.28 181.596C170.421 181.676 170.539 181.793 170.62 181.933C170.702 182.074 170.745 182.233 170.744 182.396C170.254 194.312 158.988 202.126 147.272 201.4ZM152.884 173.22C151.346 175.479 149.247 177.299 146.792 178.501C144.337 179.702 141.612 180.244 138.884 180.072C136.352 179.905 133.879 179.224 131.618 178.072C128.224 176.488 124.964 174.631 121.87 172.52L115.38 183C121.092 188.759 127.884 193.334 135.368 196.462C143.756 200.332 152.616 201 160.584 196.252C162.901 194.835 164.855 192.895 166.289 190.588C167.723 188.282 168.597 185.671 168.842 182.966C163.091 180.485 157.719 177.206 152.884 173.224V173.22Z" fill="black"/>
<path d="M291.378 64.4916C291.142 64.4204 290.943 64.2612 290.822 64.0471C290.7 63.833 290.666 63.5804 290.726 63.3416L294.6 36.5996C294.668 36.3612 294.826 36.159 295.042 36.0366C295.257 35.9143 295.512 35.8816 295.752 35.9456C295.987 36.0169 296.187 36.176 296.308 36.3902C296.429 36.6043 296.464 36.8569 296.404 37.0956L292.53 63.8396C292.462 64.078 292.303 64.28 292.088 64.4021C291.872 64.5241 291.617 64.5563 291.378 64.4916Z" fill="black"/>
<path d="M284.07 62.4418L275.828 41.8178C275.764 41.5784 275.797 41.3234 275.919 41.1079C276.041 40.8923 276.244 40.7336 276.482 40.6658C276.721 40.6061 276.974 40.6407 277.188 40.7625C277.402 40.8842 277.561 41.0839 277.632 41.3198L285.874 61.9458C285.938 62.185 285.906 62.4398 285.784 62.6553C285.662 62.8707 285.46 63.0297 285.222 63.0978C284.983 63.1576 284.729 63.1228 284.515 63.0006C284.3 62.8784 284.141 62.6783 284.07 62.4418Z" fill="black"/>
<path d="M21.9097 191.62C22.0855 191.445 22.3236 191.346 22.5717 191.346C22.8199 191.346 23.0579 191.445 23.2337 191.62L39.5477 211.98C39.7177 212.158 39.8125 212.395 39.8125 212.642C39.8125 212.888 39.7177 213.125 39.5477 213.304C39.4608 213.391 39.3576 213.46 39.244 213.507C39.1304 213.554 39.0087 213.578 38.8857 213.578C38.7628 213.578 38.641 213.554 38.5274 213.507C38.4138 213.46 38.3106 213.391 38.2237 213.304L21.9097 192.944C21.7402 192.765 21.6457 192.528 21.6457 192.282C21.6457 192.035 21.7402 191.798 21.9097 191.62Z" fill="black"/>
<path d="M35.6601 217.328L11.9081 204.49C10.8481 203.916 11.7921 202.3 12.8521 202.874L36.6001 215.712C37.6661 216.286 36.7221 217.902 35.6601 217.328Z" fill="black"/>
<path d="M61.2298 47.2758C61.3309 47.4555 61.3712 47.663 61.3445 47.8675C61.3178 48.0719 61.2256 48.2622 61.0818 48.4098C56.5718 53.1398 51.8277 57.6418 47.4077 62.4558C47.232 62.6304 46.9944 62.7283 46.7468 62.7283C46.4991 62.7283 46.2615 62.6304 46.0858 62.4558C37.0731 53.1247 25.8801 46.1828 13.5157 42.2558C13.2789 42.1863 13.0784 42.0275 12.9564 41.813C12.8343 41.5985 12.8004 41.3449 12.8618 41.1058C14.5988 34.278 17.6564 27.8564 21.8618 22.2038C21.9097 22.1459 21.964 22.0936 22.0237 22.0478C22.1295 21.9196 22.2706 21.8252 22.4296 21.7765C22.5885 21.7278 22.7583 21.7268 22.9178 21.7738C38.1867 25.7382 51.6799 34.7198 61.2298 47.2758ZM23.0638 23.7578C19.3072 28.8664 16.5383 34.6321 14.8997 40.7578C26.9391 44.6708 37.8567 51.4307 46.7258 60.4638C50.7818 56.1158 55.1258 52.0478 59.1818 47.6978C50.0466 36.0236 37.3743 27.624 23.0638 23.7578Z" fill="black"/>
<path d="M101.71 354.23C110.702 357.546 119.785 360.599 128.958 363.39C130.106 363.74 129.618 365.546 128.46 365.19C119.292 362.402 110.21 359.348 101.214 356.03C100.094 355.622 100.578 353.812 101.71 354.23Z" fill="black"/>
<path d="M101.618 359.306L119.888 376.674C120.764 377.506 119.438 378.826 118.566 377.998L100.296 360.63C99.4205 359.8 100.746 358.476 101.618 359.306Z" fill="black"/>
<path d="M20.0439 373.8L41.2998 360.68C42.3278 360.046 43.2699 361.664 42.2459 362.296L20.9879 375.42C19.9599 376.054 19.0199 374.436 20.0439 373.8Z" fill="black"/>
<path d="M14.2203 363.084C14.1655 362.853 14.2002 362.61 14.3175 362.404C14.4348 362.198 14.6259 362.044 14.8523 361.974C23.519 359.808 32.1296 357.431 40.6843 354.842C40.9167 354.794 41.1584 354.837 41.3606 354.961C41.5628 355.085 41.7105 355.281 41.7737 355.509C41.837 355.738 41.8111 355.982 41.7013 356.192C41.5915 356.402 41.406 356.563 41.1823 356.642C32.6303 359.23 24.019 361.607 15.3483 363.774C15.1072 363.831 14.8531 363.791 14.6416 363.662C14.4301 363.533 14.2786 363.325 14.2203 363.084Z" fill="black"/>
</svg>
