<svg width="72" height="72" viewBox="0 0 72 72" fill="none" xmlns="http://www.w3.org/2000/svg">
<path d="M31.6875 7.25V2.9375H8.6875V69.0625H31.6875V64.75M41.75 27.375H38.875C38.1125 27.375 37.3812 27.6779 36.8421 28.2171C36.3029 28.7562 36 29.4875 36 30.25V31.3281C36 31.9502 36.2018 32.5555 36.575 33.0531C36.9482 33.5508 37.4728 33.9139 38.07 34.0881L45.43 36.2357C46.0272 36.4099 46.5518 36.7731 46.925 37.2707C47.2982 37.7684 47.5 38.3737 47.5 38.9957V41.75C47.5 42.5125 47.1971 43.2438 46.6579 43.7829C46.1188 44.3221 45.3875 44.625 44.625 44.625H41.75M41.75 27.375H44.625C45.3875 27.375 46.1188 27.6779 46.6579 28.2171C47.1971 28.7562 47.5 29.4875 47.5 30.25V31.6875M41.75 27.375V23.0625M41.75 44.625H38.875C38.4974 44.625 38.1236 44.5506 37.7748 44.4062C37.426 44.2617 37.109 44.0499 36.8421 43.7829C36.5751 43.516 36.3633 43.199 36.2188 42.8502C36.0744 42.5014 36 42.1275 36 41.75V40.3125M41.75 44.625V48.9375M20.1875 10.125V24.4885M20.1875 24.4885C22.754 19.6818 26.8533 15.8707 31.834 13.6609C36.8148 11.4511 42.3912 10.9693 47.6771 12.2921C52.9631 13.6149 57.6553 16.6664 61.0082 20.9617C64.361 25.257 66.1821 30.5496 66.1821 35.9986C66.1821 41.4475 64.361 46.7402 61.0082 51.0354C57.6553 55.3307 52.9631 58.3822 47.6771 59.705C42.3912 61.0278 36.8148 60.546 31.834 58.3362C26.8533 56.1264 22.754 52.3182 20.1875 47.5115M20.1875 24.4885V47.5115M20.1875 61.875V47.5115" stroke="black" stroke-width="3"/>
</svg>
