<svg width="85" height="26" viewBox="0 0 85 26" fill="none" xmlns="http://www.w3.org/2000/svg">
<path fill-rule="evenodd" clip-rule="evenodd" d="M51.0153 0.5C49.8099 0.5 48.9122 1.40956 48.9122 2.55301C48.9122 3.72244 49.8099 4.60602 51.0153 4.632C52.1952 4.632 53.0929 3.72244 53.0929 2.55301C53.0929 1.40956 52.1952 0.5 51.0153 0.5ZM47.1167 6.47711V10.1154H49.4508V20.5623H53.0672V6.47711H47.1167ZM4.69372 11.2069H9.38741V15.9625H4.69372V11.2069ZM9.38744 6.45115V11.2068H14.0811V25.4739H9.38741V20.7182H4.69369V15.9626H0V1.69545H4.69372V6.45115H9.38744ZM27.4442 10.2453C29.2652 10.2453 30.6759 11.6486 30.6759 13.8056C30.6759 15.9626 29.2139 17.3919 27.4185 17.3659C25.4692 17.3659 24.1868 15.7287 24.1868 13.8056C24.1868 11.5707 25.6744 10.2453 27.4442 10.2453ZM24.2637 20.8222V19.3409H24.5715C25.2127 20.1985 26.29 20.9521 28.2136 20.9521C31.6762 20.9521 34.4976 17.8596 34.4976 13.7796C34.4976 9.77754 31.8814 6.63306 28.3932 6.63306C26.3156 6.63306 25.1871 7.56861 24.5458 8.37422H24.2637V1.7994H20.519V20.8222H24.2637ZM40.3968 6.73703V8.91998H40.6276C41.2175 7.75054 42.5513 6.73703 44.0902 6.73703H45.1674V10.4792H43.7824C41.7305 10.4792 40.3968 11.7786 40.3968 14.2994V20.7962H36.6777V6.73703H40.3968ZM65.6608 13.6237C65.6608 11.7006 64.3784 10.0894 62.4547 10.0894C60.6337 10.0894 59.1973 11.5187 59.1973 13.6237C59.1973 15.7807 60.608 17.21 62.4034 17.21C64.1989 17.21 65.6608 15.8846 65.6608 13.6237ZM65.6095 19.3149L65.3274 19.0551C64.6862 19.8867 63.5833 20.7962 61.4801 20.7962C58.0175 20.7702 55.4013 17.6517 55.4013 13.6497C55.4013 9.56965 58.2483 6.47715 61.7109 6.47715C63.6346 6.47715 64.6349 7.23079 65.3531 8.08837H65.6352V6.47715H69.3286V25.5H65.6095V19.3149ZM72.7142 10.1154C72.3295 10.1154 72.073 10.4012 72.073 10.7391C72.073 11.1029 72.3295 11.3888 72.7142 11.3628C73.099 11.3628 73.3555 11.0769 73.3555 10.7391C73.3555 10.4012 73.099 10.1154 72.7142 10.1154ZM74.3814 7.10076H75.5356V7.49057H75.6125C75.7664 7.25669 76.0742 6.99681 76.5615 6.99681C77.1001 6.99681 77.4592 7.25669 77.6644 7.59452H77.7414C77.9465 7.25669 78.3313 6.99681 78.8955 6.99681C79.7676 6.99681 80.3832 7.6465 80.3832 8.45211V11.2847H79.229V8.86791C79.229 8.37415 78.9725 8.14026 78.6134 8.14026C78.2543 8.14026 77.9722 8.40014 77.9722 8.86791V11.2847H76.818V8.76396C76.818 8.37415 76.5359 8.14026 76.1768 8.14026C75.8177 8.14026 75.5356 8.42612 75.5356 8.86791V11.3107H74.3814V7.10076ZM80.8449 6.99681L82.1273 8.97186L80.7936 11.2847H82.1273L82.8455 9.82944H82.9224L83.6406 11.2847H85L83.7176 9.04982L84.9487 6.99681H83.615L82.9481 8.19224H82.8455L82.1786 6.99681H80.8449Z" fill="black"/>
</svg>
