<svg width="400" height="238" viewBox="0 0 400 238" fill="none" xmlns="http://www.w3.org/2000/svg">
<path d="M320 171C320 164.373 325.373 159 332 159L388 159C394.627 159 400 153.627 400 147L400 91C400 84.3725 394.627 79 388 79L332 79C325.373 79 320 84.3726 320 91L320 146C320 152.627 314.627 158 308 158L172 158C165.373 158 160 152.627 160 146L160 12C160 5.37257 154.627 -1.3518e-05 148 -1.29386e-05L92 -8.0429e-06C85.3726 -7.46351e-06 80 5.37258 80 12L80 67C80 73.6274 74.6274 79 68 79L12 79C5.37257 79 -1.34305e-05 84.3726 -1.28511e-05 91L-1.04907e-06 226C-4.69686e-07 232.627 5.37258 238 12 238L308 238C314.627 238 320 232.627 320 226L320 171Z" fill="#3366FF"/>
</svg>
