<svg width="160" height="148" viewBox="0 0 160 148" fill="none" xmlns="http://www.w3.org/2000/svg">
<path d="M12 80C5.37258 80 -3.26207e-06 74.6274 -2.97237e-06 68L-5.24536e-07 12C-2.34843e-07 5.37257 5.37258 -6.75898e-06 12 -6.46929e-06L68 -4.02145e-06C74.6274 -3.73175e-06 80 5.37258 80 12L80 56C80 62.6274 85.3726 68 92 68L148 68C154.627 68 160 73.3726 160 80L160 136C160 142.627 154.627 148 148 148L92 148C85.3726 148 80 142.627 80 136L80 92C80 85.3726 74.6274 80 68 80L12 80Z" fill="#FE572A"/>
</svg>
